<?xml version="1.0" encoding="UTF-8"?>
<svg version="1.1" xmlns="http://www.w3.org/2000/svg" width="2000" height="593">
<path d="M0 0 C0.72096979 -0.00523668 1.44193958 -0.01047336 2.18475693 -0.01586872 C4.61298796 -0.03093178 7.04100943 -0.03157525 9.46928406 -0.03224182 C11.20529031 -0.03985916 12.94129317 -0.04828591 14.67729187 -0.0574646 C19.40257152 -0.07946036 24.12778644 -0.08821546 28.85311151 -0.09329104 C31.80368526 -0.09692907 34.75424193 -0.10316625 37.70480919 -0.11029243 C47.99398421 -0.13480594 58.28310868 -0.14784263 68.5723114 -0.15138245 C78.1699499 -0.15501774 87.76726859 -0.18490782 97.36480933 -0.22678703 C105.5984165 -0.26145772 113.83191754 -0.27693034 122.06559724 -0.27762848 C126.98597638 -0.27842249 131.90603013 -0.2872176 136.826334 -0.31562614 C141.45491649 -0.34175122 146.08290257 -0.34404327 150.71152496 -0.3279705 C152.41068761 -0.32615148 154.1098841 -0.33288758 155.80897331 -0.34878922 C158.12872959 -0.3691763 160.4463847 -0.35874418 162.76611328 -0.34057617 C164.06416554 -0.3425875 165.36221781 -0.34459883 166.69960499 -0.3466711 C170.96882195 0.43889415 172.41288284 1.91057017 175.0735321 5.27415466 C177.42623397 11.7975553 177.34849078 18.21034497 177.4485321 25.08665466 C178.56751176 66.66193987 185.85959658 109.51429902 199.26689148 148.87913513 C200.15094538 151.5040046 200.99652759 154.13961138 201.8391571 156.77806091 C212.140406 188.77303028 225.19860117 219.5761278 241.71562195 248.85960388 C242.96114778 251.0743199 244.18740786 253.29820801 245.40556335 255.52806091 C266.56973271 294.07961277 293.66591243 329.40974197 323.53422546 361.59129333 C324.71204207 362.87895231 325.87721573 364.1781863 327.03666687 365.48240662 C332.70309228 371.85282917 338.59489309 377.94676245 344.6360321 383.96165466 C345.52999695 384.85948669 346.42396179 385.75731873 347.34501648 386.68235779 C352.4267415 391.75664795 357.62195016 396.60236874 363.0735321 401.27415466 C364.68121583 402.72860983 366.28592925 404.18636361 367.8860321 405.64915466 C373.13201689 410.38177091 378.5803276 414.83349424 384.0735321 419.27415466 C385.94912586 420.81509891 387.82413073 422.35676023 389.6985321 423.89915466 C393.82677035 427.28703455 398.02117028 430.56587655 402.29618835 433.76634216 C405.2657629 436.28558562 406.50097201 438.66979171 406.8860321 442.46165466 C406.6940755 450.2867092 401.2613891 455.99118319 396.76347351 461.99241638 C393.79511579 466.00025678 390.97965284 470.11490626 388.1360321 474.21165466 C380.83134975 484.64648889 373.4878231 495.05426666 366.11650085 505.44212341 C360.887115 512.8197372 355.72123801 520.23381371 350.6360321 527.71165466 C345.87913616 534.70171198 340.99946469 541.58820966 336.02568054 548.42527771 C331.91647535 554.08192112 327.88673686 559.79033572 323.8860321 565.52415466 C314.61389414 578.79764266 314.61389414 578.79764266 311.4485321 583.27415466 C310.31544617 584.88290466 310.31544617 584.88290466 309.1594696 586.52415466 C304.33953164 592.87852981 304.33953164 592.87852981 300.6985321 594.01634216 C293.52214501 594.37943318 289.84475145 592.24454404 284.55815125 587.4672699 C283.5495918 586.53069225 282.54574707 585.58901197 281.54667664 584.64231873 C279.29409263 582.55026026 276.90482462 580.63894707 274.5110321 578.71165466 C273.60868835 577.97431091 272.7063446 577.23696716 271.7766571 576.47727966 C269.99729277 575.0270463 268.21608841 573.57906717 266.4329071 572.13352966 C255.18695165 562.9920805 244.25988298 553.60047497 233.75444031 543.61351013 C230.6564942 540.67188057 227.53385309 537.78692015 224.29399109 535.00169373 C220.29296353 531.51064908 216.50461169 527.85038461 212.75712585 524.09056091 C212.09696976 523.43136154 211.43681366 522.77216217 210.75665283 522.09298706 C209.37317705 520.71018631 207.99094127 519.32614391 206.60990906 517.94090271 C204.51621541 515.84185123 202.41723336 513.74819526 200.31767273 511.65501404 C198.9638364 510.3005168 197.61031035 508.94570935 196.25712585 507.59056091 C195.64026413 506.97572342 195.0234024 506.36088593 194.3878479 505.72741699 C190.65139259 501.97114333 187.10166649 498.09817483 183.6444397 494.08317566 C181.23471229 491.30818908 178.7124692 488.64183394 176.1985321 485.96165466 C171.71933051 481.14660023 167.4658344 476.20883622 163.3469696 471.07884216 C161.28175362 468.53103276 159.17377525 466.03122017 157.04081726 463.54051208 C151.60779448 457.19254334 146.42470536 450.69537835 141.39335632 444.02366638 C140.00092174 442.17790496 138.60169879 440.33740174 137.20243835 438.49681091 C119.08854484 414.59014942 102.12950158 389.69308019 87.28251648 363.61643982 C85.46147028 360.45279717 83.72867663 357.77378155 81.0735321 355.27415466 C80.46251648 356.4072406 79.85150085 357.54032654 79.2219696 358.70774841 C52.47615158 407.30538311 17.52029319 453.05555375 -20.320755 493.52488708 C-21.45358571 494.75899565 -22.57017357 496.00811037 -23.67475891 497.26756287 C-30.8152112 505.37931715 -38.47045693 512.96916449 -46.11958313 520.59764099 C-48.49061352 522.96329656 -50.85623211 525.3342698 -53.22138977 527.70579529 C-54.74906394 529.23280883 -56.27704818 530.75951223 -57.80537415 532.28587341 C-58.50143265 532.98395615 -59.19749115 533.68203888 -59.91464233 534.40127563 C-63.87802137 538.3460379 -67.94021709 542.11863314 -72.17816162 545.76739502 C-74.63870916 547.88799241 -77.03092965 550.08064976 -79.4264679 552.27415466 C-88.29271107 560.34207307 -97.42243817 567.97597141 -106.74482727 575.50852966 C-108.95987494 577.30119134 -111.17043371 579.0992427 -113.3795929 580.89915466 C-114.0995343 581.48551697 -114.81947571 582.07187927 -115.56123352 582.67601013 C-116.94049131 583.79960218 -118.31941382 584.92360596 -119.69795227 586.04808044 C-120.91988837 587.04239484 -122.14483414 588.03302808 -123.37348938 589.01902771 C-124.62355213 590.02933625 -125.85112448 591.06743927 -127.07099915 592.11399841 C-129.44383249 593.59764368 -131.07959455 593.70736441 -133.8639679 593.71165466 C-134.69799133 593.7309906 -135.53201477 593.75032654 -136.39131165 593.77024841 C-143.20568652 592.4367729 -146.61096257 585.81034442 -150.2389679 580.46165466 C-151.48244877 578.65696117 -152.72593872 576.85227391 -153.96943665 575.04759216 C-154.61574036 574.10367615 -155.26204407 573.15976013 -155.92793274 572.1872406 C-159.27835003 567.30363699 -162.6669481 562.44665475 -166.0514679 557.58665466 C-167.06285828 556.13174622 -167.06285828 556.13174622 -168.09468079 554.64744568 C-173.99648679 546.15970453 -179.95121911 537.71028415 -185.9264679 529.27415466 C-193.32984905 518.82172259 -200.67701388 508.33219734 -207.98384094 497.81199646 C-213.52192587 489.84314128 -219.10906735 481.91002359 -224.71455383 473.98851013 C-227.46731669 470.09449305 -230.20086387 466.18721145 -232.9264679 462.27415466 C-233.49373596 461.46107849 -233.49373596 461.46107849 -234.07246399 460.63157654 C-235.31698994 458.84682542 -236.55947377 457.06066838 -237.8014679 455.27415466 C-238.39254333 454.4267572 -238.39254333 454.4267572 -238.99555969 453.5622406 C-242.33482323 448.7497078 -243.82799238 445.23065569 -242.9264679 439.27415466 C-240.85798547 434.8286704 -238.03590817 432.56969005 -234.1139679 429.71165466 C-227.27856213 424.63100978 -220.83356255 419.17005113 -214.41719055 413.57395935 C-213.17780412 412.49330207 -211.9335994 411.4181738 -210.68818665 410.34446716 C-205.71406874 406.03974401 -200.8826433 401.58149064 -196.0514679 397.11790466 C-193.8107279 395.05758318 -191.52164826 393.06489814 -189.21162415 391.08274841 C-184.03313083 386.56649171 -179.21027817 381.70372001 -174.3639679 376.83665466 C-173.45711243 375.93366638 -172.55025696 375.0306781 -171.61592102 374.10032654 C-167.06513987 369.54294527 -162.64684374 364.93418008 -158.45307922 360.04588318 C-156.21934296 357.45349167 -153.88386913 354.96565899 -151.5514679 352.46165466 C-146.43646584 346.91755639 -141.63922068 341.16509564 -136.9264679 335.27415466 C-136.0157077 334.15509653 -135.10421313 333.03663579 -134.1920929 331.91868591 C-122.29841515 317.28046674 -111.18101557 302.10344734 -100.9264679 286.27415466 C-100.07955383 284.98831482 -100.07955383 284.98831482 -99.2155304 283.67649841 C-92.77218135 273.76002707 -86.88889837 263.48358885 -80.9264679 253.27415466 C-80.50043274 252.55034607 -80.07439758 251.82653748 -79.63545227 251.08079529 C-72.64499537 239.17939556 -66.72961318 226.79037309 -60.9264679 214.27415466 C-60.51235657 213.38172058 -60.09824524 212.4892865 -59.67158508 211.56980896 C-40.90329857 170.72486543 -27.40617734 127.60639256 -19.9264679 83.27415466 C-19.75760071 82.28173767 -19.58873352 81.28932068 -19.41474915 80.26683044 C-17.3331761 67.66587935 -15.90754198 55.1423793 -15.14912415 42.39915466 C-15.08708298 41.36560349 -15.02504181 40.33205231 -14.96112061 39.2671814 C-14.65607227 34.07471018 -14.38024106 28.88242468 -14.1410675 23.68650818 C-14.03853972 21.75867882 -13.93576739 19.83086245 -13.8327179 17.90306091 C-13.80045609 17.01985168 -13.76819427 16.13664246 -13.73495483 15.22666931 C-13.20245962 5.84946108 -9.75831375 0.03499141 0 0 Z " fill="#FF865A" transform="translate(242.9264678955078,-0.2741546630859375)"/>
<path d="M0 0 C0.96679688 0.26683594 1.93359375 0.53367188 2.9296875 0.80859375 C11.04711272 3.39559187 18.95354779 7.95354779 25 14 C25.09796875 13.39671875 25.1959375 12.7934375 25.296875 12.171875 C26.8373415 3.93834718 26.8373415 3.93834718 31 1 C33.8101735 0.11989097 36.37049264 -0.13393183 39.30615234 -0.16113281 C40.1473764 -0.17074036 40.98860046 -0.1803479 41.85531616 -0.19024658 C42.7564212 -0.19449646 43.65752625 -0.19874634 44.5859375 -0.203125 C45.5204776 -0.20882507 46.4550177 -0.21452515 47.4178772 -0.22039795 C49.39315666 -0.22983396 51.36845177 -0.23637637 53.34375 -0.24023438 C56.35705136 -0.24994218 59.36967105 -0.28097972 62.3828125 -0.3125 C64.30468346 -0.31903037 66.22655929 -0.32428071 68.1484375 -0.328125 C69.04549408 -0.3404718 69.94255066 -0.3528186 70.86679077 -0.36553955 C76.77345535 -0.34462405 81.12998195 0.33001049 85.63692665 4.52283955 C87.74833231 8.35997026 87.41304665 12.05288678 87.38095093 16.36405945 C87.3856309 17.32328444 87.39031087 18.28250943 87.39513266 19.27080184 C87.4071248 22.49406925 87.3976084 25.71691477 87.38818359 28.94018555 C87.39224776 31.24814096 87.39758877 33.55609442 87.40411377 35.86404419 C87.41782144 42.1437224 87.41247181 48.42325315 87.40297651 54.70293403 C87.39538598 61.28135564 87.40242494 67.85976454 87.40713501 74.43818665 C87.41355037 86.20970924 87.40360803 97.98116991 87.388357 109.75268177 C87.3749941 120.39513179 87.37724721 131.03748346 87.39111328 141.67993164 C87.40722822 154.05409306 87.4134516 166.42819609 87.40427649 178.80236655 C87.39961708 185.3460738 87.39892618 191.88971355 87.40888596 198.43341637 C87.4176148 204.60007892 87.41142643 210.76655791 87.39420319 216.93320084 C87.39026749 219.18525324 87.39132172 221.43732133 87.39799118 223.68936729 C87.4885234 257.3930104 80.04483733 287.22159136 56 312 C35.30760013 332.76875559 2.06367268 342.88487277 -26.93487549 343.16459656 C-27.9648465 343.16626579 -27.9648465 343.16626579 -29.015625 343.16796875 C-29.75270691 343.17129715 -30.48978882 343.17462555 -31.24920654 343.17805481 C-32.79878116 343.18308191 -34.34836645 343.18546445 -35.89794922 343.18530273 C-38.23033111 343.18748163 -40.56223315 343.20566161 -42.89453125 343.22460938 C-65.32096857 343.3156306 -65.32096857 343.3156306 -70.25878906 339.04760742 C-73.7451078 334.94781 -73.15235641 330.96106831 -73.125 325.8125 C-73.12089111 324.89082031 -73.11678223 323.96914063 -73.11254883 323.01953125 C-73.05649193 315.84424776 -72.92090317 308.6716862 -72.6875 301.5 C-72.66510254 300.52780518 -72.64270508 299.55561035 -72.61962891 298.55395508 C-72.28405408 289.93150417 -72.28405408 289.93150417 -69 286 C-65.32330948 283.54887298 -62.66582766 283.79383292 -58.4296875 283.91015625 C-56.87630591 283.93063122 -55.3229203 283.95080273 -53.76953125 283.97070312 C-51.34569577 284.01357929 -48.92212562 284.06143006 -46.49853516 284.11645508 C-25.55907221 284.55730874 -3.72320322 282.35834846 12.4765625 267.6796875 C15.37445316 264.48457729 17.21617462 260.90211802 19 257 C19.37125 256.18789063 19.7425 255.37578125 20.125 254.5390625 C23.37338826 246.58528829 24.19151314 238.47847404 25 230 C24.34257813 230.54527344 24.34257813 230.54527344 23.671875 231.1015625 C13.69229931 239.01220176 3.49839569 242.89675908 -9 245 C-9.99128906 245.18433594 -10.98257812 245.36867188 -12.00390625 245.55859375 C-35.78992162 249.06292196 -61.81975971 242.39556401 -81.703125 229.20703125 C-83.87896173 227.54472242 -85.94172645 225.80500942 -88 224 C-89.0828125 223.14728516 -89.0828125 223.14728516 -90.1875 222.27734375 C-110.69911297 205.5048269 -118.75825133 178.88143743 -121.52783203 153.47412109 C-122.09063543 147.70415586 -122.16176186 141.96961645 -122.16796875 136.17578125 C-122.17129715 135.07131149 -122.17462555 133.96684174 -122.17805481 132.8289032 C-122.18309036 130.50353406 -122.18546419 128.17815778 -122.18530273 125.8527832 C-122.18748301 122.33988207 -122.20565827 118.82729863 -122.22460938 115.31445312 C-122.25416122 103.70814515 -122.12490211 92.44521479 -120 81 C-119.85393311 80.1845874 -119.70786621 79.3691748 -119.55737305 78.52905273 C-115.21355411 56.11779709 -106.26027241 37.12069925 -90 21 C-89.23300781 20.19949219 -88.46601562 19.39898437 -87.67578125 18.57421875 C-77.84958577 8.91485171 -64.27757964 2.38008708 -51 -1 C-50.15566406 -1.22300781 -49.31132813 -1.44601563 -48.44140625 -1.67578125 C-32.993465 -4.97164099 -15.15721012 -4.30137044 0 0 Z M-46.75 65.75 C-50.33409837 70.09737858 -52.80581296 74.83013464 -55 80 C-55.24661377 80.57637207 -55.49322754 81.15274414 -55.74731445 81.74658203 C-57.8869346 87.03894273 -58.93454774 92.22914824 -59.6875 97.875 C-59.81342529 98.81827148 -59.93935059 99.76154297 -60.0690918 100.73339844 C-63.10423857 125.92696612 -63.67887951 156.27884878 -48.62890625 177.9296875 C-44.1562478 183.6143613 -38.65037943 187.26526453 -32 190 C-31.14148437 190.35835937 -30.28296875 190.71671875 -29.3984375 191.0859375 C-24.79076009 192.32524384 -20.43881488 192.36827486 -15.6875 192.375 C-14.78837891 192.39949219 -13.88925781 192.42398438 -12.96289062 192.44921875 C-2.03239359 192.49663956 5.7124492 187.63506912 13.65625 180.515625 C24.54036124 169.29832668 25.31364258 151.40369398 25.30078125 136.69921875 C25.30720894 135.01914482 25.30720894 135.01914482 25.31376648 133.30513 C25.31946357 130.95481029 25.32004456 128.60447295 25.31567383 126.25415039 C25.31251667 122.70622937 25.33602342 119.15914641 25.36132812 115.61132812 C25.41528654 96.69181577 25.24776024 77.10669408 11.49609375 62.390625 C2.3597292 53.89833837 -8.11512235 52.5919392 -19.984375 52.7890625 C-30.76033347 53.19655673 -39.43787981 57.93250649 -46.75 65.75 Z " fill="#323231" transform="translate(1271,157)"/>
<path d="M0 0 C0.98871094 0.78117187 1.97742188 1.56234375 2.99609375 2.3671875 C16.15369865 13.89934056 26.17183387 32.54538277 27.37425232 50.09218216 C27.56435841 54.6523211 27.54180067 59.21082631 27.51757812 63.77392578 C27.52301142 65.51332685 27.53014079 67.2527233 27.53881836 68.99211121 C27.55689771 73.67127062 27.55005217 78.35007338 27.53730202 83.02923822 C27.5271101 87.94006401 27.53658327 92.85086113 27.54284668 97.76168823 C27.5500983 105.99417565 27.54059375 114.2265189 27.52148438 122.45898438 C27.49964797 131.97620934 27.50682589 141.49309242 27.52879 151.01030934 C27.54692882 159.1983019 27.54951194 167.3861915 27.53903532 175.57419765 C27.53280132 180.45796058 27.53196369 185.34156252 27.54518127 190.22531509 C27.55671958 194.80724746 27.54875134 199.38873671 27.52560425 203.97062111 C27.52030943 205.65245515 27.52184414 207.33432641 27.53065491 209.01614571 C27.54156221 211.30913153 27.52790805 213.60069069 27.50793457 215.89358521 C27.50642647 217.17697344 27.50491837 218.46036167 27.50336456 219.78264046 C26.91302815 223.55589873 25.97805742 224.6975865 23 227 C20.60470433 228.19764783 19.10429551 228.13307389 16.43017578 228.14526367 C15.48224152 228.15164352 14.53430725 228.15802338 13.55764771 228.16459656 C12.53057709 228.16570938 11.50350647 228.1668222 10.4453125 228.16796875 C8.86567215 228.17296135 8.86567215 228.17296135 7.25411987 228.17805481 C5.02309609 228.18312443 2.7920647 228.18546312 0.56103516 228.18530273 C-2.85396836 228.18748655 -6.26864755 228.20563471 -9.68359375 228.22460938 C-11.84895723 228.2275438 -14.01432224 228.22952827 -16.1796875 228.23046875 C-17.20270966 228.23765427 -18.22573181 228.24483978 -19.27975464 228.25224304 C-20.71111252 228.2476281 -20.71111252 228.2476281 -22.17138672 228.24291992 C-23.00918671 228.24434494 -23.84698669 228.24576996 -24.71017456 228.24723816 C-27.26343746 227.971556 -28.83635434 227.37051105 -31 226 C-34.36694489 221.06983069 -34.34422689 216.73711481 -34 211 C-34.67804688 211.51949219 -35.35609375 212.03898438 -36.0546875 212.57421875 C-42.12465971 217.12249433 -48.06997284 220.922448 -55 224 C-55.76570312 224.35835937 -56.53140625 224.71671875 -57.3203125 225.0859375 C-81.05358937 235.50351448 -110.61530721 233.77625192 -134.578125 225.0625 C-136.78512154 224.13648747 -138.88532674 223.12022654 -141 222 C-141.79664063 221.58105469 -142.59328125 221.16210938 -143.4140625 220.73046875 C-160.30843051 211.23719385 -170.8408265 196.64755559 -176.42163086 178.2409668 C-181.92947785 156.90009407 -178.26496535 132.30115066 -167.4375 113.4375 C-160.42369238 102.53445696 -151.34618265 94.2544951 -140 88 C-139.31421875 87.61457031 -138.6284375 87.22914063 -137.921875 86.83203125 C-129.80255537 82.5248312 -121.16629638 79.88986199 -112.25 77.8125 C-111.5605127 77.64556641 -110.87102539 77.47863281 -110.16064453 77.30664062 C-93.72859268 73.6708668 -76.27252269 74.88071057 -59.5625 74.9375 C-56.98112066 74.94252498 -54.39974037 74.94708612 -51.81835938 74.95117188 C-45.54555198 74.96209854 -39.2727805 74.97875756 -33 75 C-33.28864945 72.13066229 -33.58537251 69.2625402 -33.88671875 66.39453125 C-34.00702454 65.18609558 -34.00702454 65.18609558 -34.12976074 63.95324707 C-34.94921718 56.26522019 -36.39989123 49.3223612 -41.25 43.125 C-50.64962294 35.861655 -58.61614081 33.64772436 -70.4375 33.75 C-71.32759766 33.74226563 -72.21769531 33.73453125 -73.13476562 33.7265625 C-83.11249027 33.75571582 -93.00158643 35.33737549 -100.53515625 42.44921875 C-102.63519932 44.89605792 -104.36229107 47.55409222 -106.125 50.25 C-108 53 -108 53 -111 55 C-117.10621764 55.81452624 -123.06322811 54.59581886 -128.98046875 53.171875 C-130.20519646 52.88645844 -130.20519646 52.88645844 -131.45466614 52.59527588 C-133.16587029 52.19337651 -134.87588729 51.78639091 -136.5847168 51.37451172 C-139.18763417 50.74996781 -141.79533597 50.14951093 -144.40429688 49.55078125 C-146.07586186 49.15508368 -147.7470984 48.75799555 -149.41796875 48.359375 C-150.18997116 48.18315613 -150.96197357 48.00693726 -151.75737 47.82537842 C-157.64654353 46.37673637 -162.27070761 44.32373665 -166 39.3125 C-167.98766007 32.72837602 -165.3772107 27.39050577 -162.3125 21.5 C-159.30550007 16.27961513 -155.93454868 11.55801035 -152 7 C-151.42894531 6.33355469 -150.85789062 5.66710937 -150.26953125 4.98046875 C-114.08842721 -34.13215332 -39.32778828 -31.67720567 0 0 Z M-109.125 133.25 C-114.92757323 139.96335688 -116.66286937 147.44714594 -116.31640625 156.17578125 C-115.51026386 163.37134851 -112.64626737 169.34012874 -107 174 C-94.20599653 181.17576716 -79.72288078 182.13976715 -65.5625 178.4375 C-52.75944523 174.18975753 -42.70383913 167.37743574 -36.04296875 155.6015625 C-32.99948749 148.00995756 -32.73575355 140.52986123 -32.875 132.4375 C-32.88402344 131.42880859 -32.89304687 130.42011719 -32.90234375 129.38085938 C-32.92566644 126.92031543 -32.95839237 124.46029104 -33 122 C-39.0099165 121.95002628 -45.01970821 121.91401276 -51.02978516 121.89013672 C-53.06821809 121.88016805 -55.10663706 121.86658824 -57.14501953 121.84912109 C-84.9131549 121.14934942 -84.9131549 121.14934942 -109.125 133.25 Z " fill="#323231" transform="translate(928,177)"/>
<path d="M0 0 C18.18175104 16.57639823 27.75487601 39.51982056 32.50024414 63.26782227 C32.65122559 64.0104834 32.80220703 64.75314453 32.95776367 65.51831055 C35.47140876 78.5529297 35.83477089 91.5981001 35.93774414 104.83032227 C35.94986938 105.65639984 35.96199463 106.48247742 35.9744873 107.33358765 C36.00414412 109.70935231 36.00491075 112.08332748 35.99633789 114.45922852 C36.00743088 115.17295624 36.01852386 115.88668396 36.029953 116.62203979 C35.96355168 121.43803554 34.91318112 123.88671867 31.50024414 127.26782227 C28.8341941 128.60084729 26.81746041 128.39069198 23.8309021 128.38807678 C22.62492874 128.38945145 21.41895538 128.39082611 20.17643738 128.39224243 C18.83303808 128.38870307 17.48963904 128.38506826 16.14624023 128.38134766 C14.73709617 128.3810657 13.32795196 128.38122368 11.91880798 128.38179016 C8.08639122 128.38207781 4.25400557 128.37618625 0.42159605 128.3692162 C-3.58094406 128.36297735 -7.58348483 128.36237844 -11.58602905 128.3611908 C-19.16852795 128.35807906 -26.75101247 128.34986777 -34.33350503 128.33984131 C-42.96458232 128.3286753 -51.59566028 128.32316849 -60.22674298 128.31814587 C-77.9844221 128.30768504 -95.74208782 128.29008862 -113.49975586 128.26782227 C-113.16975586 128.92782227 -112.83975586 129.58782227 -112.49975586 130.26782227 C-112.23118817 132.22369569 -111.98479013 134.18263647 -111.74975586 136.14282227 C-109.97479341 147.88089508 -105.4611003 158.64519791 -96.06225586 166.23657227 C-82.87756403 175.28188411 -66.86277571 177.77666266 -51.18725586 175.64282227 C-35.42768838 172.36586706 -25.25808702 164.00659852 -15.53100586 151.70922852 C-13.08193974 148.76563943 -12.23719077 148.40609131 -8.49975586 147.70532227 C-2.59105115 147.85061828 1.32379529 152.55665419 5.50024414 156.26782227 C6.73028125 157.32972964 7.96216238 158.38950354 9.19555664 159.44750977 C12.41606488 162.21507118 15.61841015 165.00262367 18.81469727 167.7980957 C20.27154481 169.06840599 21.73670193 170.32917476 23.20336914 171.58813477 C23.92008789 172.20430664 24.63680664 172.82047852 25.37524414 173.45532227 C25.97079102 173.96450195 26.56633789 174.47368164 27.17993164 174.99829102 C29.45848788 177.18921048 29.54976959 178.62069111 30.00024414 181.83032227 C29.91563373 187.68959338 26.23703774 191.09684884 22.50024414 195.26782227 C21.87504883 196.02321289 21.24985352 196.77860352 20.60571289 197.55688477 C3.66848175 217.63319541 -21.87264537 228.62835339 -47.49975586 232.26782227 C-65.252386 233.16542021 -83.38609457 233.56874509 -100.49975586 228.26782227 C-101.73854492 227.9055957 -102.97733398 227.54336914 -104.25366211 227.17016602 C-129.41434562 219.02263403 -148.80516962 200.54586889 -161.00366211 177.41625977 C-162.26771099 174.72966058 -163.4102213 172.02975428 -164.49975586 169.26782227 C-165.14557617 167.63393555 -165.14557617 167.63393555 -165.80444336 165.96704102 C-168.85437189 157.85495301 -170.93435993 149.78396994 -172.49975586 141.26782227 C-172.79172852 139.70354492 -172.79172852 139.70354492 -173.08959961 138.10766602 C-175.24870261 125.89376219 -175.73852046 113.76976907 -175.74975586 101.39282227 C-175.75076294 100.62014008 -175.75177002 99.84745789 -175.75280762 99.05136108 C-175.74184526 86.57958741 -175.07226066 74.50761518 -172.49975586 62.26782227 C-172.34990234 61.54127441 -172.20004883 60.81472656 -172.0456543 60.06616211 C-166.47568844 33.88968774 -153.16574108 8.88931418 -130.30444336 -6.08374023 C-91.36019586 -28.97297762 -35.57971987 -31.08881609 0 0 Z M-103.93334961 47.92797852 C-106.90931715 52.37337642 -108.71569081 57.25013931 -110.49975586 62.26782227 C-110.93288086 63.44344727 -111.36600586 64.61907227 -111.81225586 65.83032227 C-112.85930211 70.48129085 -112.85930211 70.48129085 -112.49975586 80.26782227 C-84.11975586 80.26782227 -55.73975586 80.26782227 -26.49975586 80.26782227 C-27.78090007 66.17523599 -30.38423537 53.72740808 -40.49975586 43.26782227 C-49.9720009 35.55389816 -59.09740453 33.04885539 -71.06225586 32.89282227 C-71.85374023 32.87872314 -72.64522461 32.86462402 -73.46069336 32.85009766 C-85.74699532 32.95070067 -96.13173418 38.49725545 -103.93334961 47.92797852 Z " fill="#323231" transform="translate(1566.499755859375,176.732177734375)"/>
<path d="M0 0 C18.37200962 17.10832642 25.88664729 40.94985039 27.4375 65.375 C27.58306463 70.59434276 27.59495111 75.81161554 27.59863281 81.0324707 C27.60327151 82.58098974 27.60829755 84.12950766 27.61367798 85.67802429 C27.6266902 89.85119601 27.63322314 94.02435173 27.63768864 98.19754052 C27.64063347 100.80828769 27.64474051 103.41903061 27.64919281 106.02977562 C27.66282919 114.20964927 27.67251847 122.38951305 27.6763947 130.56939727 C27.68088651 139.99352429 27.69850239 149.41750707 27.7273953 158.84159023 C27.7490057 166.14460842 27.7590984 173.44758597 27.76043582 180.7506358 C27.76148295 185.10577448 27.76737313 189.46077685 27.78525543 193.81588173 C27.80172829 197.90604473 27.80389555 201.99596868 27.79511642 206.08615303 C27.79434602 207.58493948 27.79868924 209.08373878 27.80857468 210.58249283 C27.82129706 212.63168007 27.8154172 214.68002046 27.80499268 216.72920227 C27.80645924 217.87453084 27.8079258 219.01985941 27.8094368 220.19989491 C27.38056173 223.86106376 26.36117029 226.243519 24.4375 229.375 C21.20053721 231.53297519 20.24068342 231.63941414 16.49462891 231.69726562 C15.48993561 231.71648071 14.48524231 231.7356958 13.45010376 231.75549316 C12.36571014 231.76399292 11.28131653 231.77249268 10.1640625 231.78125 C9.04816742 231.79265015 7.93227234 231.80405029 6.78256226 231.8157959 C4.42050979 231.83469644 2.05840458 231.84776411 -0.30371094 231.85546875 C-3.91695081 231.87488955 -7.52791905 231.93693039 -11.140625 232 C-13.43488231 232.01305957 -15.7291559 232.02356071 -18.0234375 232.03125 C-19.10378265 232.0559436 -20.18412781 232.08063721 -21.29721069 232.1060791 C-22.30820831 232.1000769 -23.31920593 232.09407471 -24.36083984 232.08789062 C-25.68962662 232.09882751 -25.68962662 232.09882751 -27.04525757 232.10998535 C-29.99987578 231.24729486 -31.74042874 230.04098739 -33.59044266 227.56533432 C-35.86978669 222.42929425 -35.23924505 216.54096088 -35.19018555 211.02294922 C-35.19536765 209.55385939 -35.20277021 208.08477598 -35.21221924 206.6157074 C-35.22776278 203.45790504 -35.22762551 200.30063363 -35.21521568 197.14281845 C-35.1956282 192.14014309 -35.21090209 187.13793681 -35.23066711 182.13528442 C-35.25780888 174.21301025 -35.26131115 166.29092771 -35.25489408 158.36861622 C-35.24396674 144.20704343 -35.26872283 130.04553017 -35.30864173 115.88401616 C-35.32164344 110.92140992 -35.32301242 105.9589798 -35.3145088 100.99636531 C-35.31085658 97.89394365 -35.31521572 94.79156602 -35.3213501 91.68914986 C-35.32242593 90.26223267 -35.32013009 88.83530784 -35.3140049 87.4084034 C-35.25306228 72.48083829 -36.24169791 57.98291505 -46.8125 46.4375 C-55.28563542 38.7704372 -64.70894588 37.07508806 -75.796875 37.2265625 C-86.29868925 37.7902192 -94.88803054 41.84485504 -102.06640625 49.5703125 C-110.49891055 59.74215842 -111.00609085 71.85607324 -110.94726562 84.55761719 C-110.9513795 86.05525626 -110.95684516 87.55289212 -110.96354675 89.05052185 C-110.97519743 92.25341607 -110.97778309 95.45613832 -110.97319031 98.65904999 C-110.966338 103.72788671 -110.98231923 108.79649997 -111.00158691 113.86529541 C-111.04251484 125.53288807 -111.0539862 137.20047361 -111.06511688 148.86812592 C-111.07563584 159.57937979 -111.09243653 170.29052511 -111.13321257 181.00171208 C-111.15152867 186.03681816 -111.15547621 191.07166535 -111.14827728 196.10679674 C-111.14675271 199.2396034 -111.15755541 202.372281 -111.17165565 205.50505257 C-111.17564866 206.95341822 -111.17454977 208.4018086 -111.16788292 209.85016441 C-111.10882238 223.75171738 -111.10882238 223.75171738 -114.5625 229.375 C-117.78310491 231.52206994 -118.69628921 231.63575183 -122.41357422 231.68139648 C-123.39824677 231.69738388 -124.38291931 231.71337128 -125.39743042 231.72984314 C-126.45995026 231.73520584 -127.52247009 231.74056854 -128.6171875 231.74609375 C-129.71088654 231.75512222 -130.80458557 231.7641507 -131.931427 231.77345276 C-134.24641171 231.78796797 -136.56143757 231.79684514 -138.87646484 231.80053711 C-142.41704502 231.81243128 -145.95588163 231.86160531 -149.49609375 231.91210938 C-151.74478315 231.92157364 -153.99348327 231.92880866 -156.2421875 231.93359375 C-157.30065887 231.95312607 -158.35913025 231.97265839 -159.44967651 231.99278259 C-166.75162708 231.94799924 -166.75162708 231.94799924 -170.70751953 229.15258789 C-174.20395325 223.91714088 -173.70712507 218.29059108 -173.69621277 212.20303345 C-173.69847833 211.2767339 -173.70074388 210.35043435 -173.70307809 209.39606512 C-173.70941034 206.29088622 -173.70858922 203.18575105 -173.70776367 200.08056641 C-173.71075563 197.85476118 -173.71415825 195.62895648 -173.71794128 193.40315247 C-173.72678139 187.35564797 -173.72911939 181.30815763 -173.72975707 175.2606473 C-173.73070632 170.21335302 -173.73438479 165.16606205 -173.73792917 160.11876905 C-173.7456084 148.89184848 -173.74859778 137.6649346 -173.74792381 126.4380122 C-173.74788386 125.76463028 -173.7478439 125.09124837 -173.74780273 124.39746094 C-173.74776185 123.72325506 -173.74772097 123.04904919 -173.74767885 122.35441284 C-173.74727239 111.42778189 -173.75684249 100.5011854 -173.7709411 89.57456441 C-173.78530971 78.34995741 -173.79202794 67.1253667 -173.79134732 55.90074861 C-173.79109223 49.60106958 -173.79394957 43.30142955 -173.80452538 37.00175858 C-173.81419969 31.077286 -173.81429007 25.15288978 -173.80700874 19.22841454 C-173.8059621 17.05439709 -173.8083305 14.8803749 -173.8143692 12.70636559 C-173.82208068 9.73779835 -173.81744979 6.76949534 -173.80973816 3.80093384 C-173.81488172 2.94148906 -173.82002529 2.08204429 -173.82532471 1.19655573 C-173.7967409 -3.78569283 -173.27739061 -7.92835677 -171.5625 -12.625 C-168.18457042 -15.89396411 -164.88613017 -16.7445633 -160.27807617 -16.78613281 C-159.41675583 -16.79574036 -158.55543549 -16.8053479 -157.66801453 -16.81524658 C-156.73987442 -16.81949646 -155.81173431 -16.82374634 -154.85546875 -16.828125 C-153.89731766 -16.83382507 -152.93916656 -16.83952515 -151.95198059 -16.84539795 C-149.92364607 -16.85484545 -147.89529622 -16.86138094 -145.86694336 -16.86523438 C-142.77234931 -16.87492998 -139.67842228 -16.90595177 -136.58398438 -16.9375 C-134.6119831 -16.9440313 -132.63997709 -16.94928127 -130.66796875 -16.953125 C-129.74590134 -16.9654718 -128.82383392 -16.9778186 -127.87382507 -16.99053955 C-122.70966828 -16.97274148 -118.97541823 -16.62396106 -114.5625 -13.625 C-112.24218529 -9.38442484 -111.14562425 -5.40661888 -110.5625 -0.625 C-110.05203125 -1.13289063 -109.5415625 -1.64078125 -109.015625 -2.1640625 C-103.08573127 -7.77853635 -97.04591437 -11.40339516 -89.5625 -14.625 C-88.45455078 -15.10259766 -88.45455078 -15.10259766 -87.32421875 -15.58984375 C-58.97725132 -26.32005176 -22.92942171 -19.10785143 0 0 Z " fill="#323231" transform="translate(1808.5625,173.625)"/>
<path d="M0 0 C3.66939638 2.6419654 5.21099519 4.62791357 6 9 C6.08544597 10.7714562 6.11774804 12.54582522 6.11352539 14.31933594 C6.11341209 15.91053253 6.11341209 15.91053253 6.11329651 17.53387451 C6.10813522 18.67253967 6.10297394 19.81120483 6.09765625 20.984375 C6.0962413 22.15510559 6.09482635 23.32583618 6.09336853 24.53204346 C6.0877709 28.27138829 6.0752188 32.01067326 6.0625 35.75 C6.0574847 38.28515539 6.05292184 40.82031171 6.04882812 43.35546875 C6.03780224 49.57033293 6.02106644 55.78516219 6 62 C7.30670654 61.98952637 8.61341309 61.97905273 9.9597168 61.96826172 C14.81450656 61.93202161 19.6692844 61.90908483 24.52416992 61.89013672 C26.62412528 61.88008831 28.72406669 61.86644734 30.82397461 61.84912109 C33.8449244 61.82482199 36.86568895 61.81350518 39.88671875 61.8046875 C41.29167854 61.78920364 41.29167854 61.78920364 42.72502136 61.77340698 C48.03255741 61.77249644 52.31350058 61.81539742 56.60321045 65.30369568 C58.36653713 67.445134 58.38458039 68.56656843 58.40405273 71.31616211 C58.42307899 72.6178257 58.42307899 72.6178257 58.44248962 73.94578552 C58.43955399 74.88019974 58.43661835 75.81461395 58.43359375 76.77734375 C58.4388356 77.74023819 58.44407745 78.70313263 58.44947815 79.69520569 C58.45590251 81.73193396 58.45455601 83.76869931 58.44604492 85.80541992 C58.43754124 88.92238471 58.46628065 92.03751352 58.49804688 95.15429688 C58.49965911 97.13281195 58.49908093 99.11133027 58.49609375 101.08984375 C58.50732773 102.02223373 58.51856171 102.95462372 58.53013611 103.91526794 C58.46070761 110.36101301 58.46070761 110.36101301 56.15649414 113.55688477 C52.91013969 115.72932914 50.33615467 116.12419091 46.52856445 116.11352539 C45.17750359 116.11341209 45.17750359 116.11341209 43.79914856 116.11329651 C42.83031235 116.10813522 41.86147614 116.10297394 40.86328125 116.09765625 C39.37141548 116.09553383 39.37141548 116.09553383 37.84941101 116.09336853 C34.67041018 116.08776761 31.49147957 116.07521496 28.3125 116.0625 C26.15820414 116.05748512 24.00390718 116.05292219 21.84960938 116.04882812 C16.56638226 116.03779788 11.28319615 116.02105886 6 116 C5.92966458 130.7695815 5.8768924 145.53914059 5.84456348 160.30885601 C5.82914816 167.16795668 5.80816188 174.0269528 5.77368164 180.88598633 C5.74038617 187.51254337 5.72311704 194.13902082 5.71536827 200.76566505 C5.7098502 203.2864534 5.69907511 205.80723622 5.68280983 208.32797813 C4.49862053 230.01935199 4.49862053 230.01935199 13 249 C19.3458129 253.36836187 26.22066332 253.58628665 33.6875 253.625 C47.7852078 253.80562406 47.7852078 253.80562406 53.12133789 257.44799805 C56.03300769 261.40325268 55.61077972 265.2650042 55.6015625 270.05859375 C55.61013275 271.03989761 55.618703 272.02120148 55.62753296 273.03224182 C55.63900959 275.10585445 55.64002728 277.1795476 55.63134766 279.25317383 C55.62502803 282.42343712 55.67193943 285.58996421 55.72265625 288.75976562 C55.72720261 290.77603696 55.72860905 292.79231833 55.7265625 294.80859375 C55.74498199 295.75455917 55.76340149 296.7005246 55.78237915 297.67515564 C55.69270274 304.06490823 55.69270274 304.06490823 53.72816467 306.71687317 C50.03048441 309.95094911 47.01009881 310.67142723 42.1875 310.8125 C41.51517334 310.83546143 40.84284668 310.85842285 40.15014648 310.88208008 C37.76655037 310.95043922 35.38444238 310.97565976 33 311 C32.03932617 311.01901367 31.07865234 311.03802734 30.08886719 311.05761719 C6.19817004 311.51719856 -19.77046622 311.77522137 -38.3125 294.3125 C-52.17285391 279.66012586 -54.33739935 261.04527181 -54.22705078 241.67260742 C-54.22648493 240.29139718 -54.22680661 238.91018634 -54.22793579 237.52897644 C-54.22850353 233.82319852 -54.21684442 230.11755328 -54.20278788 226.41180587 C-54.19018263 222.52277938 -54.18910237 218.63374897 -54.18673706 214.7447052 C-54.18055081 207.39983757 -54.16417913 200.05503034 -54.14403808 192.71018916 C-54.12158958 184.34004338 -54.11066327 175.96989453 -54.10064721 167.59972608 C-54.07980997 150.39978261 -54.04469026 133.19989771 -54 116 C-54.66531738 116.01571045 -55.33063477 116.0314209 -56.01611328 116.04760742 C-59.0523212 116.11025597 -62.08839272 116.14908509 -65.125 116.1875 C-66.69507813 116.22520508 -66.69507813 116.22520508 -68.296875 116.26367188 C-73.91167825 116.31697697 -78.23349467 116.35218162 -83 113 C-85.02773588 109.95839618 -85.25606623 109.30990236 -85.30639648 105.88330078 C-85.33037758 104.64654099 -85.33037758 104.64654099 -85.35484314 103.38479614 C-85.36020584 102.49726654 -85.36556854 101.60973694 -85.37109375 100.6953125 C-85.38012222 99.77918182 -85.3891507 98.86305115 -85.39845276 97.91915894 C-85.41296085 95.9808072 -85.42184338 94.04240642 -85.42553711 92.10400391 C-85.43742887 89.1427123 -85.48660392 86.18350769 -85.53710938 83.22265625 C-85.54657427 81.33855183 -85.55380899 79.45443462 -85.55859375 77.5703125 C-85.58789223 76.24509079 -85.58789223 76.24509079 -85.61778259 74.89309692 C-85.58494414 70.40415905 -85.4696495 68.59159375 -82.59008789 64.96435547 C-78.88875433 62.1572172 -77.14602039 61.87817884 -72.5546875 61.90234375 C-71.47832031 61.90556641 -70.40195313 61.90878906 -69.29296875 61.91210938 C-68.16503906 61.92048828 -67.03710938 61.92886719 -65.875 61.9375 C-64.73933594 61.94201172 -63.60367187 61.94652344 -62.43359375 61.95117188 C-59.62234362 61.96298385 -56.8111977 61.97945493 -54 62 C-54.00888245 61.43703217 -54.01776489 60.87406433 -54.0269165 60.29403687 C-54.1155807 54.42155129 -54.1758131 48.54925664 -54.21972656 42.67626953 C-54.23981107 40.48608676 -54.26708417 38.29595741 -54.30175781 36.10595703 C-54.35041409 32.95331624 -54.37300078 29.80138596 -54.390625 26.6484375 C-54.41127014 25.67321136 -54.43191528 24.69798523 -54.45318604 23.69320679 C-54.45505477 17.99960901 -54.05931003 14.36336847 -50 10 C-46.56834504 8.14820792 -42.89784888 7.41739298 -39.10546875 6.5625 C-37.98462891 6.30726562 -36.86378906 6.05203125 -35.70898438 5.7890625 C-34.54689453 5.52867188 -33.38480469 5.26828125 -32.1875 5 C-29.88917519 4.47981892 -27.59099455 3.95900041 -25.29296875 3.4375 C-24.20459717 3.19201416 -23.11622559 2.94652832 -21.99487305 2.69360352 C-19.49414306 2.11444203 -17.01324759 1.49318663 -14.53125 0.83984375 C-9.61243861 -0.3300063 -5.01499818 -0.77697155 0 0 Z " fill="#323231" transform="translate(1942,95)"/>
<path d="M0 0 C2.99390412 2.78742797 3.53173354 5.62050397 3.98022461 9.62524414 C4.01847182 14.21821504 2.63232512 18.4913032 1.375 22.875 C0.96048584 24.37824829 0.96048584 24.37824829 0.53759766 25.91186523 C-0.02779759 27.9579725 -0.59890129 30.00251117 -1.17578125 32.04541016 C-1.9407076 34.78745361 -2.66647343 37.53589903 -3.375 40.29296875 C-3.79139851 41.88288275 -4.20804974 43.4727306 -4.625 45.0625 C-4.80627441 45.78099121 -4.98754883 46.49948242 -5.17431641 47.23974609 C-6.58415861 52.46152238 -8.44269343 57.05774185 -12.8515625 60.40625 C-15.84441354 61.2333652 -18.29752433 60.86619848 -21.375 60.5 C-34.89030079 59.33512984 -48.99471645 61.61502205 -60 70 C-60.825 70.53625 -61.65 71.0725 -62.5 71.625 C-71.77013455 80.43162782 -74.6871407 92.65743085 -75.10038567 104.99770546 C-75.14821559 108.51018175 -75.16619492 112.02162785 -75.17358398 115.53442383 C-75.17990196 116.87899993 -75.18666911 118.22357397 -75.19384766 119.56814575 C-75.20842397 122.44580972 -75.22018545 125.32346612 -75.22979546 128.20115089 C-75.24534027 132.75227699 -75.26928445 137.30333556 -75.29469299 141.85441589 C-75.36566612 154.78953789 -75.4258064 167.72469632 -75.47680664 180.65991211 C-75.50510023 187.81737692 -75.54046356 194.97477225 -75.58346039 202.13216418 C-75.61021474 206.65622158 -75.62812952 211.18020059 -75.63949764 215.7043215 C-75.64861917 218.51466896 -75.66597688 221.3249206 -75.68567657 224.13521194 C-75.696717 226.05948004 -75.69790165 227.98379676 -75.69880676 229.90809631 C-75.70852509 231.05332764 -75.71824341 232.19855896 -75.72825623 233.37849426 C-75.73248816 234.37340283 -75.7367201 235.36831141 -75.74108028 236.39336872 C-76.01268244 239.12767836 -76.49271372 240.71604389 -78 243 C-81.22572184 245.15048122 -82.1285988 245.25777652 -85.85107422 245.29052734 C-86.83574677 245.30328705 -87.82041931 245.31604675 -88.83493042 245.32919312 C-89.89745026 245.33141876 -90.95997009 245.33364441 -92.0546875 245.3359375 C-93.14838654 245.3425943 -94.24208557 245.3492511 -95.368927 245.35610962 C-97.68392249 245.36624039 -99.99894721 245.37092651 -102.31396484 245.37060547 C-105.85433164 245.37497449 -109.39344794 245.41127982 -112.93359375 245.44921875 C-115.1822874 245.45508761 -117.43098698 245.45905654 -119.6796875 245.4609375 C-120.73815887 245.47530853 -121.79663025 245.48967957 -122.88717651 245.50448608 C-130.21604776 245.45897902 -130.21604776 245.45897902 -134.14501953 243.15869141 C-137.81021003 238.89340917 -137.14560251 234.15443748 -137.14044189 228.82730103 C-137.14489858 227.40154631 -137.14489858 227.40154631 -137.1494453 225.94698846 C-137.15814737 222.74801605 -137.15964181 219.54908099 -137.16113281 216.35009766 C-137.16575987 214.06222961 -137.17078438 211.77436234 -137.17617798 209.48649597 C-137.18931364 203.26133011 -137.19574906 197.03617504 -137.20018864 190.81099749 C-137.2031171 186.92454793 -137.20722144 183.03810135 -137.21169281 179.15165329 C-137.22380239 168.39256434 -137.23418454 157.63347927 -137.2375679 146.87438393 C-137.23778747 146.18579368 -137.23800703 145.49720343 -137.23823325 144.78774681 C-137.23845153 144.09750552 -137.23866981 143.40726424 -137.2388947 142.69610655 C-137.23933817 141.29740437 -137.23978473 139.89870218 -137.24023438 138.5 C-137.2404558 137.80619481 -137.24067723 137.11238963 -137.24090537 136.39756005 C-137.24485436 125.1525759 -137.26231177 113.90765651 -137.2855939 102.66269739 C-137.30930078 91.11949623 -137.32151137 79.5763368 -137.32293582 68.03311002 C-137.32398565 61.55123688 -137.32993132 55.0694551 -137.34775543 48.58760452 C-137.36419006 42.49241912 -137.36641404 36.3973942 -137.35761642 30.3021946 C-137.35684361 28.06283324 -137.36122073 25.82346342 -137.37107468 23.58412361 C-137.38372183 20.53144477 -137.37795667 17.47934055 -137.36749268 14.42666626 C-137.37554908 13.53668587 -137.38360548 12.64670549 -137.39190602 11.729756 C-137.35387482 6.9989071 -137.09751734 3.82694891 -134 0 C-128.87879853 -3.57561144 -123.97676222 -3.43830297 -117.96484375 -3.3984375 C-117.00856583 -3.40130768 -116.0522879 -3.40417786 -115.06703186 -3.40713501 C-113.05241298 -3.40917009 -111.03777408 -3.40367924 -109.02319336 -3.39111328 C-105.94404894 -3.3750342 -102.86621353 -3.39099017 -99.78710938 -3.41015625 C-97.82551795 -3.40817407 -95.86392733 -3.4043309 -93.90234375 -3.3984375 C-92.98452621 -3.40451019 -92.06670868 -3.41058289 -91.12107849 -3.4168396 C-86.22946529 -3.3631249 -83.00382065 -3.12089918 -79 0 C-78.41605469 0.40863281 -77.83210938 0.81726563 -77.23046875 1.23828125 C-75.26742393 4.04886288 -75.46713482 6.81646102 -75.3125 10.1875 C-75.21388672 12.09595703 -75.21388672 12.09595703 -75.11328125 14.04296875 C-75.05720703 15.50669922 -75.05720703 15.50669922 -75 17 C-74.53851562 16.50371094 -74.07703125 16.00742188 -73.6015625 15.49609375 C-56.57592544 -2.2361409 -23.0371697 -14.60893688 0 0 Z " fill="#323231" transform="translate(1133,160)"/>
</svg>
