<?xml version="1.0" encoding="UTF-8"?>
<svg version="1.1" xmlns="http://www.w3.org/2000/svg" width="400" height="400">
<path d="M0 0 C132 0 264 0 400 0 C400 132 400 264 400 400 C268 400 136 400 0 400 C0 268 0 136 0 0 Z " fill="#FE865A" transform="translate(0,0)"/>
<path d="M0 0 C1.2379834 -0.00315216 2.4759668 -0.00630432 3.75146484 -0.009552 C5.11295609 -0.00776222 6.47444701 -0.00571127 7.8359375 -0.00341797 C9.22216814 -0.00409106 10.60839867 -0.00506113 11.99462891 -0.00631714 C14.90333172 -0.00779387 17.81200387 -0.00564037 20.72070312 -0.00097656 C24.45690348 0.00472073 28.19303202 0.00144159 31.92922974 -0.00454903 C34.79273016 -0.00815532 37.65621343 -0.00701574 40.51971436 -0.00442123 C41.89768482 -0.00375215 43.27565682 -0.00457973 44.65362549 -0.00690079 C46.57637504 -0.00942839 48.49913002 -0.0048957 50.421875 0 C52.06615479 0.00119339 52.06615479 0.00119339 53.74365234 0.00241089 C56.2109375 0.12939453 56.2109375 0.12939453 57.2109375 1.12939453 C57.46285438 3.01036129 57.65577872 4.89927936 57.82421875 6.78955078 C59.64990141 26.21426567 59.64990141 26.21426567 64.2109375 45.12939453 C64.48566895 46.02577637 64.76040039 46.9221582 65.04345703 47.84570312 C77.88338 89.41384801 102.14893386 124.98439429 137.2109375 151.12939453 C136.71989617 156.01201307 134.30641251 159.31494922 131.5234375 163.19189453 C131.04084473 163.87799805 130.55825195 164.56410156 130.06103516 165.27099609 C129.00989106 166.76463955 127.9553839 168.25592056 126.89794922 169.74511719 C125.14565499 172.22165922 123.41261345 174.71077343 121.68359375 177.20361328 C118.21778635 182.19674958 114.72159049 187.16771434 111.2109375 192.12939453 C110.50130859 193.13848877 110.50130859 193.13848877 109.77734375 194.16796875 C108.55876041 195.89324049 107.3260979 197.607097 106.0859375 199.31689453 C105.42335938 200.23857422 104.76078125 201.16025391 104.078125 202.10986328 C102.2109375 204.12939453 102.2109375 204.12939453 100.3515625 205.23486328 C96.77167488 205.05848196 94.62127665 202.56100928 92.0859375 200.25439453 C91.50537598 199.74263672 90.92481445 199.23087891 90.32666016 198.70361328 C89.15042096 197.6638295 87.97896658 196.6186064 86.8125 195.56787109 C85.49152085 194.38140629 84.15064676 193.21713139 82.8046875 192.05908203 C70.00228257 180.92459606 57.37606734 168.74165896 47.2109375 155.12939453 C46.79473145 154.58428223 46.37852539 154.03916992 45.94970703 153.47753906 C40.47245095 146.30105525 35.33190627 138.95906427 30.5234375 131.31689453 C30.089104 130.62893799 29.65477051 129.94098145 29.20727539 129.23217773 C26.2109375 124.38309099 26.2109375 124.38309099 26.2109375 122.12939453 C25.5509375 122.12939453 24.8909375 122.12939453 24.2109375 122.12939453 C23.97246094 122.80099609 23.73398438 123.47259766 23.48828125 124.16455078 C18.54648903 135.63494923 10.45175435 145.91783188 2.55371094 155.49414062 C1.2997337 157.02125691 0.07072053 158.56877734 -1.15625 160.11767578 C-7.25802215 167.63279771 -13.96854734 174.51947265 -20.7890625 181.37939453 C-21.70276611 182.30236328 -22.61646973 183.22533203 -23.55786133 184.17626953 C-29.66019703 190.25078553 -36.0352449 195.79314223 -42.7890625 201.12939453 C-44.06136719 202.27649902 -44.06136719 202.27649902 -45.359375 203.44677734 C-47.7890625 205.12939453 -47.7890625 205.12939453 -49.8972168 205.12158203 C-52.31713996 203.85244179 -53.43694813 202.45476233 -55.05859375 200.25439453 C-55.96665771 199.03042969 -55.96665771 199.03042969 -56.89306641 197.78173828 C-60.12722533 193.25741397 -63.32402645 188.71103384 -66.4765625 184.12939453 C-72.40856984 175.51096546 -72.40856984 175.51096546 -78.53125 167.02783203 C-79.09497314 166.25826172 -79.65869629 165.48869141 -80.23950195 164.69580078 C-81.28831555 163.27006235 -82.34881751 161.85282433 -83.42260742 160.44580078 C-85.3660069 157.78644765 -86.74377424 155.8251869 -86.9609375 152.48876953 C-85.31382143 149.17257584 -82.83822806 147.23389809 -79.9765625 145.00439453 C-78.78610994 144.03636863 -77.59734649 143.06626234 -76.41015625 142.09423828 C-75.8054248 141.60294434 -75.20069336 141.11165039 -74.57763672 140.60546875 C-47.56902808 118.31580893 -27.90984522 88.22269151 -16.7890625 55.12939453 C-16.40621094 54.03208008 -16.40621094 54.03208008 -16.015625 52.91259766 C-11.39592461 39.45371806 -9.49172908 25.96877246 -7.99365234 11.88549805 C-7.91837814 11.18117142 -7.84310394 10.47684479 -7.76554871 9.75117493 C-7.56201826 7.81444712 -7.36801022 5.87672552 -7.17456055 3.93896484 C-6.50119249 -0.96864732 -4.53840926 0.0032939 0 0 Z " fill="#000000" transform="translate(174.7890625,89.87060546875)"/>
</svg>
