<svg width="17" height="16" viewBox="0 0 17 16" fill="none" xmlns="http://www.w3.org/2000/svg">
<path d="M11 6V9C11 9.13261 10.9473 9.25979 10.8536 9.35355C10.7598 9.44732 10.6326 9.5 10.5 9.5C10.3674 9.5 10.2402 9.44732 10.1464 9.35355C10.0527 9.25979 10 9.13261 10 9V7.20687L6.85375 10.3538C6.8073 10.4002 6.75215 10.4371 6.69145 10.4622C6.63075 10.4873 6.5657 10.5003 6.5 10.5003C6.43431 10.5003 6.36925 10.4873 6.30855 10.4622C6.24786 10.4371 6.19271 10.4002 6.14625 10.3538C6.0998 10.3073 6.06295 10.2521 6.03781 10.1914C6.01266 10.1308 5.99972 10.0657 5.99972 10C5.99972 9.9343 6.01266 9.86925 6.03781 9.80855C6.06295 9.74786 6.0998 9.69271 6.14625 9.64625L9.29313 6.5H7.5C7.36739 6.5 7.24022 6.44732 7.14645 6.35355C7.05268 6.25979 7 6.13261 7 6C7 5.86739 7.05268 5.74021 7.14645 5.64645C7.24022 5.55268 7.36739 5.5 7.5 5.5H10.5C10.6326 5.5 10.7598 5.55268 10.8536 5.64645C10.9473 5.74021 11 5.86739 11 6ZM15 8C15 9.28558 14.6188 10.5423 13.9046 11.6112C13.1903 12.6801 12.1752 13.5132 10.9874 14.0052C9.79973 14.4972 8.49279 14.6259 7.23192 14.3751C5.97104 14.1243 4.81285 13.5052 3.90381 12.5962C2.99477 11.6872 2.3757 10.529 2.1249 9.26809C1.87409 8.00721 2.00282 6.70028 2.49479 5.51256C2.98676 4.32484 3.81988 3.30968 4.8888 2.59545C5.95772 1.88122 7.21442 1.5 8.5 1.5C10.2234 1.50182 11.8756 2.18722 13.0942 3.40582C14.3128 4.62441 14.9982 6.27665 15 8ZM14 8C14 6.9122 13.6774 5.84883 13.0731 4.94436C12.4687 4.03989 11.6098 3.33494 10.6048 2.91866C9.59977 2.50238 8.4939 2.39346 7.42701 2.60568C6.36011 2.8179 5.3801 3.34172 4.61092 4.11091C3.84173 4.8801 3.3179 5.86011 3.10568 6.927C2.89347 7.9939 3.00238 9.09977 3.41867 10.1048C3.83495 11.1098 4.5399 11.9687 5.44437 12.5731C6.34884 13.1774 7.41221 13.5 8.5 13.5C9.95819 13.4983 11.3562 12.9184 12.3873 11.8873C13.4184 10.8562 13.9983 9.45818 14 8Z" fill="#050512"/>
</svg>
