<svg width="32" height="32" viewBox="0 0 32 32" fill="none" xmlns="http://www.w3.org/2000/svg">
<path d="M28.0008 15.9999C28.0008 16.2652 27.8954 16.5195 27.7079 16.7071C27.5204 16.8946 27.266 16.9999 27.0008 16.9999H7.41454L14.7083 24.2924C14.8012 24.3854 14.8749 24.4957 14.9252 24.6171C14.9755 24.7384 15.0013 24.8686 15.0013 24.9999C15.0013 25.1313 14.9755 25.2614 14.9252 25.3828C14.8749 25.5042 14.8012 25.6145 14.7083 25.7074C14.6154 25.8004 14.5051 25.8741 14.3837 25.9243C14.2623 25.9746 14.1322 26.0005 14.0008 26.0005C13.8694 26.0005 13.7393 25.9746 13.6179 25.9243C13.4965 25.8741 13.3862 25.8004 13.2933 25.7074L4.29329 16.7074C4.20031 16.6146 4.12655 16.5043 4.07623 16.3829C4.0259 16.2615 4 16.1314 4 15.9999C4 15.8685 4.0259 15.7384 4.07623 15.617C4.12655 15.4956 4.20031 15.3853 4.29329 15.2924L13.2933 6.29245C13.4809 6.1048 13.7354 5.99939 14.0008 5.99939C14.2662 5.99939 14.5206 6.1048 14.7083 6.29245C14.8959 6.48009 15.0013 6.73458 15.0013 6.99995C15.0013 7.26531 14.8959 7.5198 14.7083 7.70745L7.41454 14.9999H27.0008C27.266 14.9999 27.5204 15.1053 27.7079 15.2928C27.8954 15.4804 28.0008 15.7347 28.0008 15.9999Z" fill="#EBEBEB"/>
</svg>
