<?xml version="1.0" encoding="UTF-8"?>
<svg version="1.1" xmlns="http://www.w3.org/2000/svg" width="2000" height="2000">
<path d="M0 0 C4.61145483 0.00569667 9.22285194 0.00230544 13.83430481 -0.00343704 C30.5115389 -0.02109037 47.1806804 -0.00125614 63.84960938 0.57568359 C64.98188965 0.61442596 66.11416992 0.65316833 67.28076172 0.69308472 C71.82956407 0.87575057 76.07742083 1.19188579 80.53710938 2.13037109 C82.88341461 2.37363235 85.23295387 2.58650714 87.58398438 2.77880859 C88.98756402 2.89638458 90.39112784 3.01414952 91.79467773 3.13208008 C92.52717743 3.19273651 93.25967712 3.25339294 94.01437378 3.31588745 C134.56164601 6.6964148 174.72268273 12.75111821 214.53710938 21.13037109 C215.68050781 21.37094238 216.82390625 21.61151367 218.00195312 21.859375 C234.38963792 25.34826463 250.60320377 29.36368004 266.78710938 33.69287109 C268.05735962 34.03115936 268.05735962 34.03115936 269.35327148 34.37628174 C281.52671689 37.62863182 293.5549972 41.23371151 305.53710938 45.13037109 C306.26677917 45.36690399 306.99644897 45.60343689 307.74822998 45.84713745 C354.86557398 61.14341966 401.4235223 78.43496215 445.53710938 101.13037109 C447.37232137 102.04648181 449.21100808 102.95536692 451.04980469 103.86425781 C486.73979411 121.54628454 521.3391607 141.10760909 554.53710938 163.13037109 C555.94333216 164.05879773 557.34958114 164.9871847 558.75585938 165.91552734 C565.75693142 170.54910786 572.70433942 175.25116934 579.53710938 180.13037109 C580.16423828 180.57719238 580.79136719 181.02401367 581.4375 181.484375 C591.9762155 189.00403558 602.34653179 196.71492276 612.59130859 204.62988281 C614.42434902 206.04341687 616.26260512 207.44976531 618.10351562 208.85302734 C625.03250611 214.14059685 631.81989844 219.57669451 638.53710938 225.13037109 C640.39022735 226.65248206 642.24439666 228.17331398 644.09960938 229.69287109 C644.99421875 230.42763672 645.88882812 231.16240234 646.81054688 231.91943359 C648.67624051 233.43230264 650.55734012 234.92631518 652.45117188 236.40380859 C653.82402344 237.47501953 653.82402344 237.47501953 655.22460938 238.56787109 C656.05347656 239.20595703 656.88234375 239.84404297 657.73632812 240.50146484 C658.33058594 241.03900391 658.92484375 241.57654297 659.53710938 242.13037109 C659.53710938 242.79037109 659.53710938 243.45037109 659.53710938 244.13037109 C660.07851562 244.35337891 660.61992188 244.57638672 661.17773438 244.80615234 C664.28647851 246.55096073 666.71673026 248.88260165 669.28710938 251.31787109 C672.57259222 254.39909773 675.87662689 257.44234554 679.28051758 260.39306641 C691.79041849 271.31935291 703.58956678 283.01967804 715.31323242 294.77612305 C717.62563661 297.09395947 719.94343836 299.40630413 722.26171875 301.71826172 C723.76138894 303.21859174 725.26074943 304.7192314 726.75976562 306.22021484 C727.43902603 306.89745102 728.11828644 307.57468719 728.81813049 308.27244568 C732.68769196 312.16081432 736.38241005 316.15053066 739.95884705 320.31056213 C742.57227808 323.32396816 745.30914622 326.22098255 748.03710938 329.13037109 C752.6293034 334.05572811 757.15344698 339.01763643 761.53710938 344.13037109 C762.43654082 345.16449335 763.33631262 346.19831962 764.23632812 347.23193359 C769.84657582 353.6987565 775.28593793 360.25999911 780.53442383 367.02392578 C783.43550396 370.75574844 786.41824003 374.39817282 789.47460938 378.00537109 C794.92478811 384.49736914 799.96605099 391.26890539 805.00927734 398.07910156 C806.49676896 400.07621 807.99984238 402.06034096 809.50976562 404.04052734 C817.21677059 414.16519178 824.43909512 424.57193648 831.53710938 435.13037109 C832.23674805 436.16693848 832.93638672 437.20350586 833.65722656 438.27148438 C843.61323989 453.02529174 853.34736757 467.8828956 862.53710938 483.13037109 C863.0661084 484.00435547 863.59510742 484.87833984 864.14013672 485.77880859 C872.72241683 499.99248582 880.73794215 514.47451092 888.53710938 529.13037109 C889.19573975 530.36086182 889.19573975 530.36086182 889.86767578 531.61621094 C892.8016629 537.09840537 895.68428678 542.60553861 898.53710938 548.13037109 C899.01051758 549.04318848 899.48392578 549.95600586 899.97167969 550.89648438 C914.43046421 578.89343915 926.9787567 607.82709285 938.53710938 637.13037109 C939.06908936 638.46600098 939.06908936 638.46600098 939.61181641 639.82861328 C945.91708826 655.70164609 951.2422299 671.89994461 956.53710938 688.13037109 C956.89836914 689.22961914 957.25962891 690.32886719 957.63183594 691.46142578 C971.58873471 733.96234895 982.30967259 777.17881292 990.53710938 821.13037109 C990.75592773 822.29358887 990.97474609 823.45680664 991.20019531 824.65527344 C992.40572213 831.13320129 993.50364993 837.62297074 994.53710938 844.13037109 C994.76793213 845.53609375 994.76793213 845.53609375 995.00341797 846.97021484 C997.71146079 863.64014882 999.48203504 880.3936905 1001.16210938 897.19287109 C1001.2664328 898.2157019 1001.37075623 899.23853271 1001.47824097 900.2923584 C1004.72800299 932.38701201 1005.92131901 964.36247231 1005.85496521 996.60665131 C1005.84951502 999.36563758 1005.84715454 1002.12461525 1005.84509277 1004.88360596 C1005.81192752 1033.39561619 1005.15745264 1061.72255561 1002.53710938 1090.13037109 C1002.38549229 1091.83103243 1002.23412566 1093.53171611 1002.08300781 1095.23242188 C999.37228505 1125.31253116 994.92117471 1155.0683136 989.1875 1184.71972656 C988.51628281 1188.23958548 987.87613464 1191.76412819 987.24023438 1195.29052734 C981.55662814 1226.34366654 973.53673478 1256.88376226 964.53710938 1287.13037109 C964.24771484 1288.11666504 963.95832031 1289.10295898 963.66015625 1290.11914062 C959.10806208 1305.6289239 953.96079439 1320.9048457 948.53710938 1336.13037109 C948.23836914 1336.96987305 947.93962891 1337.809375 947.63183594 1338.67431641 C945.66070472 1344.18290364 943.62005622 1349.66314119 941.53710938 1355.13037109 C940.96186523 1356.64026611 940.96186523 1356.64026611 940.375 1358.18066406 C929.65570853 1386.17131004 917.70192185 1413.45402923 904.42895508 1440.32128906 C903.5272061 1442.15045958 902.63009821 1443.98183676 901.734375 1445.81396484 C895.24604739 1459.08018071 888.61978553 1472.20168138 881.03710938 1484.88427734 C879.1762805 1488.00205323 877.41871316 1491.16220724 875.69335938 1494.35693359 C872.28809966 1500.64026758 868.68329889 1506.79687082 865.03710938 1512.94287109 C864.69217438 1513.52453033 864.34723938 1514.10618958 863.99185181 1514.70547485 C854.16696418 1531.25148326 843.87733577 1547.46732982 832.85058594 1563.24023438 C831.52206367 1565.15202236 830.21080829 1567.0745781 828.90429688 1569.00146484 C815.05464968 1589.40292389 800.04272825 1608.9645039 784.53710938 1628.13037109 C783.56572111 1629.33997913 782.59437021 1630.54961717 781.62304688 1631.75927734 C772.00277834 1643.70611151 762.05511519 1655.34236065 751.73242188 1666.68896484 C749.91741981 1668.70742799 748.13229094 1670.74540703 746.35302734 1672.79516602 C742.74491479 1676.91983594 739.0448583 1680.94664749 735.28710938 1684.93505859 C734.26109619 1686.02414017 734.26109619 1686.02414017 733.21435547 1687.13522339 C725.6024775 1695.17380254 717.79945071 1703.01906488 709.96142578 1710.83642578 C707.50760184 1713.28481326 705.05927239 1715.73860642 702.61132812 1718.19287109 C701.02440961 1719.77912986 699.43718149 1721.36507896 697.84960938 1722.95068359 C697.1317627 1723.6705545 696.41391602 1724.39042542 695.67431641 1725.1321106 C691.68095737 1729.10718737 687.59490137 1732.91467884 683.32141113 1736.58761597 C680.49483876 1739.0315462 677.77031479 1741.58314679 675.03710938 1744.13037109 C670.27172713 1748.54656878 665.46619861 1752.89674418 660.53710938 1757.13037109 C659.45501089 1758.06649129 658.37298658 1759.00269725 657.29101562 1759.93896484 C651.34468947 1765.07295136 645.37189869 1770.15192407 639.20507812 1775.02099609 C637.17698355 1776.62446764 635.1604114 1778.2388874 633.15039062 1779.86474609 C624.76430257 1786.63778215 616.23270039 1793.18091235 607.57958984 1799.60839844 C605.48812017 1801.16687584 603.40419958 1802.7349631 601.32226562 1804.30615234 C594.14964174 1809.71763717 586.9481312 1815.04759064 579.53710938 1820.13037109 C578.383114 1820.93325434 577.22949872 1821.73668405 576.07617188 1822.54052734 C565.38104398 1829.97266547 554.49457982 1837.09224591 543.53710938 1844.13037109 C542.75996582 1844.63181641 541.98282227 1845.13326172 541.18212891 1845.64990234 C513.66730641 1863.38102706 484.99332076 1879.82774401 455.53710938 1894.13037109 C453.66364277 1895.06860397 451.79386403 1896.01394073 449.92407227 1896.95947266 C424.73456308 1909.66621567 399.01971361 1920.98306008 372.84960938 1931.50537109 C371.08025024 1932.21874634 371.08025024 1932.21874634 369.27514648 1932.9465332 C360.86625783 1936.2977701 352.37994475 1939.36820674 343.82992554 1942.33459473 C341.46854296 1943.1541687 339.10882348 1943.97840569 336.74926758 1944.80322266 C317.58501198 1951.49096934 298.45885053 1958.1554727 278.80419922 1963.2734375 C275.7492102 1964.07473861 272.70053655 1964.89720439 269.65325928 1965.72729492 C240.48455889 1973.67181941 211.17900304 1980.2299504 181.40014648 1985.44091797 C178.07130845 1986.03503025 174.74926718 1986.65433288 171.42791748 1987.28826904 C163.759039 1988.75107359 156.08055354 1990.03763792 148.34960938 1991.13037109 C146.57444946 1991.38246338 146.57444946 1991.38246338 144.76342773 1991.63964844 C132.46617713 1993.34357697 120.13353047 1994.62476438 107.77734375 1995.81445312 C104.92992913 1996.09207176 102.08501009 1996.38573413 99.24023438 1996.68896484 C69.25573169 1999.83192998 39.27465602 2000.50582105 9.15199661 2000.44802475 C6.24471062 2000.44279482 3.33743536 2000.44087371 0.43014526 2000.43936157 C-27.94778008 2000.41368135 -56.20786621 2000.03853362 -84.46289062 1997.13037109 C-85.76291016 1996.99695312 -87.06292969 1996.86353516 -88.40234375 1996.72607422 C-94.60552073 1996.06250925 -100.78825301 1995.29715773 -106.96923828 1994.45361328 C-110.15463442 1994.04070311 -113.34505994 1993.72306215 -116.54199219 1993.41455078 C-139.01539709 1991.24463887 -161.28436646 1987.28321135 -183.46289062 1983.13037109 C-184.34428711 1982.96569336 -185.22568359 1982.80101562 -186.13378906 1982.63134766 C-191.92608991 1981.53763177 -197.69717743 1980.35611305 -203.46289062 1979.13037109 C-204.52088867 1978.90687988 -205.57888672 1978.68338867 -206.66894531 1978.453125 C-223.14171998 1974.94044589 -239.44416548 1970.92182499 -255.71289062 1966.56787109 C-256.55927094 1966.34243622 -257.40565125 1966.11700134 -258.27767944 1965.88473511 C-270.45159666 1962.63230868 -282.48032506 1959.02717812 -294.46289062 1955.13037109 C-295.55739532 1954.77557175 -295.55739532 1954.77557175 -296.67401123 1954.41360474 C-343.79135523 1939.11732252 -390.34930355 1921.82578004 -434.46289062 1899.13037109 C-436.29810262 1898.21426038 -438.13678933 1897.30537527 -439.97558594 1896.39648438 C-475.66557536 1878.71445765 -510.26494195 1859.1531331 -543.46289062 1837.13037109 C-544.86911341 1836.20194446 -546.27536239 1835.27355748 -547.68164062 1834.34521484 C-554.68271267 1829.71163432 -561.63012067 1825.00957284 -568.46289062 1820.13037109 C-569.09001953 1819.6835498 -569.71714844 1819.23672852 -570.36328125 1818.77636719 C-580.90967715 1811.25122644 -591.28698897 1803.53421679 -601.5390625 1795.61328125 C-603.30558414 1794.25162485 -605.07782836 1792.89800961 -606.85351562 1791.54833984 C-621.95492843 1780.03630225 -636.8084494 1768.05934908 -650.83789062 1755.25537109 C-653.55601908 1752.77953934 -656.25273583 1750.47347828 -659.27539062 1748.38037109 C-662.41115259 1746.16689206 -664.81621736 1743.90307642 -667.46289062 1741.13037109 C-668.89558249 1739.66731389 -670.33361105 1738.20947357 -671.77539062 1736.75537109 C-672.82146484 1735.69189453 -672.82146484 1735.69189453 -673.88867188 1734.60693359 C-675.89400752 1732.67767289 -677.9183503 1730.86795752 -680.02978516 1729.0612793 C-684.87982931 1724.82834111 -689.42187367 1720.31523731 -693.96679688 1715.75927734 C-694.84891342 1714.87811752 -695.73102997 1713.9969577 -696.63987732 1713.08909607 C-698.96521872 1710.76460359 -701.28812681 1708.43771202 -703.61022949 1706.10998535 C-705.02433886 1704.69392431 -706.44038183 1703.27982788 -707.85717773 1701.86645508 C-710.60475782 1699.12508853 -713.34881168 1696.38024075 -716.09179688 1693.63427734 C-716.92739639 1692.80070206 -717.76299591 1691.96712677 -718.62391663 1691.10829163 C-722.89643879 1686.81881834 -727.02642386 1682.46461233 -730.9654541 1677.86592102 C-733.36293706 1675.08720466 -735.88906073 1672.43076615 -738.40039062 1669.75537109 C-742.72023364 1665.12267225 -746.7931799 1660.38341598 -750.64648438 1655.34912109 C-752.76106707 1652.76614696 -755.10127078 1650.48836326 -757.46289062 1648.13037109 C-758.90373244 1646.44237758 -760.32021603 1644.73331921 -761.71289062 1643.00537109 C-762.49792969 1642.03470703 -763.28296875 1641.06404297 -764.09179688 1640.06396484 C-764.87425781 1639.09587891 -765.65671875 1638.12779297 -766.46289062 1637.13037109 C-767.85845624 1635.44264968 -769.2542905 1633.75515038 -770.65039062 1632.06787109 C-776.5109725 1624.90607611 -782.15838735 1617.57773162 -787.81738281 1610.25634766 C-789.24945358 1608.40612923 -790.68669293 1606.56015209 -792.12695312 1604.71630859 C-796.89547743 1598.58091088 -801.52693694 1592.35866033 -806.08789062 1586.06787109 C-806.60230713 1585.36017578 -807.11672363 1584.65248047 -807.64672852 1583.92333984 C-811.34376596 1578.79347367 -814.87193998 1573.56259424 -818.36523438 1568.29223633 C-820.47225697 1565.1162529 -822.59629914 1561.95227732 -824.72460938 1558.79052734 C-833.93376227 1545.07834301 -842.93455421 1531.28045313 -851.46289062 1517.13037109 C-851.99188965 1516.25638672 -852.52088867 1515.38240234 -853.06591797 1514.48193359 C-860.56234613 1502.06660703 -867.62472969 1489.45776333 -874.47070312 1476.67333984 C-876.5894395 1472.72393504 -878.76603829 1468.81785461 -881.00854492 1464.93774414 C-886.61090949 1455.23213223 -891.35033193 1445.14192829 -896.10742188 1435.00146484 C-897.37492735 1432.316691 -898.66328286 1429.64347419 -899.96289062 1426.97412109 C-910.16098368 1405.97648806 -919.13161711 1384.45259477 -927.48535156 1362.66162109 C-928.38105173 1360.34228559 -929.29533608 1358.03174859 -930.22070312 1355.72412109 C-935.38770125 1342.78870554 -939.86579505 1329.61612832 -944.34082031 1316.42919922 C-945.28111545 1313.66478062 -946.23176442 1310.90441748 -947.18945312 1308.14599609 C-951.50134173 1295.63086557 -954.99640749 1282.9011709 -958.46289062 1270.13037109 C-958.81574146 1268.84300592 -959.16894067 1267.55573619 -959.52246094 1266.26855469 C-969.48931213 1229.92584948 -977.15225621 1193.27978454 -983.46289062 1156.13037109 C-983.67929199 1154.85919434 -983.89569336 1153.58801758 -984.11865234 1152.27832031 C-986.82477646 1135.96358249 -988.43343991 1119.51554048 -990.08789062 1103.06787109 C-990.1925766 1102.0431369 -990.29726257 1101.01840271 -990.40512085 1099.96261597 C-993.65408208 1067.8699239 -994.84709607 1035.89623469 -994.78074646 1003.65409088 C-994.77529627 1000.89510461 -994.77293579 998.13612694 -994.77087402 995.37713623 C-994.73770877 966.865126 -994.08323389 938.53818658 -991.46289062 910.13037109 C-991.31127354 908.42970976 -991.15990691 906.72902608 -991.00878906 905.02832031 C-988.2980663 874.94821103 -983.84695596 845.19242859 -978.11328125 815.54101562 C-977.44206406 812.02115671 -976.80191589 808.49661399 -976.16601562 804.97021484 C-968.90840747 765.31730668 -958.04263763 726.40166753 -945.46289062 688.13037109 C-945.12757324 687.10395508 -944.79225586 686.07753906 -944.44677734 685.02001953 C-940.06345569 671.61591854 -935.50047637 658.30318849 -930.46289062 645.13037109 C-929.88547119 643.61612549 -929.88547119 643.61612549 -929.29638672 642.07128906 C-918.57909335 614.08332053 -906.62627765 586.80382756 -893.35473633 559.93945312 C-892.45298735 558.1102826 -891.55587946 556.27890543 -890.66015625 554.44677734 C-884.17182864 541.18056148 -877.54556678 528.05906081 -869.96289062 515.37646484 C-868.10206175 512.25868895 -866.34449441 509.09853494 -864.61914062 505.90380859 C-861.21388091 499.62047461 -857.60908014 493.46387136 -853.96289062 487.31787109 C-853.61795563 486.73621185 -853.27302063 486.15455261 -852.91763306 485.55526733 C-843.09274543 469.00925893 -832.80311702 452.79341237 -821.77636719 437.02050781 C-820.44784492 435.10871983 -819.13658954 433.18616409 -817.83007812 431.25927734 C-802.93347424 409.31558089 -786.69432403 388.37518098 -769.88671875 367.87011719 C-768.61062758 366.31088782 -767.34101681 364.7463601 -766.07226562 363.18115234 C-757.41421232 352.51430609 -748.48359921 342.10769164 -739.13085938 332.04443359 C-737.12710919 329.85585725 -735.16622477 327.64937396 -733.22216797 325.40893555 C-722.28485901 312.89454717 -710.58119275 301.08550155 -698.81713867 289.35424805 C-696.49930225 287.04184386 -694.18695759 284.72404211 -691.875 282.40576172 C-690.37466998 280.90609153 -688.87403032 279.40673104 -687.37304688 277.90771484 C-686.35719261 276.88882423 -686.35719261 276.88882423 -685.32081604 275.84934998 C-681.42539984 271.97277504 -677.42773936 268.27153084 -673.26133728 264.68727112 C-670.43121472 262.23725801 -667.70115161 259.68196133 -664.96289062 257.13037109 C-657.34282484 250.07741596 -657.34282484 250.07741596 -653.77539062 246.88037109 C-652.87240234 246.06826172 -652.87240234 246.06826172 -651.95117188 245.23974609 C-650.46289062 244.13037109 -650.46289062 244.13037109 -648.46289062 244.13037109 C-648.46289062 243.47037109 -648.46289062 242.81037109 -648.46289062 242.13037109 C-646.95501902 240.75545811 -645.37749302 239.45672648 -643.77539062 238.19287109 C-640.09971872 235.25701596 -636.46832153 232.30044121 -632.90429688 229.22851562 C-626.11135188 223.38209383 -619.06058832 217.92499646 -611.91601562 212.51708984 C-608.17081204 209.68018871 -604.46697297 206.79411293 -600.77172852 203.89257812 C-586.09059173 192.37552071 -570.91249863 181.58832387 -555.46289062 171.13037109 C-554.85413086 170.71722656 -554.24537109 170.30408203 -553.61816406 169.87841797 C-538.81826531 159.85293636 -523.69287032 150.32253401 -508.30664062 141.22363281 C-506.45865584 140.12786006 -504.61675734 139.02237829 -502.77539062 137.91552734 C-483.7889692 126.56059719 -464.36489076 115.79389783 -444.46289062 106.13037109 C-442.58942402 105.19213822 -440.71964528 104.24680145 -438.84985352 103.30126953 C-413.66034433 90.59452651 -387.94549486 79.27768211 -361.77539062 68.75537109 C-360.59581787 68.2797876 -359.41624512 67.8042041 -358.20092773 67.31420898 C-349.79203908 63.96297209 -341.305726 60.89253545 -332.75570679 57.92614746 C-330.39432421 57.10657349 -328.03460473 56.28233649 -325.67504883 55.45751953 C-306.51079323 48.76977285 -287.38463178 42.10526949 -267.72998047 36.98730469 C-264.67503059 36.18601384 -261.62639407 35.36356742 -258.5791626 34.53346252 C-199.02868311 18.31452462 -138.52988888 7.4716999 -76.95996094 2.77636719 C-75.58469238 2.66929443 -75.58469238 2.66929443 -74.18164062 2.56005859 C-72.98958008 2.47087158 -72.98958008 2.47087158 -71.7734375 2.37988281 C-69.44801425 2.16874062 -69.44801425 2.16874062 -67.13952637 1.63427734 C-62.39467452 0.74100656 -57.59217632 0.74049588 -52.77539062 0.57568359 C-51.56061035 0.533638 -50.34583008 0.49159241 -49.09423828 0.44827271 C-32.73344893 -0.05572966 -16.3669918 -0.02038126 0 0 Z " fill="#F2B92E" transform="translate(994.462890625,-0.13037109375)"/>
<path d="M0 0 C2.84001463 1.29209409 4.89781617 2.64806143 7.10007787 4.85168087 C7.69103442 5.43814285 8.28199098 6.02460482 8.89085531 6.62883836 C9.53171151 7.27494858 10.1725677 7.9210588 10.83284378 8.58674812 C11.52293887 9.27453553 12.21303397 9.96232293 12.92404103 10.67095238 C15.25225961 12.99384621 17.57323283 15.32384897 19.89434814 17.65383911 C21.5720422 19.33066161 23.25017545 21.00704479 24.92871165 22.68302429 C28.58588023 26.33664423 32.23991305 29.99337061 35.89123917 33.65282822 C41.32066433 39.09431113 46.75580059 44.53006239 52.19213573 49.9646408 C61.33623577 59.10611136 70.4756684 68.25223489 79.6124649 77.40100479 C88.66114871 86.46151615 97.71189177 95.51996224 106.76540375 104.57564926 C107.32798558 105.13836857 107.89056742 105.70108789 108.47019718 106.2808593 C111.32719021 109.13852898 114.18422019 111.99616173 117.04126438 114.85378025 C137.28606849 135.10278698 157.52623012 155.35642832 177.76367188 175.61279297 C197.42603915 195.29352422 217.09050253 214.97215723 236.7578125 234.64794922 C237.3638731 235.25427287 237.96993369 235.86059651 238.59435976 236.48529361 C244.68058276 242.57415361 250.76684845 248.66297094 256.85314543 254.75175699 C269.25201479 267.155699 281.65059915 279.55992587 294.04901123 291.96432495 C294.61909057 292.53467887 295.18916992 293.1050328 295.77652439 293.69267017 C333.85579046 331.79034255 371.92839118 369.8946758 410 408 C408.11128502 412.09582322 405.37042289 414.9172973 402.20571899 418.06843567 C401.30696582 418.97504386 401.30696582 418.97504386 400.39005601 419.89996737 C398.37889433 421.92614415 396.36063359 423.94509529 394.34228516 425.96411133 C392.89982797 427.41418868 391.45777535 428.86466855 390.01609802 430.31552124 C386.09752575 434.25605249 382.17238655 438.18997791 378.2453618 442.1220839 C375.79430694 444.57677902 373.34455616 447.03276797 370.8952446 449.4892025 C362.35678344 458.05215773 353.81261711 466.60937744 345.26367188 475.16186523 C337.28335865 483.14581929 329.3162883 491.14282462 321.35509837 499.14584333 C314.52651926 506.00904522 307.68842046 512.86266365 300.84285772 519.70892543 C296.75112652 523.80145182 292.66352082 527.89790837 288.58559036 532.00419044 C284.75358811 535.86223764 280.90995142 539.70829112 277.05685616 543.54526901 C275.64154817 544.95875199 274.23054015 546.37655496 272.82409096 547.79885292 C270.91008912 549.73310878 268.98148881 551.65148427 267.04824829 553.56648254 C266.4892945 554.13863631 265.9303407 554.71079007 265.35444891 555.30028182 C263.78235817 556.8384676 263.78235817 556.8384676 261 559 C256.29189551 558.51970154 253.67690782 555.08342761 250.51637268 551.87713623 C249.86719799 551.23052481 249.21802329 550.58391339 248.54917663 549.91770768 C246.36876606 547.74225091 244.19927261 545.55622119 242.02954102 543.37011719 C240.47122533 541.81095554 238.91224925 540.25245369 237.35266113 538.69456482 C233.11248176 534.45524838 228.8816358 530.20672512 224.65235639 525.9565382 C220.22777244 521.51322136 215.79471178 517.07837847 211.36253357 512.64263916 C203.91710814 505.1889389 196.47694248 497.73002039 189.04077148 490.26708984 C181.39387264 482.592702 173.74386709 474.9214334 166.08959961 467.25439453 C165.38301803 466.5466307 165.38301803 466.5466307 164.66216207 465.8245686 C162.29828506 463.45677548 159.93434203 461.08904829 157.57037461 458.72134542 C141.26300249 442.3879064 124.96202071 426.04811229 108.66801453 409.70133972 C107.97980604 409.01091245 107.29159755 408.32048518 106.58253425 407.60913587 C105.3177384 406.3402259 104.05298437 405.07127424 102.78828341 403.8022697 C96.36916327 397.35769089 96.36916327 397.35769089 89.9140625 390.94921875 C88.81767563 389.86201215 87.72132192 388.7747721 86.625 387.6875 C86.08617187 387.15705078 85.54734375 386.62660156 84.9921875 386.08007812 C82.122936 383.2279055 79.37968567 380.31904964 76.74555969 377.24754333 C73.22022354 373.20140501 69.51909607 369.37760057 65.71948242 365.59008789 C65.02916931 364.89802246 64.3388562 364.20595703 63.62762451 363.49291992 C61.37272737 361.23366404 59.11424333 358.97803501 56.85546875 356.72265625 C55.27828104 355.14479424 53.70124174 353.56678387 52.12434387 351.9886322 C48.83362252 348.69644239 45.5411136 345.40605379 42.24731445 342.11694336 C38.01918926 337.89454318 33.79560713 333.6676315 29.57332897 329.43938541 C26.32474415 326.18719595 23.07379244 322.93738093 19.82210732 319.68829155 C18.26279549 318.12964781 16.70422892 316.57025814 15.1464138 315.01011848 C12.97786227 312.83903901 10.80615144 310.67117098 8.63354492 308.50415039 C7.66497307 307.53254219 7.66497307 307.53254219 6.67683411 306.54130554 C3.62878259 303.38902612 3.62878259 303.38902612 0 301 C-0.24333923 301.56797544 -0.48667845 302.13595088 -0.73739159 302.7211377 C-2.23811689 305.42977348 -4.01362645 307.26813509 -6.20173454 309.46179676 C-7.53118121 310.80184181 -7.53118121 310.80184181 -8.88748538 312.16895849 C-9.87703458 313.1562563 -10.86668123 314.14345646 -11.85641479 315.13056946 C-12.90340936 316.18201567 -13.94997201 317.23389213 -14.99613869 318.28616208 C-17.87537181 321.17959344 -20.7608548 324.06672113 -23.64741445 326.95284092 C-26.75805384 330.06512683 -29.86297382 333.18310989 -32.96868896 336.30030823 C-39.76068488 343.11516221 -46.56014563 349.92253575 -53.36105108 356.72849679 C-57.60465145 360.97535195 -61.84661645 365.22383794 -66.08823013 369.47267723 C-77.82534256 381.22935332 -89.56403136 392.9844488 -101.30947685 404.73280048 C-102.06117362 405.48468482 -102.81287039 406.23656916 -103.58734585 407.01123787 C-105.1112926 408.53555088 -106.63524062 410.0598626 -108.15918992 411.58417306 C-109.29396269 412.71922004 -109.29396269 412.71922004 -110.45166016 413.87719727 C-111.58781402 415.01362195 -111.58781402 415.01362195 -112.74692048 416.17300471 C-125.03359683 428.46322653 -137.30847882 440.76515528 -149.57823347 453.07226846 C-162.16631048 465.69836728 -174.76366475 478.31514539 -187.37061608 490.92239922 C-194.45262125 498.0049902 -201.53058141 505.09152181 -208.59844589 512.1882267 C-214.61361027 518.22782261 -220.63720876 524.25884193 -226.67214786 530.27868114 C-229.75339993 533.35273162 -232.83039552 536.43075678 -235.89673996 539.51968384 C-238.70012702 542.34351947 -241.51465068 545.15571747 -244.33875777 547.9588268 C-245.36198521 548.9785322 -246.38094401 550.00254137 -247.3952993 551.03107277 C-248.76757022 552.42128809 -250.1566163 553.79488639 -251.54658318 555.16740894 C-252.31557186 555.93721208 -253.08456054 556.70701522 -253.87685192 557.50014573 C-256 559 -256 559 -258.10311592 558.89168811 C-261.33230796 557.37370809 -263.6275161 554.77153642 -266.09967041 552.26109314 C-266.70745386 551.65587297 -267.31523731 551.05065279 -267.94143844 550.42709261 C-269.98150734 548.39197537 -272.01065117 546.34630138 -274.04003906 544.30053711 C-275.49809432 542.84163588 -276.95681002 541.38339443 -278.4161377 539.92576599 C-282.38119836 535.96156787 -286.33692605 531.98817224 -290.29108143 528.01310039 C-294.42305643 523.86240189 -298.56349947 519.72016852 -302.70306396 515.57704163 C-310.54296589 507.72780652 -318.3751876 499.87095373 -326.20470023 492.01135689 C-335.11769876 483.06485402 -344.03919308 474.12684399 -352.96142244 465.18954837 C-371.31710518 446.80248776 -389.66205643 428.40475122 -408 410 C-406.70790591 407.15998537 -405.35193857 405.10218383 -403.14831913 402.89992213 C-402.56185715 402.30896558 -401.97539518 401.71800902 -401.37116164 401.10914469 C-400.72505142 400.46828849 -400.0789412 399.8274323 -399.41325188 399.16715622 C-398.72546447 398.47706113 -398.03767707 397.78696603 -397.32904762 397.07595897 C-395.00615379 394.74774039 -392.67615103 392.42676717 -390.34616089 390.10565186 C-388.66933839 388.4279578 -386.99295521 386.74982455 -385.31697571 385.07128835 C-381.66335577 381.41411977 -378.00662939 377.76008695 -374.34717178 374.10876083 C-368.90568887 368.67933567 -363.46993761 363.24419941 -358.0353592 357.80786427 C-348.89388864 348.66376423 -339.74776511 339.5243316 -330.59899521 330.3875351 C-321.53848385 321.33885129 -312.48003776 312.28810823 -303.42435074 303.23459625 C-302.86163143 302.67201442 -302.29891211 302.10943258 -301.7191407 301.52980282 C-298.86147102 298.67280979 -296.00383827 295.81577981 -293.14621975 292.95873562 C-272.89721302 272.71393151 -252.64357168 252.47376988 -232.38720703 232.23632812 C-212.70647578 212.57396085 -193.02784277 192.90949747 -173.35205078 173.2421875 C-172.74572713 172.6361269 -172.13940349 172.03006631 -171.51470639 171.40564024 C-165.42584639 165.31941724 -159.33702906 159.23315155 -153.24824301 153.14685457 C-140.844301 140.74798521 -128.44007413 128.34940085 -116.03567505 115.95098877 C-115.18014416 115.09586976 -115.18014416 115.09586976 -114.30732983 114.22347561 C-76.20965745 76.14420954 -38.1053242 38.07160882 0 0 Z " fill="#131415" transform="translate(999,334)"/>
<path d="M0 0 C2.81164835 1.18163285 4.42716579 2.8288239 6.58498991 4.98680156 C7.48121997 5.87582509 8.37745004 6.76484861 9.30083859 7.68081224 C10.29141962 8.67857078 11.28185944 9.67646952 12.27217329 10.67449325 C13.32681297 11.72639369 14.38210781 12.77763761 15.43800223 13.82827854 C18.34315884 16.72281995 21.23884325 19.62668007 24.13309395 22.53212076 C27.2537759 25.6616249 30.38306763 28.78249874 33.51129377 31.90445846 C39.63986613 38.02352971 45.76034645 44.1506342 51.87809613 50.28052377 C58.99646029 57.41248845 66.12242596 64.5368375 73.24865142 71.66094572 C85.95867409 84.36777668 98.66124656 97.08202985 111.35988081 109.80024093 C123.69461795 122.15398903 136.03530653 134.50175286 148.38234174 146.84320968 C161.8153859 160.27020277 175.24531853 173.70029293 188.66964686 187.13600063 C190.0996677 188.56722882 191.52968922 189.99845633 192.95971143 191.42968315 C193.6633796 192.13395486 194.36704777 192.83822656 195.09203921 193.56383983 C200.06223766 198.53792519 205.03457905 203.50986224 210.00766981 208.48105568 C216.06301971 214.53428849 222.11470551 220.5911566 228.16171864 226.65271806 C231.24980172 229.74806896 234.3394812 232.84178138 237.43347204 235.9312281 C240.26137177 238.75507531 243.08466521 241.58344166 245.90422919 244.41561133 C246.92927223 245.44360166 247.95603309 246.46988231 248.98460385 247.49434292 C250.37402002 248.87870688 251.75677865 250.26974339 253.13911283 251.66117901 C254.2978046 252.82117095 254.2978046 252.82117095 255.47990429 254.00459707 C257.11036909 255.88691086 257.11036909 255.88691086 257.11036909 257.88691086 C263.59407377 252.41024532 269.6125959 246.52377972 275.60133588 240.51619858 C276.64335215 239.4746191 277.68558844 238.4332597 278.72802389 237.39209974 C281.57398922 234.54835818 284.41684769 231.70152877 287.25918448 228.85416108 C290.33155607 225.77745462 293.40683408 222.70365556 296.48175275 219.62949508 C301.80293314 214.30883801 307.12228546 208.98635902 312.44038618 203.66262382 C320.12938737 195.96548152 327.82116174 188.27111536 335.51360691 180.5774151 C347.99524742 168.09358817 360.47465502 155.6075316 372.95265424 143.12006515 C385.07094591 130.99258876 397.19029167 118.86616735 409.31105268 106.7411589 C410.43250383 105.61931366 410.43250383 105.61931366 411.57661057 104.47480489 C415.32743015 100.72268022 419.07827043 96.97057625 422.82912099 93.21848255 C453.92607884 62.11116487 485.01941124 31.00022531 516.11036909 -0.11308914 C519.835378 1.63027558 522.20909102 3.74959241 525.11915815 6.68451828 C525.60432401 7.17099838 526.08948987 7.65747848 526.58935773 8.15870041 C528.18955322 9.76537653 529.78264846 11.37891277 531.37599409 12.99237961 C532.49403194 14.11669447 533.61259092 15.24049134 534.73164594 16.36379379 C537.67882629 19.32427316 540.62039846 22.29025722 543.56038129 25.25788254 C548.24997295 29.990568 552.94615049 34.71669166 557.64582288 39.43936485 C559.27662475 41.08028159 560.90390392 42.72463036 562.53084028 44.36937851 C563.54843866 45.39381729 564.56615343 46.41814048 565.5840019 47.44233078 C566.46018171 48.32676361 567.33636152 49.21119644 568.23909223 50.12243026 C570.41602711 52.21839472 572.60788694 54.20548374 574.89312971 56.17661422 C579.48848583 60.16388409 583.80025964 64.40701792 588.11256635 68.69623703 C588.97365507 69.54914825 589.83474378 70.40205948 590.72192609 71.2808165 C593.54322042 74.07748375 596.36061851 76.87804186 599.17677534 79.67987961 C600.15129308 80.64902898 601.12581538 81.61817377 602.10034215 82.58731407 C606.14925174 86.61466775 610.19675387 90.64342711 614.24055803 94.67590755 C620.02086575 100.43991268 625.80956207 106.19519643 631.60999864 111.93894732 C635.70036125 115.99069262 639.78117204 120.05190023 643.85492021 124.12034917 C646.28496104 126.54673303 648.71902622 128.96873475 651.16338003 131.38070625 C653.88024688 134.0620762 656.57726906 136.7628646 659.2727226 139.46576828 C660.49356046 140.66199814 660.49356046 140.66199814 661.73906171 141.88239425 C662.83032613 142.9861364 662.83032613 142.9861364 663.9436363 144.11217636 C664.5831098 144.74833972 665.22258331 145.38450308 665.8814348 146.03994411 C667.11036909 147.88691086 667.11036909 147.88691086 666.85790205 149.80819066 C666.02154731 152.13390415 665.11867255 153.2535744 663.37877601 154.99340075 C662.79364037 155.58579073 662.20850473 156.1781807 661.6056377 156.78852189 C660.63098287 157.7522127 660.63098287 157.7522127 659.63663805 158.73537201 C658.60505393 159.77304721 658.60505393 159.77304721 657.55262974 160.83168554 C655.22627183 163.16805786 652.88928717 165.49350728 650.55227888 167.81922287 C648.87340864 169.5008313 647.19519474 171.18309522 645.51758462 172.86596078 C641.85829981 176.53365176 638.19435081 180.19661647 634.52628744 183.85552543 C629.0719513 189.29628632 623.62619552 194.74557475 618.18214572 200.19662576 C608.46060412 209.93010895 598.73055238 219.65504965 588.99698646 229.37650673 C580.48010934 237.88286029 571.96622275 246.39219335 563.45529211 254.90449661 C562.60946588 255.75044888 562.60946588 255.75044888 561.74655226 256.6134911 C559.45776035 258.90263524 557.16898433 261.19179526 554.88023097 263.48097796 C533.39826902 284.9669074 511.90796695 306.44447721 490.41364315 327.91803922 C471.30151957 347.0117888 452.19568857 366.11181223 433.09547651 385.21747726 C431.86889721 386.44440299 430.64231775 387.67132855 429.41573811 388.89825395 C428.80935097 389.50481209 428.20296382 390.11137023 427.5782013 390.73630893 C424.52596644 393.78939728 421.47371673 396.84247079 418.42145097 399.89552826 C417.81933506 400.49780125 417.21721915 401.10007424 416.5968573 401.72059793 C400.65299157 417.66844994 384.7044003 433.6115746 368.75428849 449.55317944 C367.03893572 451.26762515 365.32358365 452.98207157 363.60823315 454.69651956 C362.47023546 455.83391613 361.33223402 456.97130895 360.1942288 458.10869799 C352.24770205 466.05099677 344.30300659 473.99512331 336.35954483 481.94048746 C326.12603132 492.17643949 315.88929232 502.40914704 305.64675362 512.63606867 C300.22508586 518.04966118 294.80619246 523.46599641 289.39119926 528.88626538 C285.35827536 532.9224982 281.3201854 536.95352826 277.27997421 540.98246536 C275.63825848 542.6212319 273.99825719 544.26171798 272.36007041 545.90401223 C270.14790486 548.12122386 267.92978727 550.33229638 265.70994127 552.54181427 C265.06251255 553.19363947 264.41508383 553.84546468 263.74803606 554.51704216 C259.33867437 558.88691086 259.33867437 558.88691086 257.11036909 558.88691086 C255.62990034 557.3876738 255.62990034 557.3876738 253.92286909 555.33271164 C250.48221089 551.28880529 246.86962984 547.50063667 243.11036909 543.75409836 C242.47099409 543.11376663 241.83161909 542.4734349 241.17286909 541.81369919 C239.83295045 540.47310584 238.4917915 539.13375111 237.14943159 537.79560226 C235.11181697 535.76335493 233.07961155 533.72580828 231.04786909 531.68769211 C229.73568964 530.37617339 228.42320006 529.06496488 227.11036909 527.75409836 C226.51224409 527.15394912 225.91411909 526.55379989 225.29786909 525.93546432 C222.49217575 523.14508526 219.6609694 520.47931901 216.61036909 517.95771164 C214.26652007 515.97963852 212.2512928 513.95772703 210.29129922 511.60218185 C204.45245967 504.85955081 198.0256105 498.66807388 191.71548688 492.37177414 C190.23667839 490.89252925 188.75808979 489.4130645 187.27970153 487.93339962 C183.22739813 483.87886463 179.17199076 479.82744689 175.1160624 475.77653855 C170.73873597 471.40353562 166.36430504 467.02763792 161.98951948 462.65209335 C154.41308503 455.07513487 146.83484134 447.49999038 139.25531423 439.92612594 C131.30814112 431.98487493 123.36200748 424.04258616 115.41725194 416.09891647 C114.92280732 415.60454059 114.4283627 415.1101647 113.91893491 414.60080773 C111.40778689 412.08999806 108.89665736 409.57916991 106.38553493 407.06833464 C88.61083612 389.29573483 70.8338212 371.52545336 53.05543745 353.75653976 C35.78668332 336.4969737 18.51898261 319.23635483 1.25270307 301.9743132 C0.72024579 301.44198745 0.18778852 300.9096617 -0.36080383 300.36120486 C-5.70807973 295.01524751 -11.05533426 289.66926879 -16.40257313 284.32327442 C-27.29499092 273.43339267 -38.1875513 262.54365355 -49.08019793 251.6540007 C-49.58099645 251.15333947 -50.08179496 250.65267825 -50.59776919 250.13684547 C-84.02600077 216.71781065 -117.4575661 183.3021109 -150.88963091 149.88691086 C-149.95244225 148.78380713 -149.01383675 147.68190707 -148.07465577 146.58049911 C-147.55212601 145.96674643 -147.02959625 145.35299375 -146.49123225 144.72064251 C-144.02967209 141.9023127 -141.41000159 139.25583565 -138.76618731 136.60956711 C-138.17993504 136.01893258 -137.59368276 135.42829805 -136.98966527 134.81976551 C-135.04378684 132.86063618 -133.0944364 130.90500136 -131.14500201 128.94941086 C-129.74158287 127.53808086 -128.33834357 126.12657202 -126.93526995 124.71489853 C-122.3482798 120.10183527 -117.75596322 115.49409419 -113.16306841 110.88691086 C-111.58006983 109.2985494 -109.99707858 107.71018064 -108.41409457 106.12180465 C-101.83473705 99.5208537 -95.25395426 92.92132919 -88.66943705 86.32552475 C-79.23488506 76.87469012 -69.80895514 67.41543763 -60.39469814 57.94438499 C-53.76974046 51.2808209 -47.13531377 44.62678071 -40.49367547 37.9798426 C-36.52694306 34.00944842 -32.56454531 30.03493815 -28.61217654 26.05024093 C-24.90149434 22.30963667 -21.17929106 18.58090625 -17.44770777 14.86115593 C-16.07754097 13.49121108 -14.71167991 12.1169448 -13.35038722 10.73818153 C-11.49789924 8.86321115 -9.63082687 7.00412787 -7.75910723 5.14838547 C-7.21844571 4.59384186 -6.67778419 4.03929825 -6.12073898 3.46795028 C-2.429706 -0.14541113 -2.429706 -0.14541113 0 0 Z " fill="#131415" transform="translate(741.8896309137344,1107.11308914423)"/>
<path d="M0 0 C4.18844021 1.64014929 6.98680042 4.71718406 10.08621216 7.85243225 C10.69258448 8.45780128 11.29895679 9.06317032 11.92370403 9.68688387 C13.9566854 11.71891175 15.98242873 13.75800523 18.00830078 15.79711914 C19.46331833 17.2543376 20.91878386 18.71110886 22.37466431 20.16746521 C25.50963277 23.30536859 28.64141642 26.44640474 31.77078629 29.58989143 C36.7149487 34.55628968 41.66616178 39.51561784 46.61837769 44.47398376 C54.44658848 52.31357964 62.27011195 60.15783416 70.09161651 68.00412029 C84.10815693 82.06498959 98.13029426 96.12027215 112.15762699 110.17037481 C117.08376409 115.10494013 122.00707836 120.04230011 126.9281733 124.98189366 C129.98378983 128.04812275 133.04141088 131.11234703 136.09954453 134.17606544 C137.52187159 135.60187482 138.94332566 137.02855565 140.36386108 138.45615005 C142.29621872 140.39790143 144.23158909 142.33659858 146.16775513 144.27455139 C146.73506131 144.84613466 147.3023675 145.41771793 147.88686478 146.0066219 C150.67576258 148.85650483 150.67576258 148.85650483 154 151 C152.35295757 155.22031433 149.22997196 158.04838711 146.07836914 161.17559814 C145.15912328 162.09952397 145.15912328 162.09952397 144.2213068 163.04211497 C142.16399713 165.10741004 140.09960262 167.16547331 138.03515625 169.22363281 C136.55987688 170.70162174 135.08502344 172.18003591 133.61056519 173.65884399 C129.60296295 177.67557504 125.58904662 181.68594065 121.5737114 185.69493961 C117.37826303 189.88533246 113.18768743 194.08059361 108.99633789 198.27508545 C101.9585116 205.31655188 94.91647486 212.35378689 87.87207031 219.38867188 C79.71694238 227.53290674 71.56905604 235.6843332 63.42487812 243.83951688 C56.44085336 250.83260306 49.45295674 257.82180229 42.46177959 264.80773807 C38.28234694 268.9840458 34.10429369 273.1617094 29.92971802 277.34287262 C26.0075914 281.27075572 22.08064462 285.19375383 18.14984512 289.112957 C16.70408415 290.55606263 15.26004246 292.00089294 13.81780624 293.44752121 C11.85698151 295.41376822 9.89017093 297.37381839 7.92163086 299.33233643 C7.34517854 299.91325019 6.76872622 300.49416396 6.17480564 301.09268117 C2.2283004 305 2.2283004 305 0 305 C-1.23390293 303.7466507 -1.23390293 303.7466507 -2.74916077 301.88293457 C-8.45591123 295.18197561 -14.78538315 289.08372423 -21.01342773 282.87304688 C-22.43337637 281.45338066 -23.85310416 280.03349351 -25.27262878 278.61340332 C-29.10869948 274.7770468 -32.94783617 270.94377205 -36.78754687 267.11105919 C-40.80653682 263.09833862 -44.82267767 259.08276856 -48.83912659 255.06750488 C-56.43715492 247.47257932 -64.03772782 239.88020555 -71.63922697 232.28875399 C-80.29658612 223.64258877 -88.95109144 214.99356937 -97.60536277 206.34431362 C-115.40041017 188.55970673 -133.19902359 170.77867228 -151 153 C-149.35601968 148.79157206 -146.24971142 145.97726015 -143.10287476 142.86236572 C-142.4927166 142.25049872 -141.88255845 141.63863172 -141.25391066 141.0082233 C-139.20573712 138.9567524 -137.15049129 136.91251701 -135.09521484 134.86816406 C-133.6265287 133.40004198 -132.15828264 131.93147952 -130.69044495 130.46250916 C-126.70135545 126.47284494 -122.70612173 122.48938487 -118.70977736 118.50698948 C-114.53550528 114.3452049 -110.3668819 110.17777032 -106.19766235 106.01092529 C-98.30042622 98.11990975 -90.39810486 90.23400707 -82.49395525 82.34991717 C-73.49618917 73.37449205 -64.50408945 64.39339926 -55.51246715 55.41181993 C-37.01462074 36.93488865 -18.50965054 18.4651057 0 0 Z " fill="#131415" transform="translate(999,848)"/>
<path d="M0 0 C3.35796214 1.32089745 5.61153945 3.99814065 8.10099566 6.5261538 C8.70877911 7.13137398 9.31656256 7.73659415 9.94276369 8.36015433 C11.98283259 10.39527157 14.01197642 12.44094556 16.04136431 14.48670983 C17.49941957 15.94561107 18.95813527 17.40385251 20.41746294 18.86148095 C24.38252361 22.82567908 28.3382513 26.7990747 32.29240668 30.77414656 C36.42438168 34.92484505 40.56482472 39.06707842 44.70438921 43.21020532 C52.54429114 51.05944043 60.37651285 58.91629322 68.20602548 66.77589005 C77.119024 75.72239292 86.04051833 84.66040295 94.96274769 93.59769857 C113.31843043 111.98475918 131.66338168 130.38249572 150.00132525 148.78724694 C148.3727821 152.90442637 145.40103136 155.66060248 142.31420672 158.71487451 C141.72658303 159.30420705 141.13895934 159.89353959 140.53352886 160.50073069 C138.5614534 162.47610277 136.58231012 164.4442374 134.60313189 166.41249108 C133.18857374 167.82648514 131.77445574 169.24091964 130.36074603 170.65576196 C126.51814418 174.49893854 122.66939834 178.33590892 118.81954277 182.1718173 C114.79481515 186.1840509 110.77574233 190.20194069 106.75607073 194.21923852 C99.13865247 201.83043547 91.51615055 209.43652012 83.89181906 217.04079121 C75.22504304 225.68525421 66.56390683 234.33535834 57.90325904 242.98596036 C41.32371498 259.54604578 24.7385467 276.10048654 8.14817351 292.64972287 C5.7645405 295.02754967 3.38117654 297.40563447 1.00132525 299.78724694 C-1.9974982 298.44129078 -4.08057737 296.95204872 -6.39377058 294.62593102 C-7.37130041 293.65035745 -7.37130041 293.65035745 -8.36857831 292.65507531 C-9.0725575 291.94233453 -9.77653669 291.22959374 -10.50184858 290.49525476 C-11.25196714 289.74382195 -12.0020857 288.99238915 -12.77493513 288.21818566 C-15.25648287 285.73014139 -17.73098124 283.23520115 -20.205706 280.74037194 C-21.93148921 279.00831688 -23.65778955 277.27677694 -25.38458478 275.54573083 C-29.93502488 270.98197639 -34.47987419 266.41269794 -39.02314985 261.84181237 C-46.2832577 254.53863244 -53.54999068 247.24206074 -60.82009161 239.94882989 C-63.35443463 237.40429917 -65.88531382 234.85636065 -68.4158653 232.30805993 C-69.97956434 230.73752791 -71.54337581 229.16710782 -73.10731733 227.59681726 C-73.80522382 226.8921734 -74.50313032 226.18752954 -75.22218549 225.46153283 C-78.84672818 221.82866841 -82.53503655 218.37745368 -86.50071466 215.11816049 C-88.95383065 212.93860622 -90.90095515 210.30451046 -92.99867475 207.78724694 C-94.14713699 206.76639162 -95.31489397 205.76692759 -96.49867475 204.78724694 C-99.79738887 202.05259866 -102.30617773 199.11744063 -104.99867475 195.78724694 C-106.65411845 194.10943238 -108.32229016 192.44413869 -109.99867475 190.78724694 C-110.87265913 189.90166101 -111.7466435 189.01607507 -112.64711225 188.10365319 C-117.12874421 183.5770765 -121.6095387 179.17423387 -126.52211225 175.11146569 C-128.95894258 172.92605437 -130.90608121 170.29835919 -132.99867475 167.78724694 C-134.72899318 166.21313782 -136.50880226 164.71632558 -138.3072685 163.22084069 C-140.67944545 161.21024268 -142.82875279 159.01280793 -144.99867475 156.78724694 C-146.10152772 155.68176814 -147.20571742 154.57762143 -148.31117475 153.47474694 C-149.64148725 152.14443444 -149.64148725 152.14443444 -150.99867475 150.78724694 C-149.35870312 146.62026666 -146.31631412 143.81739238 -143.20439374 140.71881127 C-142.60522496 140.11440581 -142.00605618 139.51000035 -141.38873076 138.88727957 C-139.37756908 136.8611028 -137.35930834 134.84215166 -135.34095991 132.82313561 C-133.89850272 131.37305827 -132.4564501 129.92257839 -131.01477277 128.4717257 C-127.0962005 124.53119445 -123.1710613 120.59726904 -119.24403656 116.66516304 C-116.79298169 114.21046792 -114.34323091 111.75447897 -111.89391935 109.29804444 C-103.35545819 100.73508921 -94.81129186 92.17786951 -86.26234663 83.62538171 C-78.2820334 75.64142765 -70.31496305 67.64442233 -62.35377312 59.64140362 C-55.52519401 52.77820172 -48.68709521 45.92458329 -41.84153247 39.07832152 C-37.74980127 34.98579512 -33.66219557 30.88933857 -29.58426511 26.7830565 C-25.75226286 22.9250093 -21.90862617 19.07895582 -18.05553091 15.24197793 C-16.64022292 13.82849495 -15.2292149 12.41069198 -13.82276571 10.98839402 C-11.90876387 9.05413816 -9.98016356 7.13576267 -8.04692304 5.2207644 C-7.48796925 4.64861064 -6.92901545 4.07645687 -6.35312366 3.48696512 C-2.51561585 -0.26777992 -2.51561585 -0.26777992 0 0 Z " fill="#131415" transform="translate(484.99867475032806,850.2127530574799)"/>
<path d="M0 0 C3.35796214 1.32089745 5.61153945 3.99814065 8.10099566 6.5261538 C8.70877911 7.13137398 9.31656256 7.73659415 9.94276369 8.36015433 C11.98283259 10.39527157 14.01197642 12.44094556 16.04136431 14.48670983 C17.49941957 15.94561107 18.95813527 17.40385251 20.41746294 18.86148095 C24.38252361 22.82567908 28.3382513 26.7990747 32.29240668 30.77414656 C36.42438168 34.92484505 40.56482472 39.06707842 44.70438921 43.21020532 C52.54429114 51.05944043 60.37651285 58.91629322 68.20602548 66.77589005 C77.119024 75.72239292 86.04051833 84.66040295 94.96274769 93.59769857 C113.31843043 111.98475918 131.66338168 130.38249572 150.00132525 148.78724694 C148.3627523 152.96276621 145.30536033 155.75587989 142.18012774 158.84895349 C141.57813669 159.45265338 140.97614565 160.05635328 140.35591245 160.67834711 C138.33537741 162.7021792 136.30777178 164.7187752 134.28013384 166.73548913 C132.83115188 168.18390703 131.38261002 169.63276531 129.93447649 171.08203149 C125.99910411 175.01797856 122.05758815 178.94772131 118.11496079 182.87639928 C113.99674295 186.98212918 109.88417421 191.09350953 105.77100909 195.20430017 C97.98002083 202.98906796 90.18394756 210.76872273 82.38604569 218.54656458 C73.50919612 227.40107279 64.63801325 236.26124902 55.76730764 245.12191176 C37.51828953 263.35001505 19.26214777 281.57096981 1.00132525 299.78724694 C-3.15416046 298.15261615 -5.93143763 295.1243462 -9.00895917 292.01074243 C-9.90626699 291.11493953 -9.90626699 291.11493953 -10.82170224 290.20103961 C-12.82704495 288.1966503 -14.82514882 286.185197 -16.82338178 284.17372155 C-18.25869513 282.73620727 -19.69445649 281.2991402 -21.13063276 279.86248803 C-24.22303959 276.7671464 -27.31226137 273.6686725 -30.39906919 270.56774735 C-35.27602125 265.66855853 -40.1600247 260.77644077 -45.04503095 255.88528466 C-52.76699406 248.1519367 -60.48426961 240.41393026 -68.19952607 232.67389184 C-82.02567642 218.8034119 -95.85742428 204.93851916 -109.69436765 191.07880622 C-114.55360182 186.21114402 -119.41001298 181.34068733 -124.26420462 176.46799672 C-127.27830313 173.44328543 -130.29440634 170.42057913 -133.31102216 167.39837861 C-134.71399861 165.99191995 -136.11610204 164.58458985 -137.51728666 163.17634606 C-139.42336977 161.26086875 -141.33246577 159.34844638 -143.24235761 157.43676782 C-143.8018819 156.87296645 -144.36140619 156.30916508 -144.93788576 155.72827882 C-147.70292522 152.90742583 -147.70292522 152.90742583 -150.99867475 150.78724694 C-149.35870312 146.62026666 -146.31631412 143.81739238 -143.20439374 140.71881127 C-142.60522496 140.11440581 -142.00605618 139.51000035 -141.38873076 138.88727957 C-139.37756908 136.8611028 -137.35930834 134.84215166 -135.34095991 132.82313561 C-133.89850272 131.37305827 -132.4564501 129.92257839 -131.01477277 128.4717257 C-127.0962005 124.53119445 -123.1710613 120.59726904 -119.24403656 116.66516304 C-116.79298169 114.21046792 -114.34323091 111.75447897 -111.89391935 109.29804444 C-103.35545819 100.73508921 -94.81129186 92.17786951 -86.26234663 83.62538171 C-78.2820334 75.64142765 -70.31496305 67.64442233 -62.35377312 59.64140362 C-55.52519401 52.77820172 -48.68709521 45.92458329 -41.84153247 39.07832152 C-37.74980127 34.98579512 -33.66219557 30.88933857 -29.58426511 26.7830565 C-25.75226286 22.9250093 -21.90862617 19.07895582 -18.05553091 15.24197793 C-16.64022292 13.82849495 -15.2292149 12.41069198 -13.82276571 10.98839402 C-11.90876387 9.05413816 -9.98016356 7.13576267 -8.04692304 5.2207644 C-7.48796925 4.64861064 -6.92901545 4.07645687 -6.35312366 3.48696512 C-2.51561585 -0.26777992 -2.51561585 -0.26777992 0 0 Z " fill="#131415" transform="translate(1515.998674750328,850.2127530574799)"/>
<path d="M0 0 C-1.2918124 2.83889858 -2.64752265 4.89763112 -4.84937954 7.10007787 C-5.43532906 7.69103442 -6.02127858 8.28199098 -6.62498415 8.89085531 C-7.59329194 9.8521396 -7.59329194 9.8521396 -8.5811615 10.83284378 C-9.26834971 11.52293887 -9.95553792 12.21303397 -10.66355002 12.92404103 C-12.98442408 15.25225664 -15.31240596 17.57323417 -17.64038086 19.89434814 C-19.31577524 21.5720453 -20.99073311 23.25017846 -22.66528988 24.92871165 C-26.31583839 28.58588851 -29.96950284 32.23992258 -33.62591171 35.89123917 C-39.06292115 41.32069695 -44.49421867 46.75584166 -49.92439166 52.19213573 C-59.62118049 61.89946767 -69.32369877 71.60105701 -79.02864578 81.30023203 C-87.52020906 89.78676955 -96.00991767 98.2751569 -104.49777222 106.76540375 C-105.06020128 107.32798558 -105.62263034 107.89056742 -106.20210271 108.47019718 C-108.48500681 110.75372393 -110.76790383 113.03725774 -113.0507892 115.3208032 C-134.4756123 136.75174743 -155.90626943 158.17684923 -177.33953224 179.59935245 C-196.39694792 198.64727397 -215.44918283 217.70036289 -234.49707031 236.7578125 C-255.88275525 258.15419719 -277.27165549 279.54735915 -298.66578388 300.93530154 C-300.94460489 303.21348109 -303.22341801 305.49166853 -305.50222778 307.76985931 C-306.06335903 308.33083241 -306.62449028 308.8918055 -307.20262551 309.46977778 C-315.69050564 317.95537928 -324.17590827 326.44345294 -332.66012573 334.93271637 C-342.30179323 344.58008953 -351.94700062 354.22390754 -361.59695888 363.86298802 C-367.00309685 369.26323359 -372.40643965 374.66624136 -377.80587111 380.07319261 C-381.82718698 384.09949287 -385.8536614 388.12060009 -389.88224995 392.1396223 C-391.51922737 393.77434975 -393.15448824 395.41079813 -394.78793228 397.0490562 C-396.99369037 399.26081999 -399.20540101 401.46644637 -401.4188385 403.67052078 C-402.06437703 404.32074164 -402.70991555 404.9709625 -403.37501585 405.64088702 C-407.77169923 410 -407.77169923 410 -410 410 C-408.7081876 407.16110142 -407.35247735 405.10236888 -405.15062046 402.89992213 C-404.56467094 402.30896558 -403.97872142 401.71800902 -403.37501585 401.10914469 C-402.72947733 400.46828849 -402.0839388 399.8274323 -401.4188385 399.16715622 C-400.73165029 398.47706113 -400.04446208 397.78696603 -399.33644998 397.07595897 C-397.01557592 394.74774336 -394.68759404 392.42676583 -392.35961914 390.10565186 C-390.68422476 388.4279547 -389.00926689 386.74982154 -387.33471012 385.07128835 C-383.68416161 381.41411149 -380.03049716 377.76007742 -376.37408829 374.10876083 C-370.93707885 368.67930305 -365.50578133 363.24415834 -360.07560834 357.80786427 C-350.37881951 348.10053233 -340.67630123 338.39894299 -330.97135422 328.69976797 C-322.47979094 320.21323045 -313.99008233 311.7248431 -305.50222778 303.23459625 C-304.93979872 302.67201442 -304.37736966 302.10943258 -303.79789729 301.52980282 C-301.51499319 299.24627607 -299.23209617 296.96274226 -296.9492108 294.6791968 C-275.5243877 273.24825257 -254.09373057 251.82315077 -232.66046776 230.40064755 C-213.60305208 211.35272603 -194.55081717 192.29963711 -175.50292969 173.2421875 C-154.11724475 151.84580281 -132.72834451 130.45264085 -111.33421612 109.06469846 C-109.05539511 106.78651891 -106.77658199 104.50833147 -104.49777222 102.23014069 C-103.93664097 101.66916759 -103.37550972 101.1081945 -102.79737449 100.53022222 C-94.30949436 92.04462072 -85.82409173 83.55654706 -77.33987427 75.06728363 C-67.69820677 65.41991047 -58.05299938 55.77609246 -48.40304112 46.13701198 C-42.99690315 40.73676641 -37.59356035 35.33375864 -32.19412889 29.92680739 C-28.17281302 25.90050713 -24.1463386 21.87939991 -20.11775005 17.8603777 C-18.48077263 16.22565025 -16.84551176 14.58920187 -15.21206772 12.9509438 C-13.00630963 10.73918001 -10.79459899 8.53355363 -8.5811615 6.32947922 C-7.61285371 5.35414793 -7.61285371 5.35414793 -6.62498415 4.35911298 C-2.22830077 0 -2.22830077 0 0 0 Z " fill="#3A3018" transform="translate(1001,334)"/>
</svg>
