<?xml version="1.0" encoding="UTF-8"?>
<svg version="1.1" xmlns="http://www.w3.org/2000/svg" width="512" height="512">
<path d="M0 0 C8.46216638 2.36198949 16.66048896 5.37899626 24.8828125 8.453125 C26.3287389 8.99110357 27.77476585 9.52881198 29.22088623 10.06626892 C33.0636142 11.49535581 36.90486958 12.9283606 40.74581146 14.36223984 C44.73874829 15.85214708 48.73299907 17.33852418 52.72705078 18.82543945 C87.27175409 31.68957549 87.27175409 31.68957549 98.9888916 36.10964966 C101.29415845 36.97057805 103.60351332 37.81660667 105.91638184 38.65670776 C112.77679262 41.16912863 119.55127252 43.70642552 126.13619423 46.88240623 C157.77111987 62.10682916 190.50557549 61.82334733 224.82580662 61.5758934 C227.14070117 61.56240854 229.45544651 61.55767271 231.77037811 61.55606079 C276.43706722 61.52473884 316.26262347 59.05787418 356.76983643 38.49951172 C366.13459987 33.75193729 375.65825065 29.85540483 385.515625 26.24609375 C386.24897945 25.97729527 386.98233391 25.70849678 387.73791122 25.43155289 C391.3781232 24.1006766 395.02188654 22.77990021 398.66766357 21.46435547 C405.17462162 19.11135698 411.64360976 16.65777778 418.1171875 14.21484375 C420.46445733 13.33561214 422.81178684 12.45653983 425.15917969 11.57763672 C429.79441854 9.83778874 434.41826765 8.07107423 439.03613281 6.28564453 C440.14908722 5.8586879 441.26204163 5.43173126 442.40872192 4.99183655 C444.50435206 4.18719289 446.5972098 3.37527784 448.68673706 2.55491638 C449.60882965 2.20236282 450.53092224 1.84980927 451.48095703 1.48657227 C452.2853421 1.17389908 453.08972717 0.86122589 453.91848755 0.53907776 C456 0 456 0 459 1 C460.27189636 3.79309082 460.27189636 3.79309082 461.54370117 7.58007812 C461.77822495 8.2680246 462.01274872 8.95597107 462.25437927 9.6647644 C463.02949194 11.94966643 463.78674064 14.24003445 464.54296875 16.53125 C465.07610788 18.12273885 465.60991548 19.7140039 466.1443634 21.30505371 C467.26424992 24.64837735 468.37521718 27.99450382 469.48022461 31.34277344 C470.89195601 35.61774754 472.32634827 39.88469702 473.76780224 44.14972687 C474.87649587 47.43922673 475.972307 50.73291032 477.0644474 54.02793884 C477.58785319 55.60162815 478.11530995 57.17397644 478.64699364 58.74488831 C483.74038798 73.8349146 482.83814971 84.09951092 479.5 99.50390625 C479.14048065 101.19481297 478.7817694 102.8858917 478.42382812 104.57713318 C477.48492911 109.0027329 476.53515127 113.42592746 475.58300781 117.84869385 C474.61119492 122.37232415 473.64980073 126.89816663 472.6875 131.42382812 C470.80179674 140.28473488 468.90458113 149.14313316 467 158 C467.59296875 158.29003906 468.1859375 158.58007812 468.796875 158.87890625 C471.73024556 160.37159659 474.36623317 162.02467488 477 164 C477 164.99 477 165.98 477 167 C474.86823845 168.80672648 472.76665023 170.44380072 470.5 172.0625 C468.28056665 173.66132257 466.13753722 175.28820851 464 177 C464 177.66 464 178.32 464 179 C466.26656044 180.86631465 468.6427093 182.53946667 471.03125 184.24609375 C471.6809375 184.82488281 472.330625 185.40367187 473 186 C473 186.99 473 187.98 473 189 C470.51091812 191.45944996 467.93013818 193.71022051 465.265625 195.97265625 C463.79310929 197.2593545 462.39098678 198.62557259 461 200 C461 200.99 461 201.98 461 203 C462.5354878 204.46090788 462.5354878 204.46090788 464.5 205.6875 C465.1496875 206.12449219 465.799375 206.56148437 466.46875 207.01171875 C466.9740625 207.33785156 467.479375 207.66398438 468 208 C465.95953274 211.63177507 463.71381615 214.58268448 460.875 217.625 C457.50588324 221.31445901 454.20686822 225.04315107 451 228.875 C450.2575 229.75929687 449.515 230.64359375 448.75 231.5546875 C446.98766979 234.01722926 446.34893867 235.0518582 446 238 C446.71325963 241.22935159 446.71325963 241.22935159 447.94677734 244.80273438 C448.27600189 245.81879257 448.27600189 245.81879257 448.61187744 246.8553772 C449.34344849 249.10482877 450.08966644 251.34913667 450.8359375 253.59375 C451.35481849 255.1797509 451.87275615 256.7660607 452.38980103 258.35266113 C453.76149386 262.55352998 455.14549385 266.75024272 456.53222656 270.94616699 C457.90468247 275.10508212 459.26654771 279.26745612 460.62890625 283.4296875 C461.16541797 285.06756141 461.70197787 286.70541953 462.23858643 288.34326172 C462.5025547 289.14898621 462.76652298 289.95471069 463.0384903 290.78485107 C464.35554606 294.80465401 465.67291994 298.82435197 466.99121094 302.84375 C467.24483776 303.61729828 467.49846458 304.39084656 467.75977707 305.18783569 C469.20405878 309.58870592 470.65887809 313.98588793 472.12377739 318.37993622 C472.78005048 320.3527387 473.43182481 322.32696007 474.08169556 324.30187988 C474.8603877 326.6668303 475.64675084 329.02927534 476.44247437 331.3885498 C476.78324005 332.43015259 477.12400574 333.47175537 477.47509766 334.54492188 C477.77179352 335.43626831 478.06848938 336.32761475 478.37417603 337.24597168 C479.67691051 342.97884195 478.99846445 347.88012713 477.33862305 353.44970703 C476.79073624 355.31363098 476.79073624 355.31363098 476.23178101 357.21520996 C475.82527818 358.56279984 475.41858533 359.9103324 475.01171875 361.2578125 C474.59199605 362.67297239 474.1731194 364.08838344 473.7550354 365.50402832 C472.63978198 369.27180774 471.51303434 373.03605573 470.38388443 376.79969025 C469.224125 380.67226377 468.0748133 384.54793421 466.92456055 388.42333984 C465.11502652 394.51564421 463.29969082 400.60618627 461.47949219 406.6953125 C459.3923003 413.67838413 457.31988746 420.66571551 455.2578125 427.65625 C454.27636343 430.97926178 453.29447782 434.30214444 452.3125 437.625 C451.97742935 438.75980804 451.97742935 438.75980804 451.6355896 439.9175415 C451.02596696 441.97947605 450.41384869 444.04065 449.80078125 446.1015625 C449.47247314 447.20838379 449.14416504 448.31520508 448.8059082 449.45556641 C448 452 448 452 447 454 C442.06245339 453.38188609 437.42349788 452.4074236 432.61303711 451.08569336 C431.90917877 450.89357269 431.20532043 450.70145203 430.48013306 450.50350952 C428.16143086 449.86958216 425.84441625 449.22969966 423.52734375 448.58984375 C421.88296786 448.13921276 420.23848008 447.68898992 418.59388733 447.239151 C414.25281889 446.05072737 409.91311362 444.85740233 405.57373047 443.6628418 C402.12186724 442.71308391 398.6693869 441.76558595 395.2167263 440.81873131 C393.51723541 440.3526071 391.8178448 439.88611707 390.11855507 439.41926003 C385.91470459 438.26499093 381.7092303 437.11742991 377.49984741 435.98348999 C370.39179166 434.06362477 363.30217584 432.12924389 356.2768507 429.92264843 C353.52257456 429.06055183 350.75863759 428.23250775 347.99301338 427.40765572 C346.12609156 426.83472286 344.27515919 426.21047119 342.42527771 425.58470154 C339.11493447 424.60713861 336.45212889 423.91013157 333 424 C329.27966551 426.09927924 326.77525609 428.79748745 324 432 C322.8957199 432.9595411 321.77385584 433.90006307 320.62109375 434.80078125 C319.84197632 435.4208606 319.84197632 435.4208606 319.04711914 436.0534668 C318.51594482 436.46894775 317.98477051 436.88442871 317.4375 437.3125 C316.84509521 437.7763208 316.25269043 438.2401416 315.64233398 438.71801758 C309.41869388 443.53351337 302.93445421 447.9386882 296.42089844 452.34863281 C291.48414723 455.71613838 286.589468 459.14465953 281.6875 462.5625 C279.71242914 463.93907409 277.73718134 465.31539437 275.76171875 466.69140625 C274.91569092 467.28123291 274.06966309 467.87105957 273.19799805 468.47875977 C268.66001649 471.61950874 266.37219232 472.29002894 260.81665039 472.44921875 C260.08755966 472.4719989 259.35846893 472.49477905 258.60728455 472.51824951 C250.92270852 472.74102006 243.23424641 472.83472612 235.54711914 472.91992188 C231.91916697 472.96412486 228.29544623 473.04707605 224.66918945 473.16601562 C187.94377802 474.34195835 187.94377802 474.34195835 173.80297852 461.60400391 C172.83160446 460.67035004 172.83160446 460.67035004 171.84060669 459.71783447 C169.21792044 457.27008674 166.40387517 455.41303031 163.40234375 453.44921875 C146.92298815 442.11712938 146.92298815 442.11712938 140.75 437.0625 C139.9974292 436.45172607 139.2448584 435.84095215 138.46948242 435.21166992 C136 433 136 433 134 430.42358398 C131.3182877 427.381342 128.92656975 425.10203753 125 424 C116.55469918 424.12254405 108.21600072 427.47967371 100.25 430 C97.83272392 430.71953064 95.41365664 431.43306851 92.99291992 432.14086914 C88.57104011 433.43827371 84.15432678 434.75024993 79.74400997 436.08644581 C67.55125524 439.77668364 55.26669252 443.11545358 42.9708252 446.44360352 C39.35109595 447.42701422 35.73525298 448.42367743 32.12011719 449.42382812 C29.90955428 450.03142855 27.69894482 450.63885964 25.48828125 451.24609375 C24.48040054 451.52666122 23.47251984 451.8072287 22.43409729 452.09629822 C21.04613197 452.47486717 21.04613197 452.47486717 19.63012695 452.86108398 C18.82783157 453.0823143 18.02553619 453.30354462 17.19892883 453.53147888 C15 454 15 454 11 454 C8.01160497 444.11931656 5.04548239 434.23213486 2.09370422 424.3404541 C0.2233845 418.07742673 -1.65709121 411.8175738 -3.54736328 405.56054688 C-5.62266304 398.69052702 -7.68554013 391.81688361 -9.73713493 384.93974686 C-10.88690321 381.08727258 -12.04222244 377.23665452 -13.21057129 373.38977051 C-14.32839939 369.70847877 -15.43116382 366.02298918 -16.523283 362.333992 C-16.93248544 360.96131272 -17.34702716 359.59021206 -17.76729012 358.2208786 C-18.34867777 356.32350357 -18.90877853 354.41964583 -19.46801758 352.515625 C-19.78934158 351.44602539 -20.11066559 350.37642578 -20.44172668 349.27441406 C-21.56151091 342.7065966 -19.84853307 336.91934462 -17.81030273 330.69555664 C-17.58892136 330.01278152 -17.36753998 329.33000641 -17.13945007 328.62654114 C-16.4109631 326.38546381 -15.67232831 324.1478743 -14.93359375 321.91015625 C-14.41544926 320.32259553 -13.89797063 318.73481735 -13.38111877 317.14683533 C-12.01780755 312.96389786 -10.6459749 308.78380532 -9.27215576 304.60430908 C-7.90522021 300.44152801 -6.54554028 296.27638129 -5.18554688 292.11132812 C-4.65077478 290.47455597 -4.11599495 288.83778635 -3.58120728 287.20101929 C-2.52962378 283.98189323 -1.47891504 280.76248337 -0.42880249 277.5428772 C0.08142348 275.97924932 0.59170705 274.41564023 1.10205078 272.85205078 C1.34863245 272.09636621 1.59521412 271.34068165 1.84926796 270.56209755 C3.41326545 265.77574575 4.99990606 260.99751984 6.59716797 256.22216797 C7.34485555 253.95935251 8.09242382 251.69649763 8.83984375 249.43359375 C9.35303917 247.92733177 9.35303917 247.92733177 9.87660217 246.39064026 C10.17634445 245.47596481 10.47608673 244.56128937 10.78491211 243.61889648 C11.04614365 242.83997543 11.30737518 242.06105438 11.57652283 241.25852966 C12.20112684 237.92733076 11.74798578 235.16452172 9.91186523 232.3059082 C9.46528564 231.80921631 9.01870605 231.31252441 8.55859375 230.80078125 C8.06069336 230.23568848 7.56279297 229.6705957 7.04980469 229.08837891 C6.51774414 228.50233887 5.98568359 227.91629883 5.4375 227.3125 C4.34632917 226.07799464 3.25649213 224.84230912 2.16796875 223.60546875 C1.36238525 222.69547119 1.36238525 222.69547119 0.54052734 221.76708984 C-2.77946622 217.95883098 -5.88485891 213.97638598 -9 210 C-7.20953589 205.86281109 -4.83902629 204.33679861 -1 202 C-1.639375 201.360625 -2.27875 200.72125 -2.9375 200.0625 C-8.96875 194.03125 -8.96875 194.03125 -15 188 C-13.5741914 184.54804233 -11.90253666 182.8985744 -8.875 180.75 C-7.78832031 179.96882813 -7.78832031 179.96882813 -6.6796875 179.171875 C-6.12539063 178.78515625 -5.57109375 178.3984375 -5 178 C-8.59161046 174.18181598 -12.57600984 171.52365835 -16.953125 168.68359375 C-17.62859375 168.12800781 -18.3040625 167.57242188 -19 167 C-19 166.01 -19 165.02 -19 164 C-16.81078123 162.21474422 -14.48539383 160.80337115 -12.09179688 159.30737305 C-11.05635742 158.66022339 -11.05635742 158.66022339 -10 158 C-10.47224031 149.72651774 -11.94775591 141.77984709 -13.72903824 133.7039299 C-14.20661986 131.53457521 -14.67449439 129.36332045 -15.13986206 127.1913147 C-16.46244147 121.02459583 -17.79862897 114.86090439 -19.14892578 108.70019531 C-19.9789786 104.90989071 -20.79525258 101.11682632 -21.60326767 97.3217659 C-21.91141219 95.8878581 -22.22473335 94.45505169 -22.5435524 93.02347946 C-25.778016 78.49068096 -23.60760902 68.93013668 -18.90625 55.09765625 C-18.39366313 53.56856349 -17.88183471 52.03921629 -17.37072754 50.5096283 C-16.0311211 46.50794232 -14.68049239 42.51006085 -13.32769775 38.51281738 C-12.22199225 35.23948555 -11.12420495 31.96352475 -10.02680206 28.68740177 C-8.7183521 24.78162332 -7.40661373 20.87695305 -6.09375 16.97265625 C-5.84325394 16.22759386 -5.59275787 15.48253147 -5.33467102 14.71489143 C-4.62786335 12.61540116 -3.91885708 10.51666852 -3.20898438 8.41821289 C-2.80562866 7.22402237 -2.40227295 6.02983185 -1.98669434 4.79945374 C-1 2 -1 2 0 0 Z " fill="#F5841B" transform="translate(27,13)"/>
<path d="M0 0 C0.99 0.33 1.98 0.66 3 1 C4.27189636 3.79309082 4.27189636 3.79309082 5.54370117 7.58007812 C5.77822495 8.2680246 6.01274872 8.95597107 6.25437927 9.6647644 C7.02949194 11.94966643 7.78674064 14.24003445 8.54296875 16.53125 C9.07610788 18.12273885 9.60991548 19.7140039 10.1443634 21.30505371 C11.26424992 24.64837735 12.37521718 27.99450382 13.48022461 31.34277344 C14.89195601 35.61774754 16.32634827 39.88469702 17.76780224 44.14972687 C18.87649587 47.43922673 19.972307 50.73291032 21.0644474 54.02793884 C21.58785319 55.60162815 22.11530995 57.17397644 22.64699364 58.74488831 C27.74038798 73.8349146 26.83814971 84.09951092 23.5 99.50390625 C23.14048065 101.19481297 22.7817694 102.8858917 22.42382812 104.57713318 C21.48492911 109.0027329 20.53515127 113.42592746 19.58300781 117.84869385 C18.61119492 122.37232415 17.64980073 126.89816663 16.6875 131.42382812 C14.80179674 140.28473488 12.90458113 149.14313316 11 158 C11.59296875 158.29003906 12.1859375 158.58007812 12.796875 158.87890625 C15.73024556 160.37159659 18.36623317 162.02467488 21 164 C21 164.99 21 165.98 21 167 C18.86823845 168.80672648 16.76665023 170.44380072 14.5 172.0625 C12.28056665 173.66132257 10.13753722 175.28820851 8 177 C8 177.66 8 178.32 8 179 C10.26656044 180.86631465 12.6427093 182.53946667 15.03125 184.24609375 C15.6809375 184.82488281 16.330625 185.40367187 17 186 C17 186.99 17 187.98 17 189 C14.51091812 191.45944996 11.93013818 193.71022051 9.265625 195.97265625 C7.79310929 197.2593545 6.39098678 198.62557259 5 200 C5 200.99 5 201.98 5 203 C6.5354878 204.46090788 6.5354878 204.46090788 8.5 205.6875 C9.1496875 206.12449219 9.799375 206.56148437 10.46875 207.01171875 C10.9740625 207.33785156 11.479375 207.66398438 12 208 C9.95953274 211.63177507 7.71381615 214.58268448 4.875 217.625 C0.68976507 222.17952036 -3.21324024 226.90344288 -7.0546875 231.75 C-9 234 -9 234 -12 236 C-14.81216942 235.31387989 -17.40410488 234.51916941 -20.125 233.5625 C-21.85549342 232.98444298 -23.58733772 232.41041872 -25.3203125 231.83984375 C-26.24360352 231.53546387 -27.16689453 231.23108398 -28.11816406 230.91748047 C-33.04060682 229.35033883 -38.01919211 227.99281915 -43 226.625 C-51.94508966 224.15382067 -60.85681631 221.58948764 -69.75 218.9375 C-77.03967785 216.76419932 -84.33036093 214.59858789 -91.64526367 212.51147461 C-93.4006384 212.01032918 -95.15475401 211.50474869 -96.9074707 210.99438477 C-100.56060067 209.9370788 -104.18765289 208.92860235 -107.9140625 208.1640625 C-117.63500514 205.98708865 -123.23253617 201.2479258 -130.29296875 194.5859375 C-132.9657083 192.10279732 -135.76251461 189.77483139 -138.5625 187.4375 C-139.63724796 186.53057469 -140.711468 185.62302339 -141.78515625 184.71484375 C-142.31512207 184.26737793 -142.84508789 183.81991211 -143.39111328 183.35888672 C-146.09572289 181.07453814 -148.79772127 178.78710492 -151.5 176.5 C-152.58332099 175.58331874 -153.66665432 174.66665207 -154.75 173.75 C-161.25 168.25 -161.25 168.25 -162.87695312 166.87329102 C-163.95370187 165.9622333 -165.03052407 165.05126238 -166.10742188 164.14038086 C-168.91712669 161.76362601 -171.72530795 159.38510268 -174.53125 157.00390625 C-175.11197266 156.51148438 -175.69269531 156.0190625 -176.29101562 155.51171875 C-177.39435822 154.57608423 -178.49725535 153.63992403 -179.59960938 152.703125 C-181.97699548 150.68797827 -184.34254696 148.75379437 -186.875 146.93359375 C-187.57625 146.29550781 -188.2775 145.65742188 -189 145 C-189 141 -189 141 -187.6809082 139.60644531 C-187.06046631 139.18459961 -186.44002441 138.76275391 -185.80078125 138.328125 C-185.09695313 137.83699219 -184.393125 137.34585938 -183.66796875 136.83984375 C-182.89066406 136.31519531 -182.11335938 135.79054687 -181.3125 135.25 C-179.65040021 134.09132467 -177.99032448 132.92974175 -176.33203125 131.765625 C-175.02032959 130.84813477 -175.02032959 130.84813477 -173.68212891 129.91210938 C-169.20323403 126.71907236 -164.8566304 123.35690007 -160.5 120 C-153.35859174 114.51912701 -146.14114487 109.17413586 -138.81738281 103.94018555 C-132.87503811 99.67528512 -127.05419675 95.2630935 -121.25 90.8125 C-115.00749709 86.02626273 -108.7354612 81.3166591 -102.30444336 76.78735352 C-96.35986528 72.58438835 -90.55817317 68.19420005 -84.74291992 63.81494141 C-78.93740728 59.44557836 -73.10564766 55.11441328 -67.25 50.8125 C-61.47765904 46.57082483 -55.72378454 42.30698491 -50 38 C-44.25237461 33.67650126 -38.47923247 29.3892361 -32.6875 25.125 C-31.9030249 24.5470166 -31.1185498 23.9690332 -30.31030273 23.37353516 C-26.1172815 20.28654877 -21.91773087 17.20881877 -17.7109375 14.140625 C-16.84895752 13.5101123 -15.98697754 12.87959961 -15.09887695 12.22998047 C-13.44849295 11.02297136 -11.7960878 9.81871937 -10.14135742 8.61767578 C-6.49725269 5.94918601 -3.06285147 3.34871761 0 0 Z " fill="#763D16" transform="translate(483,13)"/>
<path d="M0 0 C0.66 0 1.32 0 2 0 C2.52464844 0.52851563 3.04929687 1.05703125 3.58984375 1.6015625 C6.95031138 4.94569074 10.73156492 7.59427087 14.5625 10.375 C16.28517588 11.63538984 18.00783158 12.89580726 19.73046875 14.15625 C21.04797119 15.11724609 21.04797119 15.11724609 22.39208984 16.09765625 C26.39220301 19.01554446 30.38573045 21.9423069 34.375 24.875 C35.14875977 25.4436377 35.92251953 26.01227539 36.71972656 26.59814453 C42.80166779 31.08279565 48.81296701 35.65590868 54.8125 40.25 C61.03467144 45.01408732 67.28910816 49.70043388 73.69580078 54.21289062 C79.64040445 58.41561948 85.44192118 62.805871 91.25708008 67.18505859 C97.06259272 71.55442164 102.89435234 75.88558672 108.75 80.1875 C114.52234096 84.42917517 120.27621546 88.69301509 126 93 C134.14976669 99.13044582 142.36022844 105.1771043 150.57666016 111.21777344 C154.55322518 114.14230746 158.52646344 117.07135335 162.5 120 C164.05857735 121.14845976 165.61717117 122.29689716 167.17578125 123.4453125 C175.1171875 129.296875 183.05859375 135.1484375 191 141 C190.2448716 146.31374276 187.80053303 148.3803939 183.75 151.625 C182.8065271 152.40605103 182.8065271 152.40605103 181.84399414 153.20288086 C180.53865347 154.28328117 179.22944053 155.35901914 177.91650391 156.43017578 C175.05882426 158.77092485 172.25040596 161.16833541 169.4375 163.5625 C168.36371309 164.47056298 167.28949392 165.37811506 166.21484375 166.28515625 C162.97453525 169.02104458 159.73706359 171.76027372 156.5 174.5 C155.41667901 175.41668126 154.33334568 176.33334793 153.25 177.25 C152.71375 177.70375 152.1775 178.1575 151.625 178.625 C150 180 148.375 181.375 146.75 182.75 C146.2130249 183.20439453 145.6760498 183.65878906 145.12280273 184.12695312 C144.04691725 185.03725551 142.9709095 185.94741341 141.89477539 186.85742188 C139.07143468 189.24524954 136.25069505 191.63606303 133.43359375 194.03125 C132.84835938 194.52818359 132.263125 195.02511719 131.66015625 195.53710938 C130.54348014 196.48539782 129.42754759 197.43456281 128.3125 198.38476562 C120.32359196 205.16415705 120.32359196 205.16415705 115.46484375 206.39453125 C114.14226562 206.73967773 114.14226562 206.73967773 112.79296875 207.09179688 C111.85066406 207.32962891 110.90835938 207.56746094 109.9375 207.8125 C102.72644531 209.70043361 95.58815382 211.69235236 88.5 214 C80.79078596 216.49758027 73.01979744 218.65952558 65.19140625 220.75 C58.46739854 222.56067248 51.84225232 224.59332216 45.21875 226.73901367 C36.25259422 229.61382523 27.1585883 232.02049298 18.05859375 234.4309082 C16.35696541 234.90131803 14.67485581 235.44171473 13 236 C5.30440425 227.61307413 -1.89748876 218.89010958 -9 210 C-7.49776416 205.79373966 -4.71449966 204.26099979 -1 202 C-1.639375 201.360625 -2.27875 200.72125 -2.9375 200.0625 C-8.96875 194.03125 -8.96875 194.03125 -15 188 C-13.5741914 184.54804233 -11.90253666 182.8985744 -8.875 180.75 C-7.78832031 179.96882813 -7.78832031 179.96882813 -6.6796875 179.171875 C-6.12539063 178.78515625 -5.57109375 178.3984375 -5 178 C-8.59161046 174.18181598 -12.57600984 171.52365835 -16.953125 168.68359375 C-17.62859375 168.12800781 -18.3040625 167.57242188 -19 167 C-19 166.01 -19 165.02 -19 164 C-16.81078123 162.21474422 -14.48539383 160.80337115 -12.09179688 159.30737305 C-11.05635742 158.66022339 -11.05635742 158.66022339 -10 158 C-10.47224031 149.72651774 -11.94775591 141.77984709 -13.72903824 133.7039299 C-14.20661986 131.53457521 -14.67449439 129.36332045 -15.13986206 127.1913147 C-16.46244147 121.02459583 -17.79862897 114.86090439 -19.14892578 108.70019531 C-19.9789786 104.90989071 -20.79525258 101.11682632 -21.60326767 97.3217659 C-21.91141219 95.8878581 -22.22473335 94.45505169 -22.5435524 93.02347946 C-25.778016 78.49068096 -23.60760902 68.93013668 -18.90625 55.09765625 C-18.39366313 53.56856349 -17.88183471 52.03921629 -17.37072754 50.5096283 C-16.0311211 46.50794232 -14.68049239 42.51006085 -13.32769775 38.51281738 C-12.22199225 35.23948555 -11.12420495 31.96352475 -10.02680206 28.68740177 C-8.7183521 24.78162332 -7.40661373 20.87695305 -6.09375 16.97265625 C-5.84325394 16.22759386 -5.59275787 15.48253147 -5.33467102 14.71489143 C-4.62786335 12.61540116 -3.91885708 10.51666852 -3.20898438 8.41821289 C-2.80562866 7.22402237 -2.40227295 6.02983185 -1.98669434 4.79945374 C-1 2 -1 2 0 0 Z " fill="#763D16" transform="translate(27,13)"/>
<path d="M0 0 C3.57665765 0.00638637 7.1533168 0.0068491 10.72997928 0.00802541 C17.45818855 0.0110948 24.18638096 0.01924688 30.91458291 0.0293749 C38.5933697 0.04067511 46.27215743 0.04608099 53.9509505 0.05107033 C69.70543317 0.06143488 85.45989915 0.07894618 101.21436954 0.10139394 C100.01394987 6.55585886 98.54433084 12.83572006 96.66407657 19.12434316 C96.41661685 19.96484212 96.16915713 20.80534108 95.91419864 21.67130971 C95.10445662 24.41751405 94.28846324 27.1618144 93.47218204 29.90608144 C92.90137234 31.83592737 92.33089265 33.76587094 91.76072574 35.69590688 C90.56813566 39.72950214 89.37262872 43.76221685 88.17481875 47.79426503 C86.64850908 52.9324076 85.12785813 58.07220236 83.60920787 63.21261334 C82.43209603 67.19566208 81.25277814 71.17805486 80.07273364 75.16023564 C79.51175445 77.05369481 78.95125035 78.94729481 78.39125323 80.84104466 C75.48852541 90.6504865 72.5585494 100.43139291 69.21436954 110.10139394 C64.27242097 109.48252694 59.62702033 108.50704235 54.8115375 107.1870873 C54.10607287 106.99496663 53.40060824 106.80284596 52.6737659 106.60490346 C50.35023971 105.97104535 48.02841283 105.33118491 45.70655704 104.69123769 C44.05977479 104.24064533 42.41289162 103.79042165 40.76591372 103.34054494 C36.41950691 102.15221006 32.07452365 100.95874907 27.72981143 99.76423573 C22.56757872 98.34614615 17.40352435 96.93470491 12.23973346 95.52230191 C8.03652413 94.37206165 3.83421719 93.21870546 -0.36625791 92.05851674 C-7.41074707 90.11397332 -14.45491946 88.17494935 -21.52718663 86.33349061 C-24.2683223 85.61922652 -27.00654225 84.89414827 -29.74461102 84.16822934 C-31.60281015 83.68091479 -33.46544306 83.21060651 -35.32814145 82.74078298 C-36.42383451 82.44929875 -37.51952756 82.15781453 -38.64842343 81.85749745 C-39.59909696 81.61290288 -40.54977048 81.36830831 -41.52925229 81.11630177 C-43.78563046 80.10139394 -43.78563046 80.10139394 -45.04661679 78.40321279 C-45.99695035 75.4431922 -46.38592839 72.60611562 -46.74705625 69.51618886 C-46.82537686 68.863606 -46.90369748 68.21102315 -46.98439145 67.53866506 C-47.24063074 65.38719634 -47.4859929 63.2346436 -47.73094296 61.08186269 C-47.90690411 59.5797086 -48.08341597 58.07761894 -48.26045346 56.57559133 C-48.62982126 53.42806018 -48.99409026 50.27999496 -49.35447812 47.13142323 C-49.81505785 43.10911487 -50.28577577 39.08807696 -50.76004338 35.06736207 C-51.12530009 31.9646692 -51.4863577 28.86149929 -51.84605145 25.75815701 C-52.01808797 24.27617566 -52.19112094 22.79430961 -52.36519361 21.31256604 C-52.60851845 19.23374877 -52.84648107 17.15438455 -53.08299375 15.07478261 C-53.28712384 13.30417722 -53.28712384 13.30417722 -53.49537778 11.49780202 C-53.79299166 8.01525648 -53.83569792 4.59485997 -53.78563046 1.10139394 C-35.85072578 0.20462738 -17.95498522 -0.03766733 0 0 Z " fill="#E3761B" transform="translate(404.78563046455383,356.8986060619354)"/>
<path d="M0 0 C0.33 0.99 0.66 1.98 1 3 C1.96267996 2.99861731 1.96267996 2.99861731 2.94480801 2.99720669 C18.68427988 2.9749578 34.42374616 2.95849523 50.16322994 2.94818783 C57.77524829 2.9430686 65.38725604 2.93611116 72.99926758 2.92456055 C79.64702394 2.91447807 86.29477261 2.90811494 92.94253641 2.90591151 C96.4505255 2.90462699 99.95849262 2.90168932 103.46647453 2.89426994 C120.67041684 2.8592606 137.81601757 3.14242982 155 4 C155.07365222 9.77320861 154.98216563 15.40346327 154.29736328 21.14624023 C154.06679733 23.1126371 154.06679733 23.1126371 153.83157349 25.11875916 C153.66152042 26.51541545 153.49109135 27.91202601 153.3203125 29.30859375 C153.14545599 30.76681655 152.97089043 32.22507426 152.79660034 33.68336487 C152.43235942 36.71868906 152.06365869 39.75343022 151.69189453 42.7878418 C151.21604202 46.67601731 150.75304042 50.56560353 150.2934742 54.4557333 C149.93710483 57.45810522 149.57326092 60.45953547 149.20721054 63.46074104 C149.03329179 64.89536743 148.8618771 66.33029971 148.6930275 67.76553154 C148.45688226 69.76445557 148.20941748 71.76203257 147.96142578 73.75952148 C147.82374786 74.89518051 147.68606995 76.03083954 147.54421997 77.20091248 C147 80 147 80 145 83 C142.61437806 83.88393414 140.34055029 84.59027965 137.8894043 85.2331543 C137.15540909 85.43532059 136.42141388 85.63748688 135.66517639 85.84577942 C133.22100277 86.51608482 130.77276552 87.17008517 128.32421875 87.82421875 C126.60265632 88.29300493 124.88137255 88.76281556 123.16035461 89.2335968 C118.5989435 90.47846247 114.03395849 91.7096907 109.46807861 92.93804932 C104.93950352 94.15863833 100.41417061 95.39111019 95.88867188 96.62304688 C90.59506818 98.06343031 85.30102944 99.50210543 80.00460815 100.93209839 C72.01642127 103.08931183 64.03261022 105.25876756 56.06494141 107.49072266 C55.03697999 107.77792222 55.03697999 107.77792222 53.98825169 108.07092381 C50.83732503 108.9514744 47.68792588 109.83682345 44.54093933 110.73136902 C43.46113297 111.03375992 42.3813266 111.33615082 41.26879883 111.64770508 C40.34013504 111.91086014 39.41147125 112.1740152 38.45466614 112.44514465 C36 113 36 113 32 113 C27.97006101 99.67560644 23.97819231 86.33992616 20 73 C19.80140381 72.33427223 19.60280762 71.66854446 19.39819336 70.98264313 C16.69464071 61.91920536 13.99821247 52.85369427 11.31467819 43.78430748 C10.16814008 39.90966848 9.01931829 36.03574191 7.86486816 32.16345215 C6.76107281 28.46052322 5.66390672 24.75569211 4.57159424 21.04936028 C4.16291481 19.66676631 3.75190468 18.2848589 3.33843994 16.90368843 C2.76780795 14.99602135 2.20644186 13.08558999 1.64550781 11.17504883 C1.32640442 10.09878738 1.00730103 9.02252594 0.67852783 7.91365051 C0.03577471 5.15361933 -0.1371695 2.81964724 0 0 Z " fill="#E3761B" transform="translate(6,354)"/>
<path d="M0 0 C0.03092239 0.5927623 0.06184479 1.1855246 0.09370422 1.79624939 C1.49917371 28.70234486 2.93285491 55.6064313 4.5625 82.5 C4.64934555 83.95537674 4.64934555 83.95537674 4.73794556 85.44015503 C5.43431996 97.07204902 6.26014988 108.68471469 7.27406311 120.2935791 C7.52568626 123.19500163 7.76491641 126.09719134 8 129 C8.09233414 130.09590958 8.18466827 131.19181915 8.27980042 132.32093811 C9.1123766 143.1985934 9.12838093 154.03012242 9.09765625 164.93359375 C9.09578641 166.9075568 9.09436519 168.88152032 9.09336853 170.85548401 C9.08958784 175.99933195 9.07979666 181.14315072 9.06866455 186.2869873 C9.05835368 191.55655523 9.05385038 196.82612797 9.04882812 202.09570312 C9.03816947 212.39714809 9.02114791 222.6985716 9 233 C8.67 233 8.34 233 8 233 C6.56138008 225.63805917 5.12679292 218.27534227 3.69733429 210.91161728 C3.03343649 207.49228399 2.36815826 204.07323145 1.69970703 200.65478516 C0.93109143 196.72377738 0.16851418 192.79161936 -0.59375 188.859375 C-0.83436157 187.63321472 -1.07497314 186.40705444 -1.32287598 185.14373779 C-1.65321838 183.43241669 -1.65321838 183.43241669 -1.99023438 181.68652344 C-2.18564819 180.68280701 -2.38106201 179.67909058 -2.58239746 178.6449585 C-3 176 -3 176 -3 172 C-4.09610596 171.79419312 -4.09610596 171.79419312 -5.21435547 171.58422852 C-7.7271679 171.05722061 -10.11958265 170.41139426 -12.5703125 169.65234375 C-13.45388428 169.38099609 -14.33745605 169.10964844 -15.24780273 168.83007812 C-17.21096568 168.22105617 -19.17401421 167.61166532 -21.13696289 167.00195312 C-26.81624042 165.24812966 -32.50400393 163.56961327 -38.23828125 162.00390625 C-39.43759277 161.6694751 -40.6369043 161.33504395 -41.87255859 160.99047852 C-44.19750825 160.34451764 -46.5271843 159.71526501 -48.86181641 159.10522461 C-49.93737793 158.80237549 -51.01293945 158.49952637 -52.12109375 158.1875 C-53.0639624 157.93355469 -54.00683105 157.67960938 -54.97827148 157.41796875 C-62.8922207 153.70428878 -69.0096883 146.12772115 -75.09375 140.00390625 C-75.92588013 139.17036118 -76.75801025 138.3368161 -77.61535645 137.47801208 C-80.24594935 134.84186738 -82.87302441 132.20224895 -85.5 129.5625 C-87.29403855 127.76344021 -89.08830715 125.9646098 -90.8828125 124.16601562 C-95.25787125 119.77999188 -99.63005512 115.39111858 -104 111 C-102.73270798 107.62030738 -101.28583046 104.64274992 -99.34887695 101.59960938 C-98.81684158 100.76103394 -98.28480621 99.9224585 -97.73664856 99.05847168 C-95.26009337 95.21307945 -92.7795104 91.37053584 -90.28295898 87.53808594 C-88.98273466 85.53337878 -87.69213266 83.52239351 -86.41186523 81.50488281 C-78.69586127 69.34899952 -71.13343948 58.97194957 -59.6031189 50.21923828 C-57.18215946 48.37799841 -54.84689191 46.43417299 -52.5 44.5 C-51.63375 43.79875 -50.7675 43.0975 -49.875 42.375 C-46.36452361 39.47504125 -42.93167273 36.49241862 -39.5 33.5 C-35.21783896 29.76595557 -30.91668732 26.07541354 -26.5 22.5 C-21.97182616 18.8285077 -17.53532431 15.06144419 -13.125 11.25 C-12.17850586 10.43499023 -12.17850586 10.43499023 -11.21289062 9.60351562 C-8.4237299 7.18346475 -5.70388166 4.74613421 -3.1171875 2.109375 C-1 0 -1 0 0 0 Z " fill="#E3751B" transform="translate(219,156)"/>
<path d="M0 0 C3.49916385 0.62497374 6.70585705 1.5242931 10.03833008 2.75561523 C11.5199765 3.30007294 11.5199765 3.30007294 13.03155518 3.85552979 C14.63435333 4.45104645 14.63435333 4.45104645 16.26953125 5.05859375 C17.96042877 5.68202667 17.96042877 5.68202667 19.68548584 6.3180542 C22.75562217 7.45109628 25.8244696 8.58754388 28.89268875 9.72576523 C31.47060352 10.6814798 34.04950876 11.6345061 36.62839413 12.58759785 C52.06973658 18.29495493 67.50655142 24.01620077 82.91120911 29.82191467 C85.85947405 30.92456781 88.81217937 32.01248907 91.76786804 33.09495544 C100.5768664 36.34172636 109.32165011 39.60763655 117.85651779 43.52827644 C151.91616946 59.16777853 184.32205494 61.22878838 221.08899689 60.79837036 C224.91203546 60.75403559 228.73471913 60.73537678 232.55798161 60.72404861 C276.23634749 60.58337662 315.19676885 57.58392512 354.75611877 37.5039978 C364.15835068 32.73755573 373.72381317 28.83289745 383.62109375 25.2109375 C384.35817566 24.94089653 385.09525757 24.67085556 385.85467529 24.39263153 C389.51090648 23.05644116 393.17067386 21.73030914 396.8324585 20.40942383 C403.38202396 18.04189163 409.8942808 15.57553062 416.41015625 13.1171875 C418.16779297 12.45870819 418.16779297 12.45870819 419.9609375 11.78692627 C425.44074859 9.73257949 430.90834235 7.6535741 436.35498047 5.51269531 C437.33413925 5.13033722 438.31329803 4.74797913 439.3221283 4.35403442 C441.13274253 3.64490276 442.94040728 2.92817321 444.74440002 2.20236206 C445.92557655 1.74085251 445.92557655 1.74085251 447.13061523 1.27001953 C447.8105101 0.99884308 448.49040497 0.72766663 449.19090271 0.44827271 C451 0 451 0 454 1 C445.59209807 7.33201994 437.16380338 13.63475511 428.6875 19.875 C427.892229 20.46055664 427.09695801 21.04611328 426.27758789 21.64941406 C422.290995 24.58298246 418.30139854 27.51239275 414.30859375 30.4375 C405.87063282 36.62686408 397.4960942 42.8877647 389.1875 49.25 C382.96532856 54.01408732 376.71089184 58.70043388 370.30419922 63.21289062 C365.23493773 66.79676816 360.27201881 70.51617462 355.3125 74.25 C348.71095713 79.21992576 342.09339906 84.16555655 335.4375 89.0625 C334.26610474 89.92464111 334.26610474 89.92464111 333.07104492 90.80419922 C329.15835075 93.68204781 325.24234125 96.55532886 321.32421875 99.42578125 C312.88119874 105.6192617 304.50136716 111.88393605 296.1875 118.25 C286.32532796 125.79882305 276.36018268 133.14467793 266 140 C267.01219941 134.36631119 268.55844771 129.48853345 270.99609375 124.31640625 C272.04030228 121.9070068 272.78563817 119.5256399 273.5 117 C274.41379073 113.79190673 275.45886982 110.83168954 276.875 107.8125 C279.32491681 102.53720021 281.04301028 97.03087811 282.84375 91.51171875 C283.90464357 88.28961293 285.03617532 85.11784945 286.25390625 81.953125 C287.52687132 78.6207557 288.72494891 75.2609747 289.9375 71.90625 C291.26955967 68.26267501 292.63783917 64.63242888 294 61 C249.78 60.67 205.56 60.34 160 60 C166.93 78.81 166.93 78.81 174 98 C176.79493461 105.62383003 179.58852956 113.24808358 182.375 120.875 C183.03381089 122.67709916 183.6926653 124.4791824 184.3515625 126.28125 C185.90153287 130.52065396 187.45095201 134.76025893 189 139 C185.29883494 139 184.4789845 138.10102436 181.60546875 135.8515625 C180.73978271 135.18116943 179.87409668 134.51077637 178.98217773 133.82006836 C177.59881226 132.73350952 177.59881226 132.73350952 176.1875 131.625 C174.2668672 130.13771739 172.34499225 128.65203747 170.421875 127.16796875 C169.48666016 126.44528809 168.55144531 125.72260742 167.58789062 124.97802734 C163.89198445 122.15309981 160.11194923 119.46815066 156.30810547 116.79052734 C150.36317767 112.58524032 144.55948924 108.19519114 138.74291992 103.81494141 C132.93740728 99.44557836 127.10564766 95.11441328 121.25 90.8125 C115.47765904 86.57082483 109.72378454 82.30698491 104 78 C98.25237684 73.67650294 92.47937653 69.38903774 86.6875 65.125 C85.89069824 64.53831543 85.09389648 63.95163086 84.27294922 63.34716797 C80.28789972 60.41474278 76.29984916 57.48647219 72.30859375 54.5625 C63.87063282 48.37313592 55.4960942 42.1122353 47.1875 35.75 C41.4962456 31.39241628 35.7959812 27.06821089 29.9375 22.9375 C23.99131657 18.73935122 18.14147457 14.42190669 12.3125 10.0625 C11.43779053 9.41079834 10.56308105 8.75909668 9.66186523 8.08764648 C8.84145752 7.47219971 8.0210498 6.85675293 7.17578125 6.22265625 C6.44270752 5.67359619 5.70963379 5.12453613 4.9543457 4.55883789 C3.16836371 3.13429136 1.57544139 1.65118674 0 0 Z " fill="#E2751B" transform="translate(29,14)"/>
<path d="M0 0 C4.11010703 3.51388296 8.20680703 7.04245123 12.28759766 10.59033203 C19.28063951 16.66905643 26.32109368 22.68743215 33.40722656 28.65722656 C35.56411313 30.47557054 37.71752866 32.29799732 39.87060547 34.12084961 C40.95514686 35.03882598 42.04010669 35.95630822 43.12548828 36.87329102 C45.84138278 39.16837288 48.55122853 41.46995416 51.25 43.78515625 C52.33307936 44.71123461 53.41641205 45.63701679 54.5 46.5625 C55.03044922 47.01737793 55.56089844 47.47225586 56.10742188 47.94091797 C58.8469302 50.26617943 61.62156619 52.48813549 64.53125 54.59765625 C65.11197266 55.02296631 65.69269531 55.44827637 66.29101562 55.88647461 C67.89142059 57.04631095 69.50769733 58.18415737 71.125 59.3203125 C74.24561491 62.22892912 75.8137074 64.89952256 77.75341797 68.64453125 C79.75243199 72.42175164 82.16595471 75.90423443 84.5625 79.4375 C85.32771973 80.57735352 85.32771973 80.57735352 86.10839844 81.74023438 C88.30660569 85.01404579 90.51383423 88.28169731 92.72412109 91.54736328 C93.85944566 93.22576697 94.99303873 94.90534342 96.12475586 96.58618164 C97.19304021 98.17280135 98.26535655 99.75671508 99.34204102 101.33764648 C99.82213623 102.05122314 100.30223145 102.7647998 100.796875 103.5 C101.43641113 104.44359375 101.43641113 104.44359375 102.08886719 105.40625 C103 107 103 107 103 109 C103.66 109.33 104.32 109.66 105 110 C104.18845459 110.80630859 103.37690918 111.61261719 102.54077148 112.44335938 C99.49844491 115.4674333 96.45955409 118.49494062 93.42163086 121.5234375 C92.11232826 122.82774584 90.80212531 124.13115108 89.4909668 125.43359375 C78.22254438 136.43083251 78.22254438 136.43083251 68.15625 148.50390625 C61.46683651 156.81834236 51.41006377 158.41960841 41.56738281 161.03173828 C37.59731219 162.10929783 33.65413164 163.26229496 29.7109375 164.43359375 C28.29445891 164.85295011 26.87795505 165.27222112 25.46142578 165.69140625 C24.76406311 165.89781738 24.06670044 166.10422852 23.34820557 166.31689453 C19.98924749 167.31040431 16.62944862 168.30042035 13.265625 169.27734375 C12.12899414 169.60984131 10.99236328 169.94233887 9.82128906 170.28491211 C7 171 7 171 4 171 C3.26513204 167.41781405 2.53840335 163.83401235 1.8125 160.25 C1.61591797 159.29222656 1.41933594 158.33445312 1.21679688 157.34765625 C0.75957927 155.08267056 0.31766494 152.81457639 -0.11450195 150.54467773 C-0.79630355 146.96600629 -1.55965791 143.40874246 -2.32885742 139.84790039 C-5.86390144 122.79544957 -6.24806089 107.24729759 -4.9375 89.9375 C-4.77358342 87.43307334 -4.61297965 84.92842781 -4.45556641 82.42358398 C-4.1424223 77.50991066 -3.81268325 72.59789584 -3.46533203 67.68652344 C-2.90157953 59.68631009 -2.43566058 51.68192451 -1.9928894 43.67425537 C-1.87712069 41.60048793 -1.75681274 39.52703427 -1.63500977 37.45361328 C-0.91016735 24.97580306 -0.40967673 12.49180944 0 0 Z " fill="#E3751A" transform="translate(293,156)"/>
<path d="M0 0 C-0.41856527 10.36309886 -1.31972664 20.63266905 -2.5 30.9375 C-2.69589722 32.6707251 -2.69589722 32.6707251 -2.89575195 34.43896484 C-3.08657349 36.0605249 -3.08657349 36.0605249 -3.28125 37.71484375 C-3.39533203 38.68542725 -3.50941406 39.65601074 -3.62695312 40.65600586 C-4 43 -4 43 -5 45 C-4.16284454 44.18768921 -3.32568909 43.37537842 -2.46316528 42.53845215 C1.07950867 39.60399738 3.78185661 39.37738936 8.41064453 39.38476562 C9.12685974 39.37921661 9.84307495 39.3736676 10.58099365 39.36795044 C12.93229519 39.35620448 15.28164785 39.38036975 17.6328125 39.40625 C19.27375196 39.4079622 20.91469415 39.40789431 22.55563354 39.40612793 C25.98706387 39.40777815 29.41783847 39.42642402 32.84912109 39.45800781 C37.24536464 39.49774764 41.64075264 39.50204408 46.0371418 39.49454498 C49.42239203 39.491475 52.80745021 39.50359571 56.19265366 39.52067566 C57.81374787 39.52770061 59.43486384 39.5308308 61.05597305 39.52998352 C63.32043043 39.53178264 65.58386433 39.5531704 67.84814453 39.58007812 C69.13576691 39.58849731 70.42338928 39.5969165 71.75003052 39.60559082 C75.16354671 40.01984767 76.62282591 40.55280324 79 43 C79 43.66 79 44.32 79 45 C79.66 45 80.32 45 81 45 C80.77280273 43.27499268 80.77280273 43.27499268 80.54101562 41.51513672 C79.97805101 37.23292428 79.42016001 32.95006335 78.86376953 28.66699219 C78.62263268 26.81622643 78.38013532 24.96563738 78.13623047 23.11523438 C77.78512203 20.44967643 77.43897236 17.78351336 77.09375 15.1171875 C76.92969666 13.88402298 76.92969666 13.88402298 76.7623291 12.62594604 C76.21812632 8.38362803 75.8793629 4.28864885 76 0 C88.23576712 5.76880993 100.43937525 11.59953685 112.6015625 17.52197266 C115.15763123 18.76587995 117.71551965 20.00599419 120.2734375 21.24609375 C121.93500769 22.05445762 123.59647008 22.86304312 125.2578125 23.671875 C126.37834518 24.21421783 126.37834518 24.21421783 127.52151489 24.76751709 C132.78314506 27.33659326 137.90622181 30.11314207 143 33 C138.7412158 38.67837894 133.6055965 42.69270242 128 47 C126.97132813 47.80953125 125.94265625 48.6190625 124.8828125 49.453125 C118.98979402 54.07583492 113.00462581 58.41752511 106.73046875 62.515625 C100.34274419 66.72601049 94.1061467 71.16407291 87.83251953 75.54150391 C86.86556152 76.21616699 85.89860352 76.89083008 84.90234375 77.5859375 C84.03085693 78.1948584 83.15937012 78.8037793 82.26147461 79.43115234 C77.6979719 82.59698074 75.40712029 83.28902811 69.81665039 83.44921875 C68.7230143 83.48338898 68.7230143 83.48338898 67.60728455 83.51824951 C59.92270852 83.74102006 52.23424641 83.83472612 44.54711914 83.91992188 C40.91916697 83.96412486 37.29544623 84.04707605 33.66918945 84.16601562 C-3.05622198 85.34195835 -3.05622198 85.34195835 -17.19702148 72.60400391 C-17.84460419 71.98156799 -18.49218689 71.35913208 -19.15939331 70.71783447 C-21.78207956 68.27008674 -24.59612483 66.41303031 -27.59765625 64.44921875 C-45.42566177 52.18972531 -45.42566177 52.18972531 -52.62890625 46.02734375 C-54.41537409 44.4998696 -56.24333924 43.02073281 -58.08984375 41.56640625 C-59.11207031 40.76074219 -60.13429687 39.95507812 -61.1875 39.125 C-62.10917969 38.40570313 -63.03085938 37.68640625 -63.98046875 36.9453125 C-64.64691406 36.30335938 -65.31335938 35.66140625 -66 35 C-66 34.01 -66 33.02 -66 32 C-52.40500284 25.14914586 -38.78813347 18.36690035 -25.03442383 11.83935547 C-18.51343641 8.74014709 -12.03896359 5.56002582 -5.60498047 2.28393555 C-1.10009779 0 -1.10009779 0 0 0 Z " fill="#BEAB9B" transform="translate(218,402)"/>
<path d="M0 0 C4.01623234 0.12044824 8.03232648 0.24476928 12.04833984 0.37231445 C14.06732306 0.43568954 16.08639534 0.49620712 18.10546875 0.55664062 C24.42298693 0.75892569 30.71943868 1.02330436 37.0234375 1.50390625 C44.51093459 2.07265072 51.99484905 2.29876954 59.5 2.5 C68.25777941 2.73481633 76.97378438 3.093252 85.70996094 3.75927734 C90.59448242 4.11666367 95.48257339 4.34497957 100.375 4.5625 C101.3134375 4.60568359 102.251875 4.64886719 103.21875 4.69335938 C105.47909981 4.79715095 107.73950771 4.89936829 110 5 C110.2794355 11.32999019 109.21099999 17.19577128 108.03125 23.40234375 C107.8314856 24.48004532 107.63172119 25.55774689 107.42590332 26.66810608 C106.78979204 30.09235919 106.14502633 33.51491621 105.5 36.9375 C105.06583309 39.26616925 104.63223306 41.59494427 104.19921875 43.92382812 C103.13937471 49.61712674 102.07243036 55.30905958 101 61 C97.2883995 61.82610968 95.06878534 62.02456087 91.4296875 60.84765625 C90.54611572 60.56986328 89.66254395 60.29207031 88.75219727 60.00585938 C87.80272217 59.69455078 86.85324707 59.38324219 85.875 59.0625 C83.81968479 58.40543887 81.76366281 57.75058546 79.70703125 57.09765625 C78.62244629 56.75234863 77.53786133 56.40704102 76.42041016 56.05126953 C72.88371875 54.96426074 69.33118635 53.96975856 65.76171875 52.99609375 C64.56240723 52.66279053 63.3630957 52.3294873 62.12744141 51.98608398 C59.80216187 51.34289784 57.47248748 50.71533467 55.13818359 50.10571289 C53.52484131 49.65119751 53.52484131 49.65119751 51.87890625 49.1875 C50.9360376 48.93355469 49.99316895 48.67960937 49.02172852 48.41796875 C41.1321457 44.71572289 34.99888081 37.15826631 28.90625 31.07421875 C28.07411987 30.24541702 27.24198975 29.4166153 26.38464355 28.56269836 C24.64216789 26.8252523 22.90101467 25.08647904 21.16113281 23.34643555 C18.48522495 20.67273715 15.80139143 18.00716343 13.1171875 15.34179688 C11.42138688 13.64892632 9.72605712 11.95558394 8.03125 10.26171875 C7.22514282 9.46279709 6.41903564 8.66387543 5.58850098 7.84074402 C4.85353394 7.10270035 4.11856689 6.36465668 3.36132812 5.60424805 C2.71039185 4.95473679 2.05945557 4.30522552 1.38879395 3.6360321 C0 2 0 2 0 0 Z " fill="#CC6116" transform="translate(115,265)"/>
<path d="M0 0 C-0.94695967 1.11344822 -1.89516554 2.22583664 -2.84388733 3.33778381 C-3.37178391 3.95735993 -3.8996805 4.57693605 -4.44357395 5.21528721 C-6.50732902 7.58174083 -8.6976453 9.79241718 -10.93359375 11.99609375 C-11.83013672 12.88490234 -12.72667969 13.77371094 -13.65039062 14.68945312 C-15.50452992 16.51760589 -17.35869647 18.345731 -19.21289062 20.17382812 C-25.09060512 26.00090904 -30.92626252 31.82570821 -35.84375 38.50390625 C-42.53316349 46.81834236 -52.58993623 48.41960841 -62.43261719 51.03173828 C-66.40268781 52.10929783 -70.34586836 53.26229496 -74.2890625 54.43359375 C-75.70554109 54.85295011 -77.12204495 55.27222112 -78.53857422 55.69140625 C-79.23593689 55.89781738 -79.93329956 56.10422852 -80.65179443 56.31689453 C-84.01075251 57.31040431 -87.37055138 58.30042035 -90.734375 59.27734375 C-91.87100586 59.60984131 -93.00763672 59.94233887 -94.17871094 60.28491211 C-97 61 -97 61 -100 61 C-102.75536179 47.56871876 -105.39122765 34.1208469 -107.8125 20.625 C-108.03123779 19.41360352 -108.24997559 18.20220703 -108.4753418 16.95410156 C-108.67554932 15.82713867 -108.87575684 14.70017578 -109.08203125 13.5390625 C-109.25968018 12.54084473 -109.4373291 11.54262695 -109.62036133 10.51416016 C-110 8 -110 8 -110 5 C-106.83404433 3.41702216 -103.38906117 3.66743499 -99.90454102 3.51928711 C-99.06670074 3.4801268 -98.22886047 3.44096649 -97.3656311 3.40061951 C-94.5785775 3.27162297 -91.79127597 3.14930474 -89.00390625 3.02734375 C-87.05686729 2.93936569 -85.10984087 2.85110974 -83.16282654 2.7625885 C-79.06464974 2.57730969 -74.96634389 2.39530218 -70.86791992 2.21557617 C-65.66811314 1.98731504 -60.46869356 1.7513274 -55.2693491 1.51279354 C-51.23603541 1.32861871 -47.2025431 1.1486187 -43.16898918 0.96978951 C-41.25599597 0.88451394 -39.34305614 0.79803051 -37.43017769 0.71021843 C-24.94396179 0.1400453 -12.49918347 -0.10825558 0 0 Z " fill="#CC6016" transform="translate(397,266)"/>
<path d="M0 0 C1.87993652 -0.00861053 1.87993652 -0.00861053 3.79785156 -0.01739502 C7.10921031 -0.02249814 10.4188495 0.00145925 13.72998047 0.03515625 C15.74892254 0.04686875 17.76630013 0.0351941 19.78515625 0.01464844 C23.69083185 -0.02257574 27.59422578 -0.01788933 31.5 0 C32.69399414 -0.01214539 33.88798828 -0.02429077 35.11816406 -0.0368042 C41.76213462 0.07425192 46.73407744 0.79720201 52.08517456 4.93890381 C55.01360841 8.20708172 55.38858398 11.43790845 55.72265625 15.703125 C55.8700248 16.96751404 55.8700248 16.96751404 56.02037048 18.25744629 C56.32290043 20.93471779 56.56803068 23.6137458 56.8125 26.296875 C57.00868961 28.09806091 57.20852585 29.89885357 57.41210938 31.69921875 C58.8827264 45.12187083 58.8827264 45.12187083 58.75 51.796875 C58.09 51.796875 57.43 51.796875 56.75 51.796875 C55.92036743 50.82288757 55.92036743 50.82288757 55.07397461 49.82922363 C51.86514708 47.02305862 49.79072415 47.28968864 45.56640625 47.27929688 C44.49252151 47.26878296 44.49252151 47.26878296 43.39694214 47.25805664 C41.03506457 47.24047952 38.67438933 47.25209725 36.3125 47.265625 C34.66869884 47.26292998 33.02489923 47.25904747 31.38110352 47.25402832 C27.93783372 47.2481337 24.49497929 47.25669472 21.05175781 47.27539062 C16.63966307 47.29818058 12.22854158 47.28505725 7.81648254 47.26110077 C4.42265499 47.24664157 1.02905791 47.25124924 -2.36477661 47.26161194 C-3.99146642 47.26427891 -5.61817721 47.26101047 -7.24484253 47.25169373 C-9.51926028 47.24152558 -11.79210554 47.25703023 -14.06640625 47.27929688 C-16.00688843 47.28407043 -16.00688843 47.28407043 -17.98657227 47.28894043 C-21.79362591 47.88148738 -22.80839921 48.93043923 -25.25 51.796875 C-25.91 51.796875 -26.57 51.796875 -27.25 51.796875 C-26.76143039 45.49212953 -26.2073522 39.19557823 -25.6081543 32.90039062 C-25.41215617 30.76011045 -25.23098815 28.61841677 -25.06518555 26.47558594 C-24.82362503 23.38762542 -24.52842364 20.30874666 -24.22265625 17.2265625 C-24.15973892 16.27321014 -24.09682159 15.31985779 -24.03199768 14.33761597 C-23.60970145 10.51288894 -23.11923295 7.81599657 -20.58517456 4.8449707 C-14.2641263 -0.05126781 -7.727087 -0.07860043 0 0 Z " fill="#171616" transform="translate(240.25,395.203125)"/>
<path d="M0 0 C-1.69189475 5.18687334 -4.78501276 9.37908612 -7.8359375 13.83984375 C-8.42333206 14.70712097 -9.01072662 15.57439819 -9.61592102 16.46795654 C-11.53123163 19.29413952 -13.45296627 22.11588597 -15.375 24.9375 C-18.01619889 28.82685349 -20.65465383 32.71806481 -23.29296875 36.609375 C-23.94995255 37.57739548 -24.60693634 38.54541595 -25.28382874 39.54277039 C-29.32820671 45.50860108 -33.33513973 51.49719388 -37.30078125 57.515625 C-37.76947632 58.22566177 -38.23817139 58.93569855 -38.72106934 59.66725159 C-40.47086509 62.31914685 -42.22026743 64.9711614 -43.95599365 67.6322937 C-45.1146388 69.40846991 -46.28110483 71.17926168 -47.44921875 72.94921875 C-48.41347778 74.42394653 -48.41347778 74.42394653 -49.3972168 75.9284668 C-50.19059448 76.95387573 -50.19059448 76.95387573 -51 78 C-51.66 78 -52.32 78 -53 78 C-54.37400646 75.25198708 -54.48641839 72.69718376 -54.84790039 69.6418457 C-54.92607498 68.9895549 -55.00424957 68.3372641 -55.08479309 67.66520691 C-55.34290273 65.50249949 -55.59545641 63.33918522 -55.84765625 61.17578125 C-56.02537656 59.67080722 -56.20331231 58.16585861 -56.38145447 56.66093445 C-56.75458133 53.50121102 -57.12494073 50.34117826 -57.4934082 47.1809082 C-57.96442704 43.14315516 -58.44244376 39.10626777 -58.92260075 35.06959248 C-59.2918537 31.95828674 -59.65723241 28.84653516 -60.02148247 25.73464012 C-60.1960933 24.24704968 -60.37191531 22.75960086 -60.54899788 21.27230263 C-60.79710542 19.18368332 -61.03994644 17.09451373 -61.28149414 15.00512695 C-61.42059708 13.81869095 -61.55970001 12.63225494 -61.70301819 11.40986633 C-62.00679299 7.92200465 -62.05131567 4.49921265 -62 1 C-41.32866937 -0.11113943 -20.69329199 -0.1094705 0 0 Z " fill="#CD6116" transform="translate(413,357)"/>
<path d="M0 0 C20.69471052 -0.109478 41.3268102 -0.09341065 62 1 C62.32043571 9.57086049 61.31725448 17.9302175 60.25 26.4140625 C60.07011264 27.87944203 59.8907598 29.34488727 59.71191406 30.81039429 C59.24375476 34.63484554 58.7684229 38.45837087 58.29150391 42.28173828 C57.80451656 46.19639867 57.32443924 50.11190593 56.84375 54.02734375 C55.90252876 61.68573294 54.95371551 69.3431556 54 77 C53.01 77.33 52.02 77.66 51 78 C50.68553925 77.52204483 50.37107849 77.04408966 50.04708862 76.551651 C45.99123641 70.38760563 41.93343024 64.22484824 37.875 58.0625 C36.89824814 56.57911636 36.89824814 56.57911636 35.90176392 55.06576538 C29.01904751 44.61503354 22.12891572 34.16968269 15.17578125 23.765625 C14.65902832 22.99226303 14.14227539 22.21890106 13.60986328 21.42210388 C11.19472136 17.80951723 8.77600252 14.19937816 6.35302734 10.59204102 C5.49964431 9.3178913 4.64628963 8.0437226 3.79296875 6.76953125 C3.40377762 6.19249451 3.01458649 5.61545776 2.61360168 5.02093506 C0 1.11307228 0 1.11307228 0 0 Z " fill="#CD6116" transform="translate(99,357)"/>
<path d="M0 0 C2.97 25.08 5.94 50.16 9 76 C4.6722713 74.55742377 1.1016958 73.16479813 -2.90234375 71.12890625 C-4.02930664 70.55962402 -5.15626953 69.9903418 -6.31738281 69.40380859 C-6.90797485 69.10335632 -7.49856689 68.80290405 -8.10705566 68.49334717 C-11.22683601 66.90682599 -14.35349167 65.3339967 -17.48046875 63.76171875 C-18.42740097 63.28529938 -18.42740097 63.28529938 -19.39346313 62.79925537 C-26.39488199 59.28545151 -33.46037972 55.90846702 -40.53881836 52.55297852 C-45.72429542 50.09462485 -50.87661585 47.58552177 -56 45 C-54.72317389 41.16952167 -52.44145564 39.79712787 -49.3125 37.5 C-48.11398831 36.59974996 -46.91609127 35.69868114 -45.71875 34.796875 C-45.1 34.33345703 -44.48125 33.87003906 -43.84375 33.39257812 C-40.96713785 31.21988272 -38.14029688 28.98562681 -35.3125 26.75 C-27.63691553 20.70124638 -19.92369761 14.70093461 -12.20068359 8.71289062 C-10.62657867 7.48769425 -9.05710142 6.25654309 -7.49072266 5.02148438 C-6.67522949 4.38017578 -5.85973633 3.73886719 -5.01953125 3.078125 C-4.27421143 2.4893457 -3.5288916 1.90056641 -2.76098633 1.29394531 C-1 0 -1 0 0 0 Z " fill="#E4761B" transform="translate(351,358)"/>
<path d="M0 0 C3.43052629 2.25745453 6.79635643 4.53616333 10.03125 7.06640625 C10.75183594 7.6284375 11.47242188 8.19046875 12.21484375 8.76953125 C12.96894531 9.36121094 13.72304687 9.95289063 14.5 10.5625 C15.29535156 11.18382812 16.09070313 11.80515625 16.91015625 12.4453125 C22.16189352 16.55060311 27.40852137 20.66276398 32.63916016 24.79492188 C36.02649523 27.46701077 39.43795452 30.10448943 42.8671875 32.72265625 C44.11242187 33.67785156 44.11242187 33.67785156 45.3828125 34.65234375 C47.02210821 35.90879454 48.66524644 37.16025051 50.3125 38.40625 C51.05242187 38.97472656 51.79234375 39.54320312 52.5546875 40.12890625 C53.21968262 40.63494385 53.88467773 41.14098145 54.56982422 41.66235352 C55.04178223 42.10377686 55.51374023 42.5452002 56 43 C56 43.66 56 44.32 56 45 C20.82131968 62.68429134 20.82131968 62.68429134 6.5625 69.5 C5.64847412 69.93739502 4.73444824 70.37479004 3.79272461 70.82543945 C-0.10055371 72.6745501 -3.98630048 74.42452096 -8 76 C-7.41613227 60.95054252 -5.4720821 46.03027925 -3.68640137 31.08764648 C-3.26753593 27.57443577 -2.85373234 24.06062894 -2.43945312 20.546875 C-1.63114661 13.6973381 -0.81739077 6.84845863 0 0 Z " fill="#E4761B" transform="translate(161,358)"/>
<path d="M0 0 C-0.4439251 10.57766369 -1.40387857 21.04027058 -2.5625 31.5625 C-3.67683657 41.76740795 -4.43641957 51.73605837 -4 62 C-11.50725356 59.17133569 -18.69613462 55.81627507 -25.8956604 52.28424072 C-38.82208529 45.94601017 -51.85214928 39.86681925 -65 34 C-64 31 -64 31 -62.04833984 29.73242188 C-61.19449707 29.31541016 -60.3406543 28.89839844 -59.4609375 28.46875 C-58.49929687 27.9934082 -57.53765625 27.51806641 -56.546875 27.02832031 C-55.50015625 26.52397461 -54.4534375 26.01962891 -53.375 25.5 C-52.29992187 24.97245117 -51.22484375 24.44490234 -50.1171875 23.90136719 C-41.81747002 19.84119582 -33.48156152 15.85388189 -25.13574219 11.8894043 C-18.58106869 8.77381961 -12.07281223 5.57727093 -5.60546875 2.28417969 C-1.10008782 0 -1.10008782 0 0 0 Z " fill="#D6C0B1" transform="translate(218,402)"/>
<path d="M0 0 C12.27299302 5.78591413 24.51271391 11.6359118 36.71142578 17.5769043 C39.28950112 18.83172631 41.86934511 20.08286454 44.44921875 21.33398438 C46.11729585 22.1456107 47.78526861 22.95745148 49.453125 23.76953125 C50.21046936 24.13625443 50.96781372 24.5029776 51.74810791 24.8808136 C56.27312754 27.09023889 60.65355334 29.45646285 65 32 C65 32.66 65 33.32 65 34 C59.67093392 36.54391153 54.34045421 39.08483126 49.00878906 41.62329102 C47.20503685 42.48254749 45.40163638 43.34254285 43.59863281 44.20336914 C30.80784909 50.30936059 17.94851383 56.2359072 5 62 C4.07342543 57.76808777 4.03003851 54.09083035 4.1875 49.75 C4.40504014 38.85880543 2.84138904 28.12253197 1.42260742 17.35058594 C1.33081711 16.64764404 1.23902679 15.94470215 1.14445496 15.22045898 C0.89026414 13.28792361 0.62895255 11.3563287 0.3671875 9.42480469 C0.0267301 6.24931506 -0.06836966 3.19017727 0 0 Z " fill="#D6C0B1" transform="translate(294,402)"/>
<path d="M0 0 C5.44704137 4.54106713 10.49269958 9.3604369 15.48828125 14.390625 C16.27269089 15.17644958 17.05710052 15.96227417 17.86528015 16.77191162 C20.3500628 19.26225182 22.83133218 21.7560588 25.3125 24.25 C26.99781463 25.94033575 28.68335927 27.63044222 30.36914062 29.3203125 C34.06151692 33.02248571 37.75168805 36.72684047 41.43989563 40.4331665 C42.62516021 41.62354343 43.81217649 42.81217649 45 44 C44.34 44 43.68 44 43 44 C43.10828125 45.02867187 43.10828125 45.02867187 43.21875 46.078125 C44.39623878 59.35758174 44.09001028 72.68124836 44 86 C41.73652277 83.14579935 40.03585259 80.2955859 38.43359375 77.02734375 C37.95349854 76.05555176 37.47340332 75.08375977 36.97875977 74.08251953 C36.47014404 73.04466309 35.96152832 72.00680664 35.4375 70.9375 C31.73424401 63.4504946 27.99172712 55.99605166 24.0625 48.625 C19.4248433 39.91266111 15.01425203 31.09225255 10.64086914 22.24462891 C7.60624094 16.12606749 4.45526462 10.10763468 1.09277344 4.16210938 C0 2 0 2 0 0 Z " fill="#E4761B" transform="translate(116,268)"/>
<path d="M0 0 C0.495 0.99 0.495 0.99 1 2 C0.07885742 4.31225586 0.07885742 4.31225586 -1.39453125 7.21484375 C-1.93311768 8.28436279 -2.4717041 9.35388184 -3.02661133 10.45581055 C-3.61595459 11.60476807 -4.20529785 12.75372559 -4.8125 13.9375 C-5.40764404 15.11159424 -6.00278809 16.28568848 -6.6159668 17.49536133 C-12.3111189 28.7150146 -18.16027006 39.85277527 -24.11328125 50.9375 C-28.57366718 59.24813987 -32.86580376 67.62778566 -37.04882812 76.08154297 C-38.69024491 79.39218288 -40.34598919 82.69563769 -42 86 C-42.33 86 -42.66 86 -43 86 C-43.19841251 80.00450816 -43.34323103 74.01094348 -43.43945312 68.01293945 C-43.47957765 65.97484027 -43.53409345 63.93696986 -43.60351562 61.8996582 C-43.70106296 58.96247912 -43.74603371 56.02835219 -43.78125 53.08984375 C-43.82254028 52.18540024 -43.86383057 51.28095673 -43.90637207 50.34910583 C-43.90913099 46.42078993 -43.81717819 43.981548 -41.24610901 40.89332581 C-39.23492255 39.1276324 -37.1778986 37.5522137 -35 36 C-33.62720766 34.70699389 -32.26806855 33.3989172 -30.9375 32.0625 C-30.34839844 31.47597656 -29.75929688 30.88945312 -29.15234375 30.28515625 C-27.34228598 28.36340707 -25.62422797 26.40517437 -23.90625 24.40234375 C-19.37132644 19.18993394 -14.46859296 14.36017561 -9.5625 9.5 C-8.64017578 8.5821875 -7.71785156 7.664375 -6.76757812 6.71875 C-4.51400101 4.47684945 -2.25810925 2.237334 0 0 Z " fill="#E4761B" transform="translate(395,268)"/>
<path d="M0 0 C0.33 0 0.66 0 1 0 C2.2854018 7.06517496 3.56673446 14.13107908 4.84521484 21.19750977 C5.28079635 23.60230296 5.71731577 26.00692647 6.15478516 28.41137695 C6.78273094 31.86365487 7.40732246 35.31652515 8.03125 38.76953125 C8.22811401 39.84773636 8.42497803 40.92594147 8.62780762 42.03681946 C8.80799438 43.03763046 8.98818115 44.03844147 9.17382812 45.06958008 C9.33371216 45.95116287 9.49359619 46.83274567 9.6583252 47.74104309 C10 50 10 50 10 53 C10.66 53.33 11.32 53.66 12 54 C11.01 54.495 11.01 54.495 10 55 C9.23112173 57.55630085 9.23112173 57.55630085 8.67138672 60.71313477 C8.31123978 62.54492027 8.31123978 62.54492027 7.94381714 64.41371155 C7.68892272 65.75624142 7.43421733 67.0988072 7.1796875 68.44140625 C6.9142589 69.80775916 6.64806483 71.17396357 6.38113403 72.5400238 C5.67972819 76.14054795 4.98877198 79.74300197 4.29992676 83.34594727 C3.59553884 87.02025806 2.88135042 90.69266117 2.16796875 94.36523438 C0.76901263 101.57498529 -0.6189166 108.78680168 -2 116 C-2.33 116 -2.66 116 -3 116 C-3.04692779 105.14020772 -3.08216913 94.28044066 -3.10362434 83.42056656 C-3.11393641 78.37457883 -3.12785652 73.32866186 -3.15087891 68.28271484 C-3.37931206 16.84748286 -3.37931206 16.84748286 -1 1 C-0.67 0.67 -0.34 0.34 0 0 Z " fill="#E4761B" transform="translate(287,274)"/>
<path d="M0 0 C3.13880319 1.46106921 3.77501031 3.7204006 5.22583008 6.80664062 C5.5063472 7.3950322 5.78686432 7.98342377 6.07588196 8.58964539 C6.66646945 9.83486122 7.25023526 11.08333211 7.82763672 12.3347168 C8.70880362 14.24435666 9.60872756 16.14414841 10.51293945 18.04296875 C15.2439917 28.0690688 15.2439917 28.0690688 16.02661133 31.94335938 C8.72172534 30.76685129 1.78541025 28.70334201 -5.24682617 26.44335938 C-8.82318477 25.2964313 -12.41344123 24.20458469 -16.01245117 23.13085938 C-17.04990479 22.82043701 -18.0873584 22.51001465 -19.15625 22.19018555 C-21.21752778 21.57480915 -23.27984523 20.96290292 -25.34326172 20.35473633 C-26.28983643 20.07073975 -27.23641113 19.78674316 -28.21166992 19.49414062 C-29.05769775 19.24317627 -29.90372559 18.99221191 -30.77539062 18.73364258 C-32.97338867 17.94335938 -32.97338867 17.94335938 -35.97338867 15.94335938 C-28.61913847 12.14087774 -21.19053647 8.65162328 -13.58276367 5.39233398 C-12.94081055 5.11655518 -12.29885742 4.84077637 -11.63745117 4.55664062 C-11.01773438 4.29189941 -10.39801758 4.0271582 -9.75952148 3.75439453 C-8.04835149 2.97739799 -6.3946061 2.07751373 -4.74682617 1.17382812 C-1.97338867 -0.05664062 -1.97338867 -0.05664062 0 0 Z " fill="#263445" transform="translate(197.973388671875,295.056640625)"/>
<path d="M0 0 C4.6574173 0.93148346 8.45081318 2.40409275 12.70703125 4.37890625 C13.43242599 4.71043198 14.15782074 5.0419577 14.90519714 5.38352966 C17.20993958 6.43823494 19.51122881 7.50024534 21.8125 8.5625 C23.37933471 9.28108449 24.94638972 9.99918883 26.51367188 10.71679688 C30.34502176 12.47231373 34.1732926 14.23438767 38 16 C35.24857991 17.83428006 33.39775477 18.61172417 30.28491211 19.52807617 C29.33059799 19.81144333 28.37628387 20.09481049 27.39305115 20.38676453 C26.36486771 20.68581192 25.33668427 20.98485931 24.27734375 21.29296875 C22.6927108 21.75839836 22.6927108 21.75839836 21.07606506 22.23323059 C18.84338923 22.88720134 16.60992191 23.53847512 14.37573242 24.18725586 C10.94499184 25.18532049 7.51834539 26.19663416 4.09179688 27.20898438 C1.92471497 27.8419537 -0.24259525 28.47414201 -2.41015625 29.10546875 C-3.44036392 29.41058884 -4.47057159 29.71570892 -5.53199768 30.03007507 C-6.48315964 30.30398575 -7.43432159 30.57789642 -8.41430664 30.86010742 C-9.25353165 31.10500412 -10.09275665 31.34990082 -10.95741272 31.60221863 C-13 32 -13 32 -15 31 C-10.05 20.77 -5.1 10.54 0 0 Z " fill="#243446" transform="translate(313,295)"/>
</svg>
