<?xml version="1.0" encoding="UTF-8"?>
<svg version="1.1" xmlns="http://www.w3.org/2000/svg" width="2000" height="2000">
<path d="M0 0 C3.14022494 0.00909221 6.28042579 0.01301525 9.42066193 0.01612854 C40.47834975 0.06078196 71.26350759 0.77140216 102.16230011 4.16786194 C104.67336977 4.44264188 107.18543098 4.70515944 109.69818878 4.96400452 C119.39082103 5.96932737 129.05194119 7.13122867 138.70795441 8.44642639 C140.47815948 8.68595032 140.47815948 8.68595032 142.28412628 8.93031311 C181.82381286 14.36067999 221.13010052 22.21182482 259.70795441 32.44642639 C260.8967923 32.76079651 262.08563019 33.07516663 263.31049347 33.39906311 C279.25211569 37.64101265 295.02639079 42.27746401 310.69037628 47.45082092 C313.70895755 48.44675736 316.73154104 49.42972742 319.75482941 50.41127014 C333.89352062 55.02941257 347.83246799 60.09212602 361.70795441 65.44642639 C362.84345734 65.88390198 363.97896027 66.32137756 365.14887238 66.77210999 C377.17328745 71.41771905 389.16661399 76.12900081 401.02045441 81.19642639 C401.78833282 81.5244928 402.55621124 81.8525592 403.3473587 82.19056702 C439.14623575 97.69513138 474.23052527 115.45524065 507.70795441 135.44642639 C508.79801788 136.09498596 509.88808136 136.74354553 511.01117706 137.41175842 C555.88558771 164.12070618 598.56879903 193.9051433 638.95502472 227.0138092 C640.55177035 228.31878182 642.15677375 229.61363379 643.76264191 230.90736389 C649.34331421 235.41300584 654.6764337 240.1132442 659.95014191 244.97377014 C662.6758654 247.41765537 665.47582079 249.72083192 668.33295441 252.00892639 C672.62416494 255.46997386 676.53646851 259.12675577 680.34467316 263.11048889 C682.33420294 265.07699933 684.35985595 266.89619157 686.47748566 268.71986389 C691.47974293 273.05767258 696.07445548 277.76149194 700.70795441 282.48548889 C704.69149658 286.5157132 708.76637866 290.29886595 713.14154816 293.90345764 C714.70795441 295.44642639 714.70795441 295.44642639 715.70795441 298.44642639 C716.36795441 298.44642639 717.02795441 298.44642639 717.70795441 298.44642639 C718.97748566 299.73939514 718.97748566 299.73939514 720.52045441 301.63392639 C723.89444945 305.61623081 727.49550455 309.28516454 731.20795441 312.94642639 C735.26945138 316.96620544 739.21094382 321.0087357 742.91107941 325.36830139 C744.77809917 327.52755033 746.70743347 329.62239327 748.64936066 331.71424866 C753.48256488 336.92196036 758.06727585 342.25649243 762.52436066 347.79408264 C764.70192509 350.43910276 766.96114203 352.97855164 769.27045441 355.50892639 C772.84561016 359.44159772 776.21686706 363.47878104 779.50482941 367.65345764 C781.10638598 369.68379975 782.71913224 371.70047509 784.34857941 373.70814514 C824.26504553 422.98790097 858.93820576 476.48860198 888.70795441 532.44642639 C889.26482941 533.49169495 889.82170441 534.5369635 890.39545441 535.61390686 C898.56093627 550.99936976 906.18445772 566.56567296 913.34418488 582.4434967 C914.72728071 585.48898163 916.14267002 588.51807968 917.55951691 591.54798889 C921.43253316 599.92953566 925.00854517 608.43442624 928.58295441 616.94642639 C928.93622803 617.7868045 929.28950165 618.62718262 929.65348053 619.49302673 C937.80597254 638.9079765 945.21784097 658.41255428 951.70795441 678.44642639 C952.30197559 680.26882163 952.89600285 682.09121489 953.49018097 683.91355896 C956.26018007 692.41474294 958.99407727 700.9271725 961.70795441 709.44642639 C962.03827667 710.48057678 962.36859894 711.51472717 962.70893097 712.58021545 C979.04459498 763.99824668 990.15632217 817.92809868 996.70795441 871.44642639 C996.78854095 872.09820862 996.8691275 872.74999084 996.95215607 873.42152405 C1001.9142124 913.68955788 1004.24077687 953.96260207 1004.09906769 994.53041077 C1004.08197759 999.46009107 1004.09218037 1004.3892849 1004.1093874 1009.31894875 C1004.21370167 1044.66256678 1002.71271652 1079.98318445 998.27045441 1115.07142639 C998.05310739 1116.85659713 997.83632543 1118.64183674 997.62006378 1120.42713928 C995.9014024 1134.47083289 994.00929053 1148.48527889 991.70795441 1162.44642639 C991.53328644 1163.51086975 991.35861847 1164.57531311 991.17865753 1165.67201233 C986.09924159 1196.19369851 979.64196354 1226.54032374 971.70795441 1256.44642639 C971.23639923 1258.22968323 971.23639923 1258.22968323 970.75531769 1260.04896545 C966.5208948 1275.96230184 961.89547143 1291.70855835 956.7289505 1307.34388733 C955.70364481 1310.45952214 954.69865872 1313.58117507 953.69623566 1316.70423889 C943.15218977 1349.27400992 930.61522538 1381.15346198 916.20795441 1412.20521545 C914.74067706 1415.37571904 913.29205657 1418.55408903 911.84857941 1421.73548889 C906.53975381 1433.39419315 901.05815597 1444.88315105 894.98920441 1456.16517639 C893.21345074 1459.46890415 891.52591276 1462.80403849 889.88300323 1466.1754303 C879.2241555 1488.02198916 866.47971981 1508.78920782 853.70795441 1529.44642639 C853.132388 1530.37809631 852.55682159 1531.30976624 851.96381378 1532.26966858 C845.63964646 1542.47474874 839.0811194 1552.48360909 832.19574738 1562.3184967 C830.59045087 1564.61448692 828.99466293 1566.9169196 827.39936066 1569.21986389 C812.32841112 1590.92703649 796.55873607 1612.08506521 779.70795441 1632.44642639 C778.270267 1634.21710758 776.83277238 1635.98794531 775.39545441 1637.75892639 C767.49733945 1647.40453368 759.35678132 1656.8215961 750.93061066 1666.00892639 C749.03373677 1668.08915364 747.17402498 1670.19199537 745.33295441 1672.32142639 C737.49608032 1681.31727481 729.32237729 1689.96480861 720.78998566 1698.30189514 C718.67114024 1700.26824961 718.67114024 1700.26824961 717.70795441 1702.44642639 C717.04795441 1702.44642639 716.38795441 1702.44642639 715.70795441 1702.44642639 C715.70795441 1703.10642639 715.70795441 1703.76642639 715.70795441 1704.44642639 C715.04795441 1704.44642639 714.38795441 1704.44642639 713.70795441 1704.44642639 C713.48494659 1705.00716858 713.26193878 1705.56791077 713.03217316 1706.14564514 C711.30249142 1709.15090339 709.1264065 1710.9694867 706.52045441 1713.25892639 C701.49131144 1717.74135586 696.69245298 1722.40446456 691.95795441 1727.19642639 C687.66492788 1731.52858765 683.37963586 1735.78283166 678.71576691 1739.71986389 C676.57802091 1741.55815909 674.51076 1743.4649669 672.44477081 1745.38319397 C667.25332254 1750.20242211 661.93352076 1754.76652445 656.41107941 1759.20814514 C653.64979616 1761.49458344 651.02257219 1763.88250857 648.39545441 1766.32142639 C642.67151984 1771.58191739 636.62587142 1776.33349687 630.47553253 1781.07728577 C628.7896857 1782.38311851 627.11396002 1783.7005876 625.44232941 1785.02455139 C618.25377791 1790.71794419 610.99471096 1796.31680665 603.70795441 1801.88392639 C602.81133087 1802.57059387 601.91470734 1803.25726135 600.99091339 1803.96473694 C593.8581435 1809.40002702 593.8581435 1809.40002702 590.20795441 1811.79408264 C587.6678504 1813.35318761 587.6678504 1813.35318761 585.70795441 1815.44642639 C584.49505882 1816.3032691 583.26258154 1817.13253738 582.02045441 1817.94642639 C581.21479034 1818.47752014 580.40912628 1819.00861389 579.57904816 1819.55580139 C578.63158722 1820.17970764 577.68412628 1820.80361389 576.70795441 1821.44642639 C574.33100253 1823.02683528 571.9571085 1824.61181871 569.58295441 1826.19642639 C568.28612991 1827.06108548 566.98925407 1827.92566756 565.69232941 1828.79017639 C564.70909698 1829.44566467 564.70909698 1829.44566467 563.70600128 1830.11439514 C561.71186066 1831.44382222 559.71772003 1832.77324931 557.72357941 1834.10267639 C557.07622833 1834.5343512 556.42887726 1834.966026 555.76190948 1835.41078186 C554.48871065 1836.25936623 553.21511823 1837.1073604 551.9411087 1837.95472717 C549.22996006 1839.75878528 546.52608566 1841.57064151 543.83686066 1843.40736389 C543.03119659 1843.95650452 542.22553253 1844.50564514 541.39545441 1845.07142639 C540.71869659 1845.53806702 540.04193878 1846.00470764 539.34467316 1846.48548889 C537.70795441 1847.44642639 537.70795441 1847.44642639 535.70795441 1847.44642639 C535.37795441 1848.10642639 535.04795441 1848.76642639 534.70795441 1849.44642639 C532.78443948 1850.6895338 530.81894862 1851.86828943 528.83295441 1853.00892639 C527.76303253 1853.62896545 526.69311066 1854.24900452 525.59076691 1854.88783264 C522.70795441 1856.44642639 522.70795441 1856.44642639 519.70795441 1857.44642639 C519.37795441 1858.10642639 519.04795441 1858.76642639 518.70795441 1859.44642639 C516.4578196 1860.86986225 514.21372923 1862.20649863 511.89545441 1863.50892639 C511.26574738 1863.87308655 510.63604034 1864.2372467 509.98725128 1864.61244202 C506.91187929 1866.35827229 504.13843218 1867.64072096 500.70795441 1868.44642639 C500.37795441 1869.10642639 500.04795441 1869.76642639 499.70795441 1870.44642639 C497.58083947 1871.68093975 495.45762404 1872.82755078 493.27045441 1873.94642639 C491.89462355 1874.66358468 490.51965951 1875.38240776 489.14545441 1876.10267639 C488.41971222 1876.48294983 487.69397003 1876.86322327 486.94623566 1877.25502014 C483.94939951 1878.85019471 480.99100459 1880.50986691 478.03217316 1882.17420959 C469.05504503 1887.22384417 459.96882403 1891.94198981 450.70795441 1896.44642639 C449.75308136 1896.91419495 448.79820831 1897.3819635 447.81439972 1897.86390686 C434.86979803 1904.2002434 421.86078834 1910.36835537 408.70795441 1916.25892639 C406.97194977 1917.04154846 406.97194977 1917.04154846 405.20087433 1917.83998108 C404.13071075 1918.31467834 403.06054718 1918.78937561 401.95795441 1919.27845764 C401.01436066 1919.69845032 400.07076691 1920.11844299 399.09857941 1920.55116272 C396.70795441 1921.44642639 396.70795441 1921.44642639 393.70795441 1921.44642639 C393.37795441 1922.10642639 393.04795441 1922.76642639 392.70795441 1923.44642639 C391.01239777 1924.31263733 391.01239777 1924.31263733 388.79779816 1925.18080139 C387.57105377 1925.66685852 387.57105377 1925.66685852 386.31952667 1926.16273499 C385.43708282 1926.50385315 384.55463898 1926.84497131 383.64545441 1927.19642639 C382.74818634 1927.54914612 381.85091827 1927.90186584 380.92646027 1928.26527405 C373.97511635 1930.98672981 366.99460302 1933.63038599 359.99311066 1936.21986389 C358.00582141 1936.96184822 356.02715179 1937.72841564 354.06732941 1938.54017639 C351.68602057 1939.45485131 349.39016193 1940.05014422 346.89545441 1940.57142639 C346.10525909 1940.73900452 345.31506378 1940.90658264 344.50092316 1941.07923889 C343.90924347 1941.20041077 343.31756378 1941.32158264 342.70795441 1941.44642639 C342.70795441 1942.10642639 342.70795441 1942.76642639 342.70795441 1943.44642639 C342.06471222 1943.55212952 341.42147003 1943.65783264 340.75873566 1943.76673889 C336.70183354 1944.67058136 332.82936653 1945.98954863 328.89545441 1947.32142639 C328.12652863 1947.57794983 327.35760284 1947.83447327 326.56537628 1948.09877014 C322.98407278 1949.30160457 319.42832913 1950.54041407 315.90326691 1951.89955139 C310.48104861 1953.95410311 304.93731335 1955.62292481 299.39545441 1957.32142639 C298.2426297 1957.67511292 297.08980499 1958.02879944 295.9020462 1958.39320374 C287.03567375 1961.08976355 278.13362291 1963.54880378 269.1508255 1965.82240295 C266.48505262 1966.50336593 263.82483388 1967.20362287 261.16498566 1967.90736389 C242.81889041 1972.75536784 224.38811647 1977.55339065 205.70795441 1980.94642639 C200.010702 1981.99677639 194.35444077 1983.15051149 188.70795441 1984.44642639 C184.99413012 1985.2299076 181.27516479 1985.83055251 177.52045441 1986.38392639 C173.47307857 1986.99536761 169.46396711 1987.66885487 165.45795441 1988.50892639 C161.61785212 1989.30686972 157.81521222 1989.83525152 153.91107941 1990.20033264 C152.32790934 1990.37717611 150.75068837 1990.61065596 149.18061066 1990.88002014 C144.10298317 1991.7082046 139.00086337 1992.31566639 133.89545441 1992.94642639 C132.85324738 1993.0766217 131.81104034 1993.20681702 130.73725128 1993.34095764 C125.38286043 1994.00647515 120.02730597 1994.64857767 114.66327667 1995.23158264 C108.57100237 1995.85687585 108.57100237 1995.85687585 102.55034637 1996.93110657 C98.54490819 1997.65728428 94.53789419 1997.91156492 90.47968292 1998.19154358 C89.09743058 1998.28849895 89.09743058 1998.28849895 87.68725395 1998.38741302 C60.02671295 2000.28279999 32.50549041 2000.86144002 4.78717804 2000.71070862 C0.54201072 2000.69141015 -3.70311405 2000.68753444 -7.94831944 2000.68399429 C-13.13713232 2000.67879346 -18.32590914 2000.66438292 -23.51470184 2000.64955139 C-24.45476641 2000.64767067 -25.39483097 2000.64578995 -26.36338234 2000.64385223 C-36.76106378 2000.61685352 -47.13898402 2000.43343301 -57.52812958 1999.99623108 C-58.45728967 1999.95777699 -59.38644976 1999.91932289 -60.34376621 1999.87970352 C-65.60461918 1999.63861321 -70.82315166 1999.23996239 -76.05877018 1998.66987991 C-79.62977199 1998.31257829 -83.20804535 1998.17345714 -86.79204559 1998.00892639 C-92.32313723 1997.72326327 -97.54503977 1997.14269267 -102.95610809 1995.91127014 C-105.47560309 1995.40989906 -107.91705227 1995.18881489 -110.47954559 1995.00892639 C-123.81840173 1994.04134097 -137.1494538 1992.02455358 -150.35063934 1989.91517639 C-152.52818976 1989.5681564 -154.7083281 1989.23729021 -156.88970184 1988.91517639 C-158.07435028 1988.73986389 -159.25899872 1988.56455139 -160.47954559 1988.38392639 C-161.54560028 1988.22794983 -162.61165497 1988.07197327 -163.71001434 1987.91127014 C-166.29204559 1987.44642639 -166.29204559 1987.44642639 -168.29204559 1986.44642639 C-169.91426764 1986.28943716 -171.54025592 1986.17044837 -173.16704559 1986.07142639 C-178.45449788 1985.64064841 -183.35730995 1984.55958755 -188.46782684 1983.16517639 C-191.40043415 1982.41884203 -194.30316518 1981.91637614 -197.29204559 1981.44642639 C-210.14541893 1979.20919844 -222.70046643 1976.18995268 -235.30767059 1972.85658264 C-236.8689267 1972.44533142 -236.8689267 1972.44533142 -238.46172333 1972.02577209 C-240.52996643 1971.47999241 -242.59722102 1970.93045054 -244.66338348 1970.37684631 C-245.60947479 1970.12652649 -246.5555661 1969.87620667 -247.53032684 1969.61830139 C-248.37635468 1969.39239319 -249.22238251 1969.16648499 -250.09404755 1968.93373108 C-252.40496452 1968.3382023 -252.40496452 1968.3382023 -255.29204559 1968.44642639 C-255.29204559 1967.78642639 -255.29204559 1967.12642639 -255.29204559 1966.44642639 C-256.45824432 1966.32404602 -257.62444305 1966.20166565 -258.82598114 1966.07557678 C-262.93965961 1965.55907199 -266.7731019 1964.57439132 -270.74907684 1963.38002014 C-271.75354103 1963.08249596 -271.75354103 1963.08249596 -272.77829742 1962.77896118 C-274.88886374 1962.15319557 -276.99685458 1961.51930303 -279.10454559 1960.88392639 C-281.2303073 1960.24578866 -283.3565689 1959.60954609 -285.48435211 1958.97817993 C-287.40182546 1958.4088935 -289.3173296 1957.8329868 -291.23271942 1957.25672913 C-294.24790989 1956.31840908 -294.24790989 1956.31840908 -297.29204559 1956.44642639 C-297.29204559 1955.78642639 -297.29204559 1955.12642639 -297.29204559 1954.44642639 C-298.13992645 1954.30599915 -298.13992645 1954.30599915 -299.00493622 1954.16273499 C-306.50874972 1952.8026313 -313.5821602 1950.52551419 -320.79204559 1948.07142639 C-321.95091278 1947.68470764 -323.10977997 1947.29798889 -324.30376434 1946.89955139 C-330.28910575 1944.8841483 -336.19253593 1942.75246816 -342.03838348 1940.36268616 C-345.42927473 1938.98406902 -348.85881334 1937.71501851 -352.29204559 1936.44642639 C-380.72230011 1925.89126045 -380.72230011 1925.89126045 -390.99517059 1920.54798889 C-394.63603558 1918.80185977 -398.42721464 1917.59467327 -402.29204559 1916.44642639 C-402.29204559 1915.78642639 -402.29204559 1915.12642639 -402.29204559 1914.44642639 C-403.05130341 1914.24146545 -403.81056122 1914.03650452 -404.59282684 1913.82533264 C-405.58669403 1913.55591858 -406.58056122 1913.28650452 -407.60454559 1913.00892639 C-408.59067841 1912.74209045 -409.57681122 1912.47525452 -410.59282684 1912.20033264 C-412.50722085 1911.66563214 -414.40638174 1911.07498101 -416.29204559 1910.44642639 C-416.29204559 1909.78642639 -416.29204559 1909.12642639 -416.29204559 1908.44642639 C-417.05517059 1908.21955139 -417.81829559 1907.99267639 -418.60454559 1907.75892639 C-423.65120785 1905.96265677 -428.43619812 1903.70113671 -433.29204559 1901.44642639 C-434.62890151 1900.84141125 -435.96616193 1900.23728934 -437.30376434 1899.63392639 C-438.67498307 1899.00920063 -440.04607784 1898.38420271 -441.41704559 1897.75892639 C-442.08083221 1897.46155579 -442.74461884 1897.16418518 -443.4285202 1896.85780334 C-448.17859559 1894.67332641 -448.17859559 1894.67332641 -449.29204559 1892.44642639 C-450.61204559 1892.44642639 -451.93204559 1892.44642639 -453.29204559 1892.44642639 C-453.29204559 1891.78642639 -453.29204559 1891.12642639 -453.29204559 1890.44642639 C-454.68423309 1889.98236389 -454.68423309 1889.98236389 -456.10454559 1889.50892639 C-458.16704559 1888.82142639 -460.22954559 1888.13392639 -462.29204559 1887.44642639 C-462.29204559 1886.78642639 -462.29204559 1886.12642639 -462.29204559 1885.44642639 C-463.83892059 1885.04423889 -463.83892059 1885.04423889 -465.41704559 1884.63392639 C-468.94514869 1883.62282367 -472.09455867 1882.27356178 -475.29204559 1880.44642639 C-475.62204559 1879.78642639 -475.95204559 1879.12642639 -476.29204559 1878.44642639 C-477.94180762 1877.73896087 -479.61290688 1877.08102502 -481.29204559 1876.44642639 C-483.40515138 1875.42301506 -485.50915451 1874.38063507 -487.60454559 1873.32142639 C-488.67317841 1872.78259827 -489.74181122 1872.24377014 -490.84282684 1871.68861389 C-492.05519012 1871.07373108 -492.05519012 1871.07373108 -493.29204559 1870.44642639 C-493.29204559 1869.78642639 -493.29204559 1869.12642639 -493.29204559 1868.44642639 C-494.54308075 1868.08871155 -494.54308075 1868.08871155 -495.81938934 1867.72377014 C-499.84250684 1866.24395077 -503.22620706 1864.26162604 -506.85454559 1862.00892639 C-507.50101044 1861.61382874 -508.14747528 1861.21873108 -508.81352997 1860.81166077 C-510.07194479 1860.04227388 -511.32907531 1859.27078155 -512.5847702 1858.4969635 C-516.05841362 1856.35952783 -519.55914616 1854.27493783 -523.10454559 1852.25892639 C-524.15642059 1851.66080139 -525.20829559 1851.06267639 -526.29204559 1850.44642639 C-526.29204559 1849.78642639 -526.29204559 1849.12642639 -526.29204559 1848.44642639 C-527.07579559 1848.26080139 -527.85954559 1848.07517639 -528.66704559 1847.88392639 C-532.77986198 1846.25298196 -535.85496227 1844.04562984 -539.42095184 1841.46205139 C-545.10027664 1837.47493357 -551.08684595 1833.54902621 -557.29204559 1830.44642639 C-557.29204559 1829.78642639 -557.29204559 1829.12642639 -557.29204559 1828.44642639 C-557.94431122 1828.23759827 -558.59657684 1828.02877014 -559.26860809 1827.81361389 C-563.45919793 1825.91864433 -566.96063292 1823.27347899 -570.66704559 1820.57142639 C-576.66272065 1816.19354311 -576.66272065 1816.19354311 -583.01860809 1812.37611389 C-586.39477098 1810.3858699 -588.56928159 1808.24401445 -591.29204559 1805.44642639 C-593.87559098 1803.34108023 -596.54854517 1801.36293785 -599.22954559 1799.38392639 C-599.91983856 1798.86765686 -600.61013153 1798.35138733 -601.32134247 1797.81947327 C-604.42462269 1795.51039746 -607.52904337 1793.27247506 -610.79595184 1791.20033264 C-611.61966278 1790.62154358 -612.44337372 1790.04275452 -613.29204559 1789.44642639 C-613.29204559 1788.78642639 -613.29204559 1788.12642639 -613.29204559 1787.44642639 C-614.02294403 1787.20021545 -614.75384247 1786.95400452 -615.50688934 1786.70033264 C-618.59138424 1785.31166102 -620.41956592 1783.72002364 -622.85454559 1781.38392639 C-627.49991989 1777.06539729 -632.38840084 1773.29418095 -637.53032684 1769.58705139 C-640.35957808 1767.39408155 -642.77859948 1764.9893434 -645.29204559 1762.44642639 C-646.28204559 1761.78642639 -647.27204559 1761.12642639 -648.29204559 1760.44642639 C-648.29204559 1759.78642639 -648.29204559 1759.12642639 -648.29204559 1758.44642639 C-648.89017059 1758.15767639 -649.48829559 1757.86892639 -650.10454559 1757.57142639 C-652.29204559 1756.44642639 -652.29204559 1756.44642639 -655.29204559 1754.44642639 C-655.29204559 1753.78642639 -655.29204559 1753.12642639 -655.29204559 1752.44642639 C-656.28204559 1752.44642639 -657.27204559 1752.44642639 -658.29204559 1752.44642639 C-659.48455128 1751.04949116 -660.66826679 1749.64398882 -661.80376434 1748.20033264 C-663.9168342 1745.71012696 -666.34775451 1743.69932916 -668.83110809 1741.58705139 C-672.60797503 1738.30177666 -676.24925957 1734.87083724 -679.89946747 1731.44593811 C-682.85916973 1728.62158135 -682.85916973 1728.62158135 -686.29204559 1726.44642639 C-686.29204559 1725.78642639 -686.29204559 1725.12642639 -686.29204559 1724.44642639 C-686.95204559 1724.44642639 -687.61204559 1724.44642639 -688.29204559 1724.44642639 C-688.93142059 1723.64205139 -689.57079559 1722.83767639 -690.22954559 1722.00892639 C-692.10240491 1719.20921907 -692.10240491 1719.20921907 -695.29204559 1718.44642639 C-695.29204559 1717.78642639 -695.29204559 1717.12642639 -695.29204559 1716.44642639 C-695.95204559 1716.11642639 -696.61204559 1715.78642639 -697.29204559 1715.44642639 C-698.95871226 1713.77975972 -700.62537893 1712.11309306 -702.29204559 1710.44642639 C-703.22017059 1709.72455139 -704.14829559 1709.00267639 -705.10454559 1708.25892639 C-705.82642059 1707.66080139 -706.54829559 1707.06267639 -707.29204559 1706.44642639 C-707.29204559 1705.78642639 -707.29204559 1705.12642639 -707.29204559 1704.44642639 C-708.22017059 1704.07517639 -708.22017059 1704.07517639 -709.16704559 1703.69642639 C-711.72173276 1702.19366923 -711.99063806 1701.04924145 -713.29204559 1698.44642639 C-714.95419827 1697.10747007 -716.62168167 1695.77512497 -718.29204559 1694.44642639 C-719.90307575 1692.64935589 -721.43926653 1690.80855785 -722.96001434 1688.93470764 C-724.24284504 1687.31760095 -724.24284504 1687.31760095 -726.29204559 1686.44642639 C-726.29204559 1685.78642639 -726.29204559 1685.12642639 -726.29204559 1684.44642639 C-726.95204559 1684.44642639 -727.61204559 1684.44642639 -728.29204559 1684.44642639 C-729.62407684 1682.87220764 -729.62407684 1682.87220764 -731.10454559 1680.75892639 C-732.98387701 1678.15002651 -734.83390903 1675.78491492 -737.16704559 1673.57142639 C-737.86829559 1672.87017639 -738.56954559 1672.16892639 -739.29204559 1671.44642639 C-739.29204559 1670.78642639 -739.29204559 1670.12642639 -739.29204559 1669.44642639 C-739.88759247 1669.18603577 -740.48313934 1668.92564514 -741.09673309 1668.65736389 C-743.43438728 1667.36791051 -744.71589135 1666.11103017 -746.41704559 1664.07142639 C-746.91462372 1663.48619202 -747.41220184 1662.90095764 -747.92485809 1662.29798889 C-749.30829035 1660.42442634 -750.31597363 1658.55660101 -751.29204559 1656.44642639 C-751.95204559 1656.44642639 -752.61204559 1656.44642639 -753.29204559 1656.44642639 C-754.65923309 1654.87220764 -754.65923309 1654.87220764 -756.16704559 1652.75892639 C-756.69556122 1652.03189514 -757.22407684 1651.30486389 -757.76860809 1650.55580139 C-758.27134247 1649.85970764 -758.77407684 1649.16361389 -759.29204559 1648.44642639 C-761.84008675 1644.89117401 -761.84008675 1644.89117401 -765.29204559 1642.44642639 C-766.2984731 1640.78363312 -767.29789967 1639.11659155 -768.29204559 1637.44642639 C-769.12735809 1636.61111389 -769.12735809 1636.61111389 -769.97954559 1635.75892639 C-770.41267059 1635.32580139 -770.84579559 1634.89267639 -771.29204559 1634.44642639 C-771.29204559 1633.78642639 -771.29204559 1633.12642639 -771.29204559 1632.44642639 C-771.95204559 1632.44642639 -772.61204559 1632.44642639 -773.29204559 1632.44642639 C-774.24988531 1631.04387538 -775.19963331 1629.63513407 -776.10845184 1628.20033264 C-777.29422007 1626.44320415 -778.57366111 1624.90645405 -779.97954559 1623.32142639 C-783.66961753 1619.12302822 -786.93449551 1614.61870526 -790.24126434 1610.11830139 C-791.84181059 1608.03301828 -793.42621447 1606.27373003 -795.29204559 1604.44642639 C-796.29204559 1602.77975972 -797.29204559 1601.11309306 -798.29204559 1599.44642639 C-799.09642059 1598.67298889 -799.09642059 1598.67298889 -799.91704559 1597.88392639 C-801.57689407 1596.14863026 -801.88941043 1594.78171036 -802.29204559 1592.44642639 C-802.95204559 1592.44642639 -803.61204559 1592.44642639 -804.29204559 1592.44642639 C-805.50689945 1590.72221213 -806.64023264 1588.94007755 -807.72954559 1587.13392639 C-809.71465941 1583.85398671 -811.55254351 1581.1098312 -814.29204559 1578.44642639 C-815.01998534 1577.28327712 -815.70868934 1576.09458002 -816.35454559 1574.88392639 C-818.05847982 1571.50079285 -818.05847982 1571.50079285 -820.29204559 1569.44642639 C-820.95871226 1568.11309306 -821.62537893 1566.77975972 -822.29204559 1565.44642639 C-822.95204559 1564.78642639 -823.61204559 1564.12642639 -824.29204559 1563.44642639 C-825.40043282 1561.77527555 -826.47987871 1560.08482876 -827.54204559 1558.38392639 C-829.86611733 1554.69646393 -832.20170409 1551.02065948 -834.60454559 1547.38392639 C-835.31030731 1546.31464905 -835.31030731 1546.31464905 -836.03032684 1545.22377014 C-837.30804941 1543.31890574 -837.30804941 1543.31890574 -839.29204559 1541.44642639 C-840.29204559 1539.44642639 -841.29204559 1537.44642639 -842.29204559 1535.44642639 C-842.95204559 1534.78642639 -843.61204559 1534.12642639 -844.29204559 1533.44642639 C-844.95871226 1532.11309306 -845.62537893 1530.77975972 -846.29204559 1529.44642639 C-846.95204559 1528.78642639 -847.61204559 1528.12642639 -848.29204559 1527.44642639 C-848.29204559 1526.45642639 -848.29204559 1525.46642639 -848.29204559 1524.44642639 C-848.95204559 1524.11642639 -849.61204559 1523.78642639 -850.29204559 1523.44642639 C-851.53472815 1521.43786993 -852.71045165 1519.38772939 -853.85454559 1517.32142639 C-857.23218842 1511.26490887 -860.7493658 1505.31290962 -864.40947723 1499.42250061 C-866.23166853 1496.43970115 -867.51962894 1493.84505965 -868.29204559 1490.44642639 C-868.95204559 1490.11642639 -869.61204559 1489.78642639 -870.29204559 1489.44642639 C-871.57199231 1487.31800821 -872.76237534 1485.20326926 -873.91704559 1483.00892639 C-874.24188934 1482.41015686 -874.56673309 1481.81138733 -874.90142059 1481.19447327 C-877.29204559 1476.70954023 -877.29204559 1476.70954023 -877.29204559 1474.44642639 C-877.95204559 1474.11642639 -878.61204559 1473.78642639 -879.29204559 1473.44642639 C-880.56964168 1471.08917164 -881.75959655 1468.73694792 -882.91704559 1466.32142639 C-883.63275477 1464.85703365 -884.35024763 1463.39351152 -885.06938934 1461.93080139 C-885.43661102 1461.18378967 -885.8038327 1460.43677795 -886.18218231 1459.66712952 C-887.88194833 1456.26610186 -889.67570168 1452.91809399 -891.47954559 1449.57142639 C-892.14394088 1448.33071913 -892.80801319 1447.08983884 -893.47173309 1445.84877014 C-894.57976942 1443.77774087 -895.68886328 1441.70727635 -896.79985809 1439.63783264 C-899.39693068 1434.65363046 -901.22952221 1429.83340484 -902.61626434 1424.38002014 C-903.10966156 1422.24728582 -903.10966156 1422.24728582 -905.29204559 1421.44642639 C-906.13325739 1419.70792202 -906.89007736 1417.92824238 -907.60454559 1416.13392639 C-908.26003387 1414.51164124 -908.26003387 1414.51164124 -908.92876434 1412.85658264 C-909.37864716 1411.73123108 -909.82852997 1410.60587952 -910.29204559 1409.44642639 C-912.78922103 1403.34628815 -915.29071957 1397.31858601 -918.29204559 1391.44642639 C-919.03407641 1389.91091006 -919.76233651 1388.36869213 -920.47954559 1386.82142639 C-920.82372528 1386.08666077 -921.16790497 1385.35189514 -921.52251434 1384.59486389 C-922.29204559 1382.44642639 -922.29204559 1382.44642639 -922.29204559 1378.44642639 C-922.95204559 1378.11642639 -923.61204559 1377.78642639 -924.29204559 1377.44642639 C-925.14360809 1375.70423889 -925.14360809 1375.70423889 -925.91704559 1373.57142639 C-926.17743622 1372.87275452 -926.43782684 1372.17408264 -926.70610809 1371.45423889 C-927.29204559 1369.44642639 -927.29204559 1369.44642639 -927.29204559 1366.44642639 C-927.95204559 1366.11642639 -928.61204559 1365.78642639 -929.29204559 1365.44642639 C-929.96782684 1363.80189514 -929.96782684 1363.80189514 -930.60454559 1361.63392639 C-931.79794778 1357.81746254 -933.21166055 1354.1822538 -934.79204559 1350.50892639 C-937.49729926 1344.11246818 -939.7690296 1337.75886101 -940.85454559 1330.88392639 C-940.99892059 1330.07955139 -941.14329559 1329.27517639 -941.29204559 1328.44642639 C-941.95204559 1328.11642639 -942.61204559 1327.78642639 -943.29204559 1327.44642639 C-943.96782684 1325.72377014 -943.96782684 1325.72377014 -944.60454559 1323.38392639 C-945.93218759 1318.69337395 -947.33299755 1314.03487925 -948.79204559 1309.38392639 C-949.11821869 1308.34147766 -949.11821869 1308.34147766 -949.45098114 1307.27796936 C-951.21745348 1301.6479649 -953.01148699 1296.02633056 -954.99907684 1290.46986389 C-956.94270315 1284.9196155 -958.39217295 1279.27275791 -959.75859833 1273.55751038 C-960.65180098 1269.85736397 -961.64865474 1266.2150346 -962.76470184 1262.57533264 C-964.29876999 1257.5344791 -965.54324464 1252.45368809 -966.72954559 1247.32142639 C-967.16366196 1245.46837903 -967.59856497 1243.61551579 -968.03423309 1241.76283264 C-968.35279266 1240.40762512 -968.35279266 1240.40762512 -968.67778778 1239.02503967 C-969.53483719 1235.42720347 -970.44277402 1231.84319467 -971.35454559 1228.25892639 C-972.79612624 1222.49848783 -974.20384159 1216.73182324 -975.54204559 1210.94642639 C-975.71743866 1210.21657532 -975.89283173 1209.48672424 -976.07353973 1208.73475647 C-977.17893846 1203.86665405 -977.44946085 1199.43873868 -977.29204559 1194.44642639 C-977.95204559 1194.11642639 -978.61204559 1193.78642639 -979.29204559 1193.44642639 C-979.88970184 1190.75111389 -979.88970184 1190.75111389 -980.35454559 1187.32142639 C-980.51954559 1186.14451233 -980.68454559 1184.96759827 -980.85454559 1183.75502014 C-981.07110809 1182.11726624 -981.07110809 1182.11726624 -981.29204559 1180.44642639 C-981.86499855 1175.978809 -981.86499855 1175.978809 -982.76470184 1171.57142639 C-985.41697028 1160.88376693 -986.43420354 1149.67388063 -987.96245575 1138.77796936 C-988.25119354 1136.73541681 -988.55008209 1134.69430447 -988.85063934 1132.65345764 C-989.25018996 1129.75052797 -989.55159534 1126.86617949 -989.79204559 1123.94642639 C-990.15776459 1119.75208663 -990.67490618 1115.61211746 -991.29204559 1111.44642639 C-991.6469 1108.44881135 -991.96781722 1105.44749381 -992.29204559 1102.44642639 C-992.36987274 1101.7314801 -992.44769989 1101.01653381 -992.52788544 1100.27992249 C-995.97007535 1068.02315349 -996.59266486 1035.94816905 -996.48766327 1003.54103088 C-996.47679869 999.3156077 -996.47724198 995.09021611 -996.47766685 990.86478138 C-996.47705406 964.90896363 -996.45405885 939.07793236 -993.76079559 913.23548889 C-993.31930121 908.91194821 -993.03552358 904.59805198 -992.79204559 900.25892639 C-992.4986174 895.48170955 -991.86865785 891.04975011 -990.82329559 886.39173889 C-990.08993687 882.32591188 -989.73475717 878.24587331 -989.35454559 874.13392639 C-988.09790696 860.6900487 -986.30897311 847.29808721 -983.75298309 834.03627014 C-983.19332901 830.89177303 -982.7775633 827.7371245 -982.35454559 824.57142639 C-981.56600669 818.90380302 -980.42282569 813.41879443 -979.07720184 807.86048889 C-977.9264922 802.85690566 -977.03512281 797.81228887 -976.13579559 792.75892639 C-974.18689715 782.41757618 -971.51339645 772.22532624 -968.86748505 762.0450592 C-968.35686205 760.08033938 -967.84864953 758.11500877 -967.34087372 756.14955139 C-964.11968547 743.69960937 -960.85606581 731.26321818 -957.28813934 718.90736389 C-956.62486792 716.60282083 -955.97118784 714.29549533 -955.32720184 711.98548889 C-951.11168539 696.91798027 -945.82197838 682.26628308 -940.49907684 667.56361389 C-938.64983909 662.45152697 -936.83716128 657.32770836 -935.04204559 652.19642639 C-931.12578249 641.06197866 -926.79474443 630.14276595 -922.17681122 619.28334045 C-920.03685932 614.24852056 -917.98097243 609.19502318 -916.08110809 604.06361389 C-915.29204559 602.44642639 -915.29204559 602.44642639 -913.29204559 601.44642639 C-912.93374426 599.78494842 -912.60484663 598.1170683 -912.29204559 596.44642639 C-911.59042309 594.73824545 -910.83657264 593.0509246 -910.04204559 591.38392639 C-908.24498208 587.54404709 -906.56048749 583.6925242 -904.97954559 579.75892639 C-900.29111186 568.42489343 -894.42722629 557.62273763 -888.65288544 546.81410217 C-886.06851481 541.96242748 -883.59523152 537.06532977 -881.16704559 532.13392639 C-878.31261331 526.35268208 -875.23514393 520.76508238 -871.93267059 515.22377014 C-869.85343282 511.70391762 -867.91435795 508.1171263 -865.97173309 504.52064514 C-863.48185587 499.96359078 -860.92287336 495.44581581 -858.36284637 490.9278717 C-856.59578543 487.80135497 -854.84913395 484.68483888 -853.29204559 481.44642639 C-852.63204559 481.44642639 -851.97204559 481.44642639 -851.29204559 481.44642639 C-850.88019012 480.35201233 -850.88019012 480.35201233 -850.46001434 479.23548889 C-849.35144214 476.58826296 -848.09785021 474.26799122 -846.60454559 471.82142639 C-846.07989716 470.96033264 -845.55524872 470.09923889 -845.01470184 469.21205139 C-842.64937656 465.41465842 -840.23850731 461.64749111 -837.80767059 457.89173889 C-836.50113968 455.78377922 -835.35405559 453.68497687 -834.29204559 451.44642639 C-833.63204559 451.44642639 -832.97204559 451.44642639 -832.29204559 451.44642639 C-832.04196747 450.74002014 -831.79188934 450.03361389 -831.53423309 449.30580139 C-830.14622386 446.11076127 -828.42889153 443.54101441 -826.41704559 440.69642639 C-825.83092499 439.86377258 -825.83092499 439.86377258 -825.23296356 439.01429749 C-824.37850551 437.80167938 -823.52180211 436.59064107 -822.66313934 435.3809967 C-821.24063417 433.37388649 -819.82800025 431.36010811 -818.41704559 429.34486389 C-805.63453206 411.11471978 -792.53670863 393.0561557 -778.32329559 375.90736389 C-776.34237951 373.50740786 -774.40801239 371.07612409 -772.47954559 368.63392639 C-768.57413045 363.71862611 -764.47707988 358.97757071 -760.32793427 354.26747131 C-757.8622878 351.4350544 -755.83920113 348.90017764 -754.29204559 345.44642639 C-752.29204559 343.19642639 -752.29204559 343.19642639 -750.29204559 341.44642639 C-749.63204559 341.44642639 -748.97204559 341.44642639 -748.29204559 341.44642639 C-748.07419403 340.91017639 -747.85634247 340.37392639 -747.63188934 339.82142639 C-745.82144351 336.6122396 -743.37451144 334.10109706 -740.85454559 331.44642639 C-737.03080095 327.41357775 -737.03080095 327.41357775 -733.56938934 323.07142639 C-732.93710419 322.26705139 -732.93710419 322.26705139 -732.29204559 321.44642639 C-731.63204559 321.44642639 -730.97204559 321.44642639 -730.29204559 321.44642639 C-730.04067841 320.86763733 -729.78931122 320.28884827 -729.53032684 319.69252014 C-728.13611645 317.16358962 -726.55414201 315.51212179 -724.47954559 313.50892639 C-723.76282684 312.80896545 -723.04610809 312.10900452 -722.30767059 311.38783264 C-721.64251434 310.74716858 -720.97735809 310.10650452 -720.29204559 309.44642639 C-716.56595183 305.81121297 -713.17356686 302.01605612 -709.84282684 298.02064514 C-709.33106903 297.50115295 -708.81931122 296.98166077 -708.29204559 296.44642639 C-707.63204559 296.44642639 -706.97204559 296.44642639 -706.29204559 296.44642639 C-705.63204559 295.12642639 -704.97204559 293.80642639 -704.29204559 292.44642639 C-703.63204559 292.44642639 -702.97204559 292.44642639 -702.29204559 292.44642639 C-701.96204559 291.45642639 -701.63204559 290.46642639 -701.29204559 289.44642639 C-699.58501434 287.79798889 -699.58501434 287.79798889 -697.47954559 286.07142639 C-694.33172623 283.41914925 -691.84287983 280.68402369 -689.29204559 277.44642639 C-688.63204559 277.44642639 -687.97204559 277.44642639 -687.29204559 277.44642639 C-687.29204559 276.78642639 -687.29204559 276.12642639 -687.29204559 275.44642639 C-685.99907684 274.14173889 -685.99907684 274.14173889 -684.10454559 272.57142639 C-681.33129697 270.22559602 -678.61917684 267.83870904 -675.97173309 265.35267639 C-675.39576385 264.81239807 -674.81979462 264.27211975 -674.22637177 263.71546936 C-673.07231527 262.62931752 -671.92136798 261.53985149 -670.77373505 260.44691467 C-668.29591793 258.12496085 -666.55374166 256.53365841 -663.29204559 255.44642639 C-663.29204559 254.78642639 -663.29204559 254.12642639 -663.29204559 253.44642639 C-661.57252585 251.90790873 -659.79017062 250.43910881 -657.97954559 249.00892639 C-654.12737558 245.9940707 -654.12737558 245.9940707 -650.56157684 242.66127014 C-649.29204559 241.44642639 -649.29204559 241.44642639 -647.29204559 241.44642639 C-647.29204559 240.78642639 -647.29204559 240.12642639 -647.29204559 239.44642639 C-645.92095184 238.21205139 -645.92095184 238.21205139 -643.85454559 236.69642639 C-639.16136059 233.15439998 -634.62842542 229.44982189 -630.10454559 225.69642639 C-611.51561414 210.33639678 -592.31006636 195.79119885 -572.52397919 182.0059967 C-570.10353487 180.31470396 -567.69151861 178.6118191 -565.28032684 176.90736389 C-556.35286523 170.60656962 -547.39543924 164.42049002 -538.138237 158.61097717 C-536.10248384 157.32685358 -534.077956 156.0260378 -532.05376434 154.72377014 C-520.31971191 147.20245757 -508.36024504 140.10813561 -496.27690887 133.16371155 C-493.47388069 131.55104181 -490.6776687 129.92708604 -487.88188934 128.30189514 C-463.99374115 114.51216558 -439.35510895 101.92609026 -414.14580536 90.73573303 C-411.45389944 89.51955071 -408.78177853 88.26587634 -406.11194611 87.00212097 C-397.72515467 83.03970971 -389.22695414 79.38980327 -380.65850067 75.83924866 C-378.3580033 74.88536011 -376.0602702 73.92503527 -373.76274872 72.96400452 C-364.01690804 68.90228332 -354.20300477 65.08525474 -344.29204559 61.44642639 C-342.67713226 60.84737488 -342.67713226 60.84737488 -341.02959442 60.23622131 C-311.95749868 49.49473332 -282.35990916 39.98388565 -252.29204559 32.44642639 C-251.26240692 32.18699249 -251.26240692 32.18699249 -250.21196747 31.9223175 C-230.33244051 26.91460238 -210.44627659 22.22821908 -190.29204559 18.44642639 C-188.41556115 18.0866993 -186.53925728 17.72602888 -184.66313934 17.36439514 C-181.12419967 16.68343024 -177.58394419 16.0102622 -174.04204559 15.34486389 C-171.16318986 14.80364817 -168.28984047 14.24638948 -165.41704559 13.67298889 C-111.20421267 2.99122308 -55.13348226 -0.17221655 0 0 Z " fill="#2782FB" transform="translate(996.2920455932617,-0.4464263916015625)"/>
<path d="M0 0 C2.37028915 1.49063888 4.32628035 3.13445653 6.38671875 5.03125 C7.22460938 5.75054688 8.0625 6.46984375 8.92578125 7.2109375 C16.54853343 13.95171835 23.66053287 21.23654812 30.80029297 28.48120117 C31.58033691 29.26986572 32.36038086 30.05853027 33.1640625 30.87109375 C33.85749756 31.57613037 34.55093262 32.28116699 35.26538086 33.00756836 C37.5333294 35.1711114 39.92787925 37.08948077 42.38671875 39.03125 C44.8622556 41.38602895 47.12585383 43.689427 49.19921875 46.40625 C51.0588745 48.63783691 52.81322761 50.3216463 55.01171875 52.1875 C59.39980028 55.98815361 63.49636907 60.02767109 67.57421875 64.15625 C68.25935547 64.84589844 68.94449219 65.53554688 69.65039062 66.24609375 C72.49014718 69.10498245 75.3249378 71.96868481 78.15625 74.8359375 C80.01208375 76.66251993 81.88510999 78.36953707 83.88671875 80.03125 C86.87589014 82.56104656 89.65209376 85.2246612 92.38671875 88.03125 C93.54790518 89.19335644 94.70926599 90.35528936 95.87167358 91.51617432 C97.59718741 93.2417229 99.318919 94.9709954 101.0402832 96.70068359 C104.78376626 100.46207965 108.53039228 104.22032878 112.27807617 107.97753906 C113.88770396 109.59219845 115.49643345 111.20775385 117.10424805 112.82421875 C119.44209431 115.17428498 121.78323539 117.52102652 124.125 119.8671875 C124.83360672 120.58095551 125.54221344 121.29472351 126.27229309 122.03012085 C130.20601269 125.96427484 134.2460268 129.69267787 138.45793152 133.32608032 C141.58957257 136.09464871 144.51533314 139.05608722 147.44921875 142.03125 C148.08480713 142.670625 148.72039551 143.31 149.37524414 143.96875 C152.0557989 146.66543483 154.73026539 149.3681273 157.40527344 152.0703125 C159.37613216 154.05941103 161.3501088 156.04537897 163.32421875 158.03125 C163.91404541 158.629375 164.50387207 159.2275 165.11157227 159.84375 C168.09098076 162.84029835 171.12593609 165.71080143 174.32543945 168.47216797 C178.55095879 172.12500578 182.49629618 176.01360895 186.4296875 179.9765625 C187.52691887 181.07591629 187.52691887 181.07591629 188.64631653 182.19747925 C190.95800241 184.51470622 193.26617233 186.83539855 195.57421875 189.15625 C197.13322965 190.72028526 198.69247249 192.28408936 200.25195312 193.84765625 C203.11105549 196.71488253 205.96883512 199.58341232 208.82495117 202.45361328 C209.43811188 203.06946289 210.05127258 203.6853125 210.68301392 204.31982422 C211.75544476 205.39711516 212.827429 206.47485106 213.89877319 207.55322266 C216.40093361 210.0665297 218.96169564 212.45263276 221.63671875 214.78125 C225.11585491 217.85230703 228.37313773 221.02949942 231.5703125 224.39453125 C232.3118457 225.16635742 233.05337891 225.93818359 233.81738281 226.73339844 C235.304512 228.28873866 236.77701723 229.8582142 238.23339844 231.44238281 C241.4019472 234.73749692 243.42800848 236.77694173 247.90625 237.96484375 C253.06076154 236.58220822 255.67645591 233.77713137 259.38671875 230.03125 C260.46022658 228.96933292 261.53450714 227.90819669 262.609375 226.84765625 C266.39178737 223.09852329 270.14072698 219.31672274 273.88671875 215.53125 C276.43578499 212.95531781 278.98833229 210.38290686 281.54296875 207.8125 C282.11092163 207.23624878 282.67887451 206.65999756 283.26403809 206.06628418 C286.1808954 203.13204064 289.15663281 200.32859682 292.29101562 197.62695312 C296.65324106 193.85409747 300.7084907 189.81862414 304.76171875 185.71875 C305.5304834 184.94619873 306.29924805 184.17364746 307.09130859 183.37768555 C309.5255764 180.93130818 311.95655981 178.4817086 314.38671875 176.03125 C317.59208053 172.79911312 320.80085948 169.57042465 324.01171875 166.34375 C325.09332275 165.24969849 325.09332275 165.24969849 326.19677734 164.13354492 C330.13173062 160.17987117 334.17068961 156.43966829 338.39477539 152.79833984 C341.9280691 149.66388956 345.22409091 146.29576764 348.54296875 142.9375 C349.28953735 142.18714478 350.03610596 141.43678955 350.80529785 140.66369629 C353.168239 138.2886508 355.52789245 135.91038183 357.88671875 133.53125 C360.99832521 130.39285783 364.1133563 127.25792255 367.23046875 124.125 C368.27926208 123.06375916 368.27926208 123.06375916 369.34924316 121.9810791 C373.23910296 118.0721639 377.23867594 114.37999956 381.41394043 110.7791748 C384.7886047 107.78914834 387.9385782 104.58198516 391.10546875 101.375 C391.80764526 100.66903687 392.50982178 99.96307373 393.23327637 99.23571777 C395.45356478 97.00333642 397.6705583 94.76772889 399.88671875 92.53125 C402.81081354 89.58034622 405.73834932 86.63291797 408.66796875 83.6875 C409.32341675 83.02375366 409.97886475 82.36000732 410.6541748 81.67614746 C413.80200069 78.51192769 416.99317695 75.46117041 420.37304688 72.54492188 C424.55413433 68.93558538 428.44385611 65.08415366 432.32421875 61.15625 C433.04859131 60.42809082 433.77296387 59.69993164 434.51928711 58.94970703 C436.81090178 56.64599354 439.09922527 54.33905526 441.38671875 52.03125 C444.40456956 48.98660221 447.42585291 45.94542033 450.44921875 42.90625 C451.12654053 42.22062988 451.8038623 41.53500977 452.50170898 40.82861328 C456.37568328 36.93508069 460.36653615 33.25986914 464.52487183 29.67269897 C467.20564355 27.30926622 469.67743968 24.79875667 472.171875 22.23828125 C473.20739424 21.18526353 474.24321024 20.13253758 475.27929688 19.08007812 C476.87097534 17.45741689 478.46014354 15.83250749 480.04418945 14.20239258 C481.60068959 12.60326172 483.16674755 11.01399559 484.734375 9.42578125 C485.65226807 8.48581299 486.57016113 7.54584473 487.51586914 6.57739258 C494.37077881 0.49780648 501.11180771 -1.34201631 510.1640625 -1.17578125 C521.28268433 -0.14012755 530.18099893 10.53905581 537.515625 18 C538.34956284 18.8391394 539.18350067 19.67827881 540.04270935 20.54284668 C542.68307809 23.20087484 545.31660715 25.86554051 547.94921875 28.53125 C550.5862677 31.19607261 553.22483158 33.85934998 555.86643982 36.51965332 C557.50215531 38.16746178 559.13519302 39.81793444 560.76502991 41.47155762 C564.848746 45.59077953 569.02050606 49.50496196 573.41661072 53.28723145 C576.94521013 56.410889 580.23163944 59.77437048 583.54296875 63.125 C584.28953735 63.87535522 585.03610596 64.62571045 585.80529785 65.39880371 C588.96372987 68.57341504 592.11611154 71.75400916 595.26904297 74.93408203 C597.5874162 77.27065361 599.90887395 79.60412999 602.23046875 81.9375 C602.92966431 82.6449939 603.62885986 83.35248779 604.34924316 84.0814209 C608.23910296 87.9903361 612.23867594 91.68250044 616.41394043 95.2833252 C619.7886047 98.27335166 622.9385782 101.48051484 626.10546875 104.6875 C626.80764526 105.39346313 627.50982178 106.09942627 628.23327637 106.82678223 C631.20055641 109.81022375 634.16177238 112.7996571 637.12353516 115.78857422 C639.3029034 117.98615579 641.48536822 120.18062938 643.66796875 122.375 C644.32341675 123.03874634 644.97886475 123.70249268 645.6541748 124.38635254 C649.44310062 128.19501109 653.35270801 131.780503 657.41873169 135.29034424 C660.67046332 138.16686637 663.71731929 141.23879869 666.7734375 144.3203125 C667.43833694 144.98662689 668.10323639 145.65294128 668.7882843 146.33944702 C670.88598634 148.4426817 672.98016731 150.5493813 675.07421875 152.65625 C676.48869771 154.07575462 677.90340943 155.49502735 679.31835938 156.9140625 C681.91379454 159.51761335 684.50789338 162.12247911 687.1003418 164.72900391 C687.94587364 165.57803284 687.94587364 165.57803284 688.80848694 166.44421387 C690.22515824 167.86878821 691.63751807 169.29764703 693.04931641 170.72705078 C695.23010841 172.87686433 697.46908235 174.90616296 699.7734375 176.921875 C706.85723426 183.26118376 713.50181161 190.03923276 720.19921875 196.78125 C721.50822662 198.09528814 722.81747001 199.40909171 724.12695312 200.72265625 C726.52464789 203.12844086 728.9209941 205.53555031 731.31567383 207.94433594 C732.33935377 208.97330898 733.36303532 210.00228043 734.38671875 211.03125 C735.2988916 211.94865967 736.21106445 212.86606934 737.15087891 213.8112793 C739.35025094 215.99504103 741.62073334 218.04893794 743.94921875 220.09375 C746.91651401 222.71169157 749.74436407 225.3711713 752.421875 228.28125 C752.93613037 228.83031006 753.45038574 229.37937012 753.98022461 229.94506836 C754.97939036 231.02068869 755.96175158 232.11224072 756.92407227 233.22094727 C759.60321549 236.07848324 761.21057699 237.00444632 765.10888672 237.59765625 C769.68429785 237.44546892 771.82733535 235.49094105 774.96679688 232.33189392 C775.9171582 231.31489159 775.9171582 231.31489159 776.88671875 230.27734375 C777.56669922 229.58367203 778.24667969 228.89000031 778.94726562 228.17530823 C781.11340745 225.95793126 783.25034518 223.71478624 785.38671875 221.46875 C787.52881397 219.25391441 789.67658083 217.04473277 791.82617188 214.83717346 C793.15869102 213.46470045 794.4859021 212.08704509 795.80664062 210.70323181 C799.49801513 206.85622428 803.32340862 203.29674727 807.36401367 199.82044983 C810.9114929 196.68249892 814.21504623 193.30491967 817.54296875 189.9375 C818.28953735 189.18714478 819.03610596 188.43678955 819.80529785 187.66369629 C822.168239 185.2886508 824.52789245 182.91038183 826.88671875 180.53125 C829.99832521 177.39285783 833.1133563 174.25792255 836.23046875 171.125 C836.92966431 170.4175061 837.62885986 169.71001221 838.34924316 168.9810791 C841.5989307 165.71547219 844.88295558 162.55351814 848.37304688 159.54492188 C852.71134097 155.80327888 856.73559969 151.79120317 860.76171875 147.71875 C861.5304834 146.94619873 862.29924805 146.17364746 863.09130859 145.37768555 C865.5255764 142.93130818 867.95655981 140.4817086 870.38671875 138.03125 C873.59208053 134.79911312 876.80085948 131.57042465 880.01171875 128.34375 C881.09332275 127.24969849 881.09332275 127.24969849 882.19677734 126.13354492 C886.14473677 122.16680314 890.19676865 118.41141483 894.43505859 114.75805664 C897.72735451 111.84507077 900.79971151 108.72118981 903.88671875 105.59375 C904.56669922 104.90998291 905.24667969 104.22621582 905.94726562 103.52172852 C908.09622801 101.36067945 910.24189154 99.19640274 912.38671875 97.03125 C915.21705712 94.17408983 918.05084548 91.32041546 920.88671875 88.46875 C921.83708008 87.50594116 921.83708008 87.50594116 922.80664062 86.52368164 C925.89452637 83.41919001 929.02922796 80.43239899 932.34570312 77.57226562 C936.61338404 73.88637694 940.58067845 69.94681639 944.54296875 65.9375 C945.28953735 65.18714478 946.03610596 64.43678955 946.80529785 63.66369629 C949.168239 61.2886508 951.52789245 58.91038183 953.88671875 56.53125 C956.99832521 53.39285783 960.1133563 50.25792255 963.23046875 47.125 C963.92966431 46.4175061 964.62885986 45.71001221 965.34924316 44.9810791 C969.26525571 41.04588303 973.29293952 37.32788635 977.49673462 33.70306396 C980.39162134 31.14234826 983.07225744 28.39401629 985.7578125 25.6171875 C986.92077459 24.43185062 988.0842001 23.24696825 989.24804688 22.0625 C991.04072168 20.23276922 992.83007976 18.40019445 994.61157227 16.55957031 C1011.52228678 -0.88316146 1011.52228678 -0.88316146 1025.07421875 -1.34375 C1040.31308222 -1.14056515 1051.09352599 13.59305442 1061.01171875 23.65625 C1062.79306508 25.46341294 1064.57687868 27.26814755 1066.36328125 29.0703125 C1067.13752441 29.85615723 1067.91176758 30.64200195 1068.70947266 31.45166016 C1070.84359315 33.50793565 1073.00500426 35.45458913 1075.24560547 37.39013672 C1079.22890604 40.8477953 1082.96475274 44.49654609 1086.66796875 48.25 C1087.65464539 49.24235657 1087.65464539 49.24235657 1088.66125488 50.25476074 C1091.43738433 53.04703144 1094.20743412 55.84530416 1096.97802734 58.64306641 C1099.01838955 60.70165898 1101.06186206 62.75712903 1103.10546875 64.8125 C1103.71716919 65.43249878 1104.32886963 66.05249756 1104.95910645 66.69128418 C1108.68940501 70.44231927 1112.53989733 73.95271483 1116.60583496 77.33874512 C1121.90126791 82.37138463 1124.51653851 88.36093294 1124.76171875 95.59375 C1124.56205056 106.6953012 1119.03437338 112.87038771 1111.46020508 120.30249023 C1108.61061051 123.02701617 1105.68656152 125.64334593 1102.69458008 128.21020508 C1098.2744419 132.07115446 1094.13641916 136.17158097 1090.01171875 140.34375 C1089.2429541 141.11630127 1088.47418945 141.88885254 1087.68212891 142.68481445 C1085.2478611 145.13119182 1082.81687769 147.5807914 1080.38671875 150.03125 C1077.18135697 153.26338688 1073.97257802 156.49207535 1070.76171875 159.71875 C1069.68011475 160.81280151 1069.68011475 160.81280151 1068.57666016 161.92895508 C1065.28063493 165.24066109 1061.95545063 168.4535125 1058.41357422 171.50219727 C1053.90967518 175.38476192 1049.75342592 179.57457936 1045.58203125 183.80859375 C1043.93111846 185.47213312 1042.28007305 187.13554088 1040.62890625 188.79882812 C1038.05279247 191.39991192 1035.47831713 194.00258041 1032.90625 196.60766602 C1030.40664842 199.13728361 1027.90101688 201.66079984 1025.39453125 204.18359375 C1024.62062042 204.9709642 1023.84670959 205.75833466 1023.04934692 206.56956482 C1022.3345517 207.2877388 1021.61975647 208.00591278 1020.88330078 208.74584961 C1020.25457062 209.3820372 1019.62584045 210.01822479 1018.97805786 210.6736908 C1017.38671875 212.03125 1017.38671875 212.03125 1015.38671875 212.03125 C1015.13241089 212.62321167 1014.87810303 213.21517334 1014.61608887 213.82507324 C1013.25385642 216.26967924 1011.86952634 217.55760892 1009.71679688 219.33007812 C1005.63719459 222.78572502 1001.8586578 226.44589511 998.10546875 230.25 C997.11879211 231.24235657 997.11879211 231.24235657 996.11218262 232.25476074 C994.03454601 234.34447735 991.96021248 236.43742315 989.88671875 238.53125 C987.15013725 241.294667 984.41009612 244.05458722 981.66796875 246.8125 C981.05626831 247.43249878 980.44456787 248.05249756 979.81433105 248.69128418 C976.76850456 251.75404226 973.67003976 254.69388017 970.40039062 257.51757812 C966.37646297 260.99436619 962.62112992 264.68542678 958.88671875 268.46875 C957.86674805 269.49440063 957.86674805 269.49440063 956.82617188 270.54077148 C954.67720949 272.70182055 952.53154596 274.86609726 950.38671875 277.03125 C947.55638038 279.88841017 944.72259202 282.74208454 941.88671875 285.59375 C940.93635742 286.55655884 940.93635742 286.55655884 939.96679688 287.53881836 C936.88339015 290.63880689 933.75374222 293.62136621 930.44140625 296.4765625 C926.09116039 300.23383218 922.05139379 304.25758484 918.01171875 308.34375 C917.2429541 309.11630127 916.47418945 309.88885254 915.68212891 310.68481445 C913.2478611 313.13119182 910.81687769 315.5807914 908.38671875 318.03125 C905.18135697 321.26338688 901.97257802 324.49207535 898.76171875 327.71875 C897.68011475 328.81280151 897.68011475 328.81280151 896.57666016 329.92895508 C892.6460412 333.87827389 888.61144123 337.61341397 884.39208984 341.25073242 C880.77854241 344.45910854 877.40787323 347.90851129 874.01171875 351.34375 C873.2429541 352.11630127 872.47418945 352.88885254 871.68212891 353.68481445 C869.2478611 356.13119182 866.81687769 358.5807914 864.38671875 361.03125 C861.18135697 364.26338688 857.97257802 367.49207535 854.76171875 370.71875 C853.68011475 371.81280151 853.68011475 371.81280151 852.57666016 372.92895508 C848.64170688 376.88262883 844.60274789 380.62283171 840.37866211 384.26416016 C836.8453684 387.39861044 833.54934659 390.76673236 830.23046875 394.125 C829.48390015 394.87535522 828.73733154 395.62571045 827.96813965 396.39880371 C825.6051985 398.7738492 823.24554505 401.15211817 820.88671875 403.53125 C817.77511229 406.66964217 814.6600812 409.80457745 811.54296875 412.9375 C810.84377319 413.6449939 810.14457764 414.35248779 809.42419434 415.0814209 C805.47440695 419.05055726 801.42721124 422.82714248 797.16278076 426.45724487 C794.84564706 428.51076569 792.77212671 430.74717411 790.6706543 433.0168457 C783.83247306 440.32519952 776.63241948 445.93329976 766.19921875 446.53125 C756.02915744 445.19747147 750.57073278 441.22918653 743.38671875 434.03125 C742.50693359 433.15388184 742.50693359 433.15388184 741.609375 432.25878906 C736.42635772 427.08372119 736.42635772 427.08372119 733.91552734 424.52441406 C730.94937592 421.51444358 727.95129868 418.61763628 724.73291016 415.87744141 C719.98386303 411.74384338 715.56417293 407.31664338 711.13671875 402.84375 C709.85039551 401.55174683 709.85039551 401.55174683 708.53808594 400.23364258 C704.90176936 396.58111017 701.27147504 392.92261365 697.640625 389.26464844 C694.97474278 386.58059844 692.30580065 383.89961759 689.63671875 381.21875 C688.8281543 380.40188721 688.01958984 379.58502441 687.18652344 378.7434082 C683.01953628 374.55864675 678.7704127 370.5647398 674.29418945 366.71386719 C671.09030621 363.88765916 668.10484037 360.85256115 665.10546875 357.8125 C664.44768433 357.15092896 663.7898999 356.48935791 663.11218262 355.80773926 C660.33605317 353.01546856 657.56600338 350.21719584 654.79541016 347.41943359 C652.75504795 345.36084102 650.71157544 343.30537097 648.66796875 341.25 C648.05626831 340.63000122 647.44456787 340.01000244 646.81433105 339.37121582 C643.76618644 336.30612673 640.66511222 333.36408284 637.39331055 330.5378418 C633.41216031 327.09810445 629.69419297 323.45058036 626 319.70703125 C625.33510056 319.03834518 624.67020111 318.36965912 623.9851532 317.68070984 C621.8873614 315.57083511 619.79288072 313.45772236 617.69921875 311.34375 C614.92740622 308.54525183 612.1522329 305.75014914 609.375 302.95703125 C608.7478157 302.32154861 608.12063141 301.68606598 607.47444153 301.03132629 C604.2536672 297.79265468 600.97285776 294.86854157 597.38671875 292.03125 C595.697665 290.38727525 594.03390845 288.71716863 592.38671875 287.03125 C591.21555988 285.85735837 590.04290957 284.68495369 588.86914062 283.51367188 C580.21419271 274.85872396 571.55924479 266.20377604 562.90429688 257.54882812 C562.29677582 256.9419516 561.68925476 256.33507507 561.06332397 255.70980835 C559.6001869 254.24496683 558.14352636 252.77366204 556.68798828 251.30126953 C554.53181314 249.17437408 552.31605718 247.17114165 550.03515625 245.1796875 C542.72981909 238.64361833 535.90566643 231.62008563 529.01171875 224.65625 C526.34015322 221.95802594 523.66523399 219.26319066 520.98828125 216.5703125 C520.38408356 215.95781647 519.77988586 215.34532043 519.15737915 214.71426392 C514.30011141 209.47690967 514.30011141 209.47690967 508.03515625 206.49609375 C504.04355312 207.30265662 501.8140908 209.81843948 499.01171875 212.59375 C498.356875 213.22345703 497.70203125 213.85316406 497.02734375 214.50195312 C487.65757221 223.58405624 478.48688624 232.88101189 469.30322266 242.15063477 C468.6449649 242.81329849 467.98670715 243.47596222 467.3085022 244.15870667 C466.0737136 245.40201504 464.84093386 246.64732351 463.61068726 247.89512634 C460.66099434 250.86160646 457.65614421 253.70061134 454.48632812 256.43164062 C450.04443618 260.27220978 445.92033431 264.38903363 441.79296875 268.5625 C440.60652771 269.75462097 440.60652771 269.75462097 439.39611816 270.9708252 C436.89052352 273.48853432 434.38821017 276.00946446 431.88671875 278.53125 C428.58760195 281.85713189 425.28507501 285.17957336 421.98046875 288.5 C421.23752563 289.25124146 420.49458252 290.00248291 419.72912598 290.77648926 C415.74478195 294.77925748 411.66203268 298.57263695 407.38439941 302.25842285 C403.77282336 305.46348971 400.40528048 308.91113387 397.01171875 312.34375 C395.85857178 313.5025769 395.85857178 313.5025769 394.68212891 314.68481445 C392.2478611 317.13119182 389.81687769 319.5807914 387.38671875 322.03125 C384.18135697 325.26338688 380.97257802 328.49207535 377.76171875 331.71875 C376.68011475 332.81280151 376.68011475 332.81280151 375.57666016 333.92895508 C371.63737203 337.88698431 367.59405471 341.6322495 363.36523438 345.27758789 C359.91223316 348.33816387 356.69081399 351.62493972 353.44921875 354.90625 C352.72484619 355.63440918 352.00047363 356.36256836 351.25415039 357.11279297 C348.96253572 359.41650646 346.67421223 361.72344474 344.38671875 364.03125 C341.36886794 367.07589779 338.34758459 370.11707967 335.32421875 373.15625 C334.30823608 374.18468018 334.30823608 374.18468018 333.27172852 375.23388672 C329.41850907 379.10655968 325.44917039 382.75919154 321.31341553 386.32717896 C318.25605233 389.03127031 315.4067096 391.92610236 312.55078125 394.83984375 C311.31002196 396.09322383 310.06913299 397.34647554 308.828125 398.59960938 C306.90387642 400.54885784 304.98129142 402.49969905 303.06103516 404.45288086 C301.18692037 406.35700984 299.30678553 408.25502397 297.42578125 410.15234375 C296.56021103 411.03810341 296.56021103 411.03810341 295.67715454 411.9417572 C294.28450604 413.34320732 292.84005918 414.69284278 291.38671875 416.03125 C290.72671875 416.03125 290.06671875 416.03125 289.38671875 416.03125 C289.17015625 416.58554688 288.95359375 417.13984375 288.73046875 417.7109375 C286.95630161 420.7744703 284.52049671 422.85302883 281.88671875 425.15625 C277.81042382 428.77370139 273.98491567 432.47961044 270.26171875 436.46875 C262.16642519 444.52561653 254.36688953 445.47334461 243.31640625 445.7578125 C234.44920753 444.11835031 228.4431059 436.32066683 222.38671875 430.09375 C216.23146386 423.76746041 216.23146386 423.76746041 209.69921875 417.83984375 C202.56768236 411.71713732 196.11879994 404.8151423 189.51367188 398.13769531 C180.71749565 389.2291246 180.71749565 389.2291246 171.42578125 380.84765625 C165.96870099 375.98646407 160.9376914 370.62825378 155.8046875 365.42871094 C148.89011227 358.36104778 148.89011227 358.36104778 141.57421875 351.71875 C134.0637107 345.30999003 127.30864699 338.00318332 120.36816406 330.9921875 C111.22462742 321.70925699 111.22462742 321.70925699 101.56005859 312.98193359 C95.68832827 307.71175551 90.2475103 301.94984342 84.69921875 296.34375 C82.11491575 293.73274243 79.52723824 291.1251467 76.9375 288.51953125 C76.06234489 287.63192863 76.06234489 287.63192863 75.16950989 286.72639465 C72.05227945 283.59059124 68.85436423 280.78303084 65.38671875 278.03125 C63.69720598 276.38774698 62.03296899 274.718086 60.38671875 273.03125 C59.29235872 271.92940872 58.19681418 270.82874315 57.1003418 269.72900391 C56.50589767 269.13133209 55.91145355 268.53366028 55.29899597 267.9178772 C52.60264477 265.20803937 49.90354911 262.50094178 47.2043457 259.79394531 C45.78872716 258.37329706 44.37400731 256.9517527 42.96020508 255.52929688 C40.90036444 253.45721386 38.83721087 251.38847771 36.7734375 249.3203125 C36.1523259 248.69403961 35.53121429 248.06776672 34.89128113 247.42251587 C31.15056675 243.68133363 27.28146142 240.15883953 23.27912903 236.70004272 C20.54209486 234.28643149 17.97519337 231.72639233 15.41796875 229.125 C14.8933606 228.59660522 14.36875244 228.06821045 13.82824707 227.52380371 C11.6255576 225.30505416 9.42901038 223.08026227 7.23193359 220.85595703 C1.77668288 215.33921135 -3.66175874 209.8834419 -9.57080078 204.84667969 C-14.18146979 200.74855217 -18.45940281 196.28612485 -22.80078125 191.90625 C-23.78166319 190.92033623 -24.76278174 189.93465779 -25.74414062 188.94921875 C-27.54858693 187.13669559 -29.35138577 185.32259218 -31.15307617 183.50732422 C-35.22569995 179.40843067 -39.29061074 175.36762008 -43.61328125 171.53125 C-48.83945225 166.89302324 -53.71209657 161.934361 -58.6328125 156.9765625 C-60.07162583 155.53036726 -61.51092606 154.08465855 -62.95043945 152.63916016 C-63.92953892 151.655038 -64.9077382 150.67001938 -65.88500977 149.68408203 C-71.11923328 144.40488036 -76.36841891 139.20568922 -82.0612793 134.41552734 C-84.19618346 132.51134194 -85.82840598 130.26234409 -87.61328125 128.03125 C-88.82486682 126.92828934 -90.05644532 125.84712518 -91.30078125 124.78125 C-108.7410809 109.75325348 -108.7410809 109.75325348 -109.8515625 98.6484375 C-109.87605469 97.74351563 -109.90054687 96.83859375 -109.92578125 95.90625 C-109.96316406 95.01679687 -110.00054687 94.12734375 -110.0390625 93.2109375 C-108.82457634 84.14128853 -103.80366042 78.52181004 -97.36328125 72.40625 C-96.27466797 71.33890625 -96.27466797 71.33890625 -95.1640625 70.25 C-91.85353777 67.02799198 -88.49365699 63.9042686 -84.97265625 60.9140625 C-78.33317856 55.17043934 -72.28427184 48.76727988 -66.11328125 42.53125 C-51.566906 27.83156289 -51.566906 27.83156289 -45.41601562 22.62011719 C-41.01751391 18.74343122 -37.02634134 14.39945651 -32.96875 10.171875 C-23.52803282 0.54130794 -13.73805328 -5.09273126 0 0 Z " fill="#FEFEFE" transform="translate(492.61328125,932.96875)"/>
<path d="M0 0 C1.12472717 0.00093658 2.24945435 0.00187317 3.40826416 0.00283813 C30.34343525 0.05134715 56.5471035 2.23176317 83.20703125 5.96875 C83.89119614 6.06146683 84.57536102 6.15418365 85.28025818 6.24971008 C89.65300877 6.87804124 93.77112713 7.92529443 98 9.1875 C99.97353335 9.51512214 101.95334228 9.80698429 103.9375 10.0625 C117.19773173 12.02362642 130.04459009 15.99637285 142.89453125 19.72265625 C146.38021282 20.73319829 149.87574911 21.69156466 153.3828125 22.625 C159.34974487 24.24431812 165.2028003 26.15677073 171.0625 28.125 C172.07376953 28.45951172 173.08503906 28.79402344 174.12695312 29.13867188 C182.8077057 32.03970896 191.2417287 35.3568864 199.58203125 39.12109375 C202.38952728 40.35929475 205.22375893 41.52279695 208.0625 42.6875 C212.13085069 44.3705994 216.09324719 46.14338314 219.98828125 48.1953125 C221.6343873 49.0071784 223.32086578 49.7367201 225.015625 50.44140625 C256.41126361 63.79066761 286.23269423 83.06243204 313.20458984 103.81323242 C315.13563401 105.29131885 317.0799494 106.75056294 319.02734375 108.20703125 C328.51290782 115.31176565 337.67895035 122.59695255 346.33203125 130.703125 C348.53585299 132.75529283 350.77099825 134.73530784 353.0625 136.6875 C357.29682213 140.34961643 361.1855488 144.34137527 365.09375 148.34375 C367.25659996 150.51082128 369.51279877 152.53207576 371.828125 154.53515625 C376.11709906 158.25355082 380.20809613 162.14072784 384.25 166.125 C384.94351563 166.78951172 385.63703125 167.45402344 386.3515625 168.13867188 C391.48283054 173.20604481 395.23052357 178.03763403 396.56640625 185.2421875 C396.5513444 196.11684252 392.56317782 202.9720702 385.35546875 210.88671875 C383.40311171 212.79374744 381.41840391 214.56419705 379.34887695 216.33911133 C375.06844531 220.07354778 371.05327643 224.02282979 367.0625 228.0625 C366.33812744 228.79065918 365.61375488 229.51881836 364.86743164 230.26904297 C362.57581697 232.57275646 360.28749348 234.87969474 358 237.1875 C354.98214919 240.23214779 351.96086584 243.27332967 348.9375 246.3125 C347.92151733 247.34093018 347.92151733 247.34093018 346.88500977 248.39013672 C343.02477104 252.2698644 339.04772714 255.92908131 334.90435791 259.50354004 C331.97394708 262.09480426 329.25053282 264.86986545 326.5234375 267.671875 C325.34664053 268.86616766 324.16954864 270.06016977 322.9921875 271.25390625 C321.17438969 273.10273963 319.35907499 274.95382953 317.54882812 276.81005859 C315.77633872 278.62499998 313.99442621 280.43024995 312.2109375 282.234375 C311.40914566 283.06409821 311.40914566 283.06409821 310.59115601 283.9105835 C306.2706389 288.26012007 302.33499915 290.84854851 296.125 291.75 C286.01062945 291.22338206 277.1368641 278.51016901 270.5 271.75 C268.13886491 269.35204221 265.77445298 266.95738421 263.40625 264.56640625 C262.84302536 263.997547 262.27980072 263.42868774 261.69950867 262.84259033 C258.12886821 259.25870829 254.47810421 255.82381464 250.59887695 252.5715332 C248.86281667 251.06875022 247.27772949 249.46787623 245.6875 247.8125 C241.12529353 243.19937605 236.0781051 239.21208566 231 235.1875 C230.33500488 234.65672852 229.67000977 234.12595703 228.98486328 233.57910156 C206.55830186 215.7125908 182.56623753 201.14915394 157 188.1875 C156.13568359 187.74583496 155.27136719 187.30416992 154.38085938 186.84912109 C149.90206257 184.57868983 145.45859337 182.45007506 140.75 180.6875 C139.65300781 180.27628906 138.55601562 179.86507812 137.42578125 179.44140625 C131.62975245 177.31994075 125.83214118 175.20794188 120 173.1875 C119.16823242 172.89641357 118.33646484 172.60532715 117.47949219 172.30541992 C108.87666873 169.35669476 100.16275769 166.94643165 91.375 164.625 C90.62764587 164.42640381 89.88029175 164.22780762 89.11029053 164.02319336 C79.18390785 161.39530086 69.31899729 159.02215025 59.1328125 157.625 C56 157.1875 56 157.1875 54.17529297 156.69140625 C51.46766731 156.06418522 48.83530865 155.87943731 46.0625 155.6875 C44.92039062 155.605 43.77828125 155.5225 42.6015625 155.4375 C41.41304687 155.355 40.22453125 155.2725 39 155.1875 C36.64560633 155.02407137 34.29142576 154.85753527 31.9375 154.6875 C30.89464844 154.6153125 29.85179687 154.543125 28.77734375 154.46875 C26 154.1875 26 154.1875 24.0846405 153.67900085 C21.93900877 153.17311995 20.06971123 153.05415978 17.8684082 153.04223633 C17.06268875 153.03585648 16.2569693 153.02947662 15.42683411 153.02290344 C14.12693794 153.02123421 14.12693794 153.02123421 12.80078125 153.01953125 C11.43810371 153.01453865 11.43810371 153.01453865 10.04789734 153.00944519 C8.11876937 153.00438197 6.18963265 153.00203668 4.26049805 153.00219727 C1.36817006 153.00004149 -1.52375668 152.98196591 -4.41601562 152.96289062 C-14.51622902 152.93291499 -24.3308704 153.32688258 -34.33935547 154.7199707 C-38.04661997 155.1934542 -41.70433019 155.41455819 -45.4375 155.5625 C-53.45020641 156.0323282 -61.00173239 157.79809418 -68.77514648 159.67407227 C-71.1107324 160.21305363 -73.45250642 160.68745964 -75.8046875 161.1484375 C-95.63843794 165.05649996 -115.52054907 169.88960532 -133.9765625 178.28564453 C-136.52544995 179.42169548 -139.12390012 180.37036812 -141.75 181.3125 C-172.01109853 192.88912956 -199.48180038 210.43311988 -225 230.1875 C-226.41925781 231.28384766 -226.41925781 231.28384766 -227.8671875 232.40234375 C-236.28176867 239.02129 -244.15104278 246.16545322 -251.6015625 253.8515625 C-253.49697461 255.69758276 -255.40763789 257.39348092 -257.421875 259.1015625 C-261.28862934 262.45538922 -264.88717739 266.02784111 -268.4765625 269.671875 C-269.0547171 270.25790497 -269.6328717 270.84393494 -270.22854614 271.44772339 C-272.64119939 273.89687493 -275.05087459 276.34879119 -277.45117188 278.81005859 C-279.22366128 280.62499998 -281.00557379 282.43024995 -282.7890625 284.234375 C-283.32359039 284.7875238 -283.85811829 285.34067261 -284.40884399 285.9105835 C-288.09998801 289.6265197 -291.81976612 292.59120615 -297.125 293.5859375 C-297.74375 293.57820313 -298.3625 293.57046875 -299 293.5625 C-299.61875 293.57023437 -300.2375 293.57796875 -300.875 293.5859375 C-307.63546163 292.31835094 -311.82548203 287.75050515 -316.41015625 283.03515625 C-317.44504433 281.9903434 -317.44504433 281.9903434 -318.50083923 280.92442322 C-320.69531202 278.70663751 -322.87934533 276.47892311 -325.0625 274.25 C-327.25092343 272.02640763 -329.44151126 269.80501035 -331.63487244 267.58628845 C-332.99601773 266.20829113 -334.35405625 264.82721598 -335.70851135 263.44264221 C-338.9932371 260.10629254 -342.3173409 257.08839964 -346 254.1875 C-347.68945546 252.54393807 -349.3525161 250.87313114 -351 249.1875 C-352.26294453 247.9218002 -353.52741205 246.65761918 -354.79296875 245.39453125 C-383.20703125 216.98046875 -383.20703125 216.98046875 -385.19848633 214.98803711 C-386.31158214 213.87554468 -387.42577752 212.76414971 -388.54174805 211.65454102 C-394.79942806 205.42894579 -398.05270283 200.76401424 -398.25 191.75 C-397.82457394 176.71827911 -386.21781146 168.21847507 -376.17700195 158.17919922 C-374.53503206 156.53499468 -372.90128959 154.88287478 -371.26757812 153.23046875 C-370.22184133 152.18180563 -369.17563553 151.13360996 -368.12890625 150.0859375 C-367.64249161 149.59233734 -367.15607697 149.09873718 -366.65492249 148.59017944 C-363.22888675 145.1875 -363.22888675 145.1875 -361 145.1875 C-361 144.5275 -361 143.8675 -361 143.1875 C-359.49609375 141.70703125 -359.49609375 141.70703125 -357.4375 140 C-354.72517387 137.70021298 -352.15033357 135.37695535 -349.6875 132.8125 C-345.64389522 128.71461865 -341.19390763 125.1790044 -336.71044922 121.57714844 C-334.7932122 120.01949598 -332.89780372 118.43750551 -331.00390625 116.8515625 C-322.26034182 109.54407624 -313.37218826 102.66602513 -304 96.1875 C-302.35415168 95.02085447 -300.70831717 93.85418947 -299.0625 92.6875 C-297.37711866 91.51777478 -295.68944895 90.35134261 -294 89.1875 C-292.97519531 88.47464844 -291.95039062 87.76179687 -290.89453125 87.02734375 C-275.63033876 76.54491541 -259.40546362 67.53178178 -243.1875 58.625 C-242.32374756 58.14885254 -241.45999512 57.67270508 -240.57006836 57.18212891 C-232.27321511 52.67260361 -223.68736937 48.87305064 -215 45.1875 C-213.92621094 44.71570313 -212.85242188 44.24390625 -211.74609375 43.7578125 C-204.72535617 40.69090234 -197.70576048 37.92938716 -190.44921875 35.4609375 C-187.82817325 34.49325819 -185.3590355 33.45948542 -182.8269043 32.296875 C-178.39864777 30.31819019 -173.92442983 28.68073935 -169.3203125 27.1640625 C-168.51798691 26.89712585 -167.71566132 26.63018921 -166.88902283 26.35516357 C-164.30349741 25.49981583 -161.71489744 24.65451205 -159.125 23.8125 C-158.23827606 23.52336731 -157.35155212 23.23423462 -156.43795776 22.93634033 C-141.45147104 18.07367765 -126.50758069 14.05947856 -111 11.1875 C-110.1651709 11.0313623 -109.3303418 10.87522461 -108.47021484 10.71435547 C-105.06271429 10.0846398 -101.6543879 9.48438336 -98.234375 8.92578125 C-94.48506436 8.30626719 -90.7780804 7.51571393 -87.05859375 6.73828125 C-79.55996858 5.20500086 -72.04215757 4.17601916 -64.44067383 3.30712891 C-62.32965212 3.0644716 -60.22058515 2.80827688 -58.11132812 2.55078125 C-38.78776765 0.2529612 -19.44125179 -0.02105161 0 0 Z " fill="#FEFEFE" transform="translate(1000,624.8125)"/>
<path d="M0 0 C0.66 0 1.32 0 2 0 C0.49449674 4.15177444 -1.57338897 7.81445205 -3.875 11.5625 C-4.67339412 12.87747242 -5.47155798 14.19258465 -6.26953125 15.5078125 C-6.70217285 16.2184082 -7.13481445 16.92900391 -7.58056641 17.66113281 C-10.25960774 22.07551465 -12.90840627 26.50809142 -15.5625 30.9375 C-16.60535365 32.67585031 -17.64831287 34.41413728 -18.69140625 36.15234375 C-19.13685791 36.89476318 -19.58230957 37.63718262 -20.04125977 38.40209961 C-20.35764404 38.92940674 -20.67402832 39.45671387 -21 40 C-21.66 39.67 -22.32 39.34 -23 39 C-22.63648438 38.40574219 -22.27296875 37.81148438 -21.8984375 37.19921875 C-18.5772775 31.72356266 -15.42078215 26.18696835 -12.39453125 20.54296875 C-8.35555556 13.17777778 -8.35555556 13.17777778 -6 12 C-5.31653318 10.34015202 -4.65411685 8.67163195 -4 7 C-2.7239448 4.62948207 -1.36542483 2.32122221 0 0 Z M-24 40 C-23.34 40.66 -22.68 41.32 -22 42 C-22.66 42 -23.32 42 -24 42 C-24 41.34 -24 40.68 -24 40 Z " fill="#378AFA" transform="translate(151,469)"/>
<path d="M0 0 C0.33 0 0.66 0 1 0 C1.16849368 11.32885979 0.6367928 22.56872244 0 33.875 C-0.09670131 35.64190812 -0.19305767 37.40883515 -0.2890625 39.17578125 C-0.52207595 43.45074873 -0.75971948 47.72543507 -1 52 C-1.33 52 -1.66 52 -2 52 C-2.02490465 46.48649415 -2.04295608 40.97302178 -2.05493164 35.45947266 C-2.05992942 33.58772205 -2.06672988 31.71597529 -2.07543945 29.84423828 C-2.08770621 27.13833665 -2.093274 24.43248708 -2.09765625 21.7265625 C-2.10281754 20.90322418 -2.10797882 20.07988586 -2.11329651 19.2315979 C-2.11471279 4.22942558 -2.11471279 4.22942558 0 0 Z " fill="#4290F8" transform="translate(3,917)"/>
<path d="M0 0 C0.66 0.33 1.32 0.66 2 1 C-6.91 9.91 -15.82 18.82 -25 28 C-25 24.07290865 -23.72099538 23.1810287 -21.125 20.3125 C-20.40570313 19.50425781 -19.68640625 18.69601562 -18.9453125 17.86328125 C-17 16 -17 16 -15 16 C-14.34 14.68 -13.68 13.36 -13 12 C-12.34 12 -11.68 12 -11 12 C-10.67 11.01 -10.34 10.02 -10 9 C-8.22265625 7.24609375 -8.22265625 7.24609375 -6.0625 5.4375 C-3.96656037 3.66869432 -1.94005112 1.94005112 0 0 Z " fill="#3489FA" transform="translate(305,280)"/>
<path d="M0 0 C0.33 0 0.66 0 1 0 C1.33972801 2.81185594 1.67190212 5.62428236 2 8.4375 C2.09539063 9.22060547 2.19078125 10.00371094 2.2890625 10.81054688 C2.91511131 16.24375619 3.08759571 21.53074263 3 27 C1.01935449 23.31134844 0.48730705 20.17691753 0 16 C-0.20625 14.700625 -0.4125 13.40125 -0.625 12.0625 C-1.15672841 7.88229665 -0.66685837 4.14934097 0 0 Z " fill="#408EF9" transform="translate(5,1095)"/>
<path d="M0 0 C0.33 0 0.66 0 1 0 C1.10064005 6.28371307 0.75941669 12.32809949 0 18.5625 C-0.09539063 19.38041016 -0.19078125 20.19832031 -0.2890625 21.04101562 C-0.52144509 23.02788675 -0.76005516 25.01402794 -1 27 C-1.33 27 -1.66 27 -2 27 C-2.99441598 19.17905269 -2.93181901 12.6346546 -1 5 C-0.65903529 3.3348778 -0.32370711 1.66856303 0 0 Z " fill="#408FF8" transform="translate(7,878)"/>
<path d="M0 0 C0.66 0.33 1.32 0.66 2 1 C0.89966185 2.60679516 -0.20542664 4.21033793 -1.3125 5.8125 C-1.92738281 6.70582031 -2.54226562 7.59914063 -3.17578125 8.51953125 C-4.67715037 10.56100746 -6.14785401 12.28462787 -8 14 C-7.49231681 9.5577721 -5.84178232 7.3746165 -3 4 C-2.67 3.01 -2.34 2.02 -2 1 C-1.34 0.67 -0.68 0.34 0 0 Z " fill="#378AFA" transform="translate(164,450)"/>
<path d="M0 0 C0.66 0.33 1.32 0.66 2 1 C0.58972554 2.46451579 -0.82848796 3.9213893 -2.25 5.375 C-3.03890625 6.18710937 -3.8278125 6.99921875 -4.640625 7.8359375 C-6.73379455 9.75583143 -8.40397179 10.91633685 -11 12 C-9.49650623 8.33213607 -7.36271208 6.31089607 -4.375 3.75 C-3.14910156 2.69039063 -3.14910156 2.69039063 -1.8984375 1.609375 C-1.27195312 1.07828125 -0.64546875 0.5471875 0 0 Z " fill="#3388FA" transform="translate(327,259)"/>
<path d="M0 0 C0.66 0.33 1.32 0.66 2 1 C1.21718695 2.33855056 0.42348123 3.67073644 -0.375 5 C-0.81585938 5.7425 -1.25671875 6.485 -1.7109375 7.25 C-2.34902344 8.11625 -2.34902344 8.11625 -3 9 C-3.66 9 -4.32 9 -5 9 C-3.7508258 5.54074837 -2.32472205 2.85306797 0 0 Z " fill="#378AF9" transform="translate(197,402)"/>
<path d="" fill="#2B85FD" transform="translate(0,0)"/>
<path d="" fill="#2B85FD" transform="translate(0,0)"/>
</svg>
